SplineFontDB: 3.2
FontName: WhiteStorm
FullName: White Storm
FamilyName: White Storm
Weight: Book
Copyright: (c)Woodcutter Manero MMXX
Version: 1.00;June 8, 2020;FontCreator 11.0.0.2388 64-bit
ItalicAngle: 0
UnderlinePosition: -292
UnderlineWidth: 150
Ascent: 1638
Descent: 410
InvalidEm: 0
sfntRevision: 0x00010000
LayerCount: 2
Layer: 0 1 "Back" 1
Layer: 1 1 "Fore" 0
XUID: [1021 26 -971361217 22310]
StyleMap: 0x0040
FSType: 0
OS2Version: 3
OS2_WeightWidthSlopeOnly: 0
OS2_UseTypoMetrics: 0
CreationTime: 1591600750
ModificationTime: 1711903399
PfmFamily: 17
TTFWeight: 400
TTFWidth: 5
LineGap: 222
VLineGap: 0
Panose: 2 0 5 0 0 0 0 0 0 0
OS2TypoAscent: 1434
OS2TypoAOffset: 0
OS2TypoDescent: -410
OS2TypoDOffset: 0
OS2TypoLinegap: 205
OS2WinAscent: 1716
OS2WinAOffset: 0
OS2WinDescent: 418
OS2WinDOffset: 0
HheadAscent: 1716
HheadAOffset: 0
HheadDescent: -418
HheadDOffset: 0
OS2SubXSize: 1434
OS2SubYSize: 1331
OS2SubXOff: 0
OS2SubYOff: 283
OS2SupXSize: 1434
OS2SupYSize: 1331
OS2SupXOff: 0
OS2SupYOff: 977
OS2StrikeYSize: 102
OS2StrikeYPos: 530
OS2CapHeight: 1434
OS2XHeight: 1024
OS2Vendor: 'HL  '
OS2CodePages: 20000001.00000000
OS2UnicodeRanges: 00000003.10000000.00000000.00000000
DEI: 91125
TtTable: prep
SVTCA[y-axis]
MPPEM
PUSHW_1
 200
GT
IF
PUSHB_2
 1
 1
INSTCTRL
EIF
PUSHB_1
 1
PUSHW_2
 2048
 2048
MUL
WCVTF
PUSHB_2
 0
 7
WS
PUSHB_3
 25
 1
 0
LOOPCALL
PUSHB_2
 0
 7
WS
PUSHB_4
 12
 8
 1
 8
LOOPCALL
PUSHB_2
 0
 7
WS
PUSHB_4
 22
 6
 1
 8
LOOPCALL
PUSHB_2
 0
 8
WS
PUSHW_3
 832
 1
 9
LOOPCALL
PUSHB_2
 0
 9
WS
PUSHW_3
 64
 1
 9
LOOPCALL
PUSHB_2
 3
 0
WCVTP
PUSHB_2
 36
 1
GETINFO
LTEQ
IF
PUSHB_1
 64
GETINFO
IF
PUSHB_2
 3
 100
WCVTP
PUSHB_2
 38
 1
GETINFO
LTEQ
IF
PUSHW_3
 2176
 1
 1088
GETINFO
MUL
EQ
IF
PUSHB_2
 3
 0
WCVTP
EIF
EIF
EIF
EIF
PUSHB_4
 14
 8
 1
 12
LOOPCALL
PUSHW_1
 511
SCANCTRL
PUSHB_1
 4
SCANTYPE
PUSHB_2
 2
 0
WCVTP
PUSHB_4
 5
 100
 6
 0
WCVTP
WCVTP
EndTTInstrs
TtTable: fpgm
PUSHB_1
 0
FDEF
DUP
PUSHB_1
 0
NEQ
IF
RCVT
EIF
DUP
DUP
MPPEM
PUSHW_1
 14
LTEQ
MPPEM
PUSHB_1

StartChar: .notdef
Encoding: 65536 -1 0
Width: 1024
GlyphClass: 1
Flags: W
LayerCount: 2
Fore
SplineSet
100 0 m 1,0,-1
 100 1434 l 1,1,-1
 924 1434 l 1,2,-1
 924 0 l 1,3,-1
 100 0 l 1,0,-1
150 50 m 1,4,-1
 874 50 l 1,5,-1
 874 1384 l 1,6,-1
 150 1384 l 1,7,-1
 150 50 l 1,4,-1
325 1148 m 1,8,9
 356 1176 356 1176 383 1191 c 0,10,11
 436 1221 436 1221 495 1221 c 0,12,13
 587 1221 587 1221 643 1173.5 c 128,-1,14
 699 1126 699 1126 699 1046 c 0,15,16
 699 997 699 997 676 947.5 c 128,-1,17
 653 898 653 898 589 818 c 0,18,19
 526 738 526 738 490 686 c 128,-1,20
 454 634 454 634 454 587 c 0,21,22
 454 549 454 549 478 454 c 1,23,-1
 446 454 l 1,24,25
 411 551 411 551 411 602 c 0,26,27
 411 678 411 678 492.5 820 c 128,-1,28
 574 962 574 962 574 1037 c 0,29,30
 574 1094 574 1094 541 1127 c 128,-1,31
 508 1160 508 1160 450 1160 c 0,32,33
 412 1160 412 1160 381 1143 c 0,34,35
 355 1128 355 1128 325 1103 c 1,36,-1
 325 1148 l 1,8,9
389 334 m 2,37,-1
 446 392 l 2,38,39
 457 402 457 402 466 402 c 0,40,41
 476 402 476 402 488 391 c 2,42,-1
 544 331 l 2,43,44
 553 320 553 320 553 311 c 0,45,46
 553 300 553 300 543 289 c 2,47,-1
 487 227 l 2,48,49
 473 213 473 213 466 213 c 0,50,51
 455 213 455 213 446 223 c 2,52,-1
 385 294 l 2,53,54
 378 303 378 303 378 312 c 0,55,56
 378 322 378 322 389 334 c 2,37,-1
EndSplineSet
Validated: 1
EndChar

StartChar: exclam
Encoding: 33 33 4
Width: 262
GlyphClass: 1
Flags: W
LayerCount: 2
Fore
SplineSet
109 1102 m 1,0,-1
 135 1102 l 2,1,2
 196 1102 196 1102 196 1041 c 2,3,-1
 196 729 l 2,4,5
 196 326 196 326 109 295 c 1,6,7
 57 312 57 312 57 399 c 2,8,-1
 57 772 l 2,9,10
 57 785 57 785 40 981 c 1,11,12
 40 1067 40 1067 109 1102 c 1,0,-1
118 174 m 1,13,-1
 144 174 l 2,14,15
 205 174 205 174 205 113 c 2,16,-1
 205 104 l 2,17,18
 205 58 205 58 135 0 c 1,19,-1
 118 0 l 2,20,21
 90 0 90 0 75 104 c 1,22,23
 75 149 75 149 118 174 c 1,13,-1
EndSplineSet
Validated: 1
EndChar

StartChar: quotedbl
Encoding: 34 34 5
Width: 474
GlyphClass: 1
Flags: W
LayerCount: 2
Fore
SplineSet
137 1314 m 2,0,-1
 157 1318 l 2,1,2
 183 1322 183 1322 209 1254 c 1,3,4
 123 964 123 964 53 953 c 1,5,-1
 40 971 l 1,6,7
 83 1305 83 1305 137 1314 c 2,0,-1
366 1352 m 1,8,9
 415 1308 415 1308 416 1299 c 0,10,11
 331 998 331 998 262 987 c 1,12,-1
 249 1006 l 1,13,14
 270 1336 270 1336 366 1352 c 1,8,9
EndSplineSet
Validated: 33
EndChar

StartChar: numbersign
Encoding: 35 35 6
Width: 699
GlyphClass: 1
Flags: W
LayerCount: 2
Fore
SplineSet
330 759 m 2,0,-1
 360 759 l 2,1,2
 372 758 372 758 372 748 c 0,3,4
 372 727 372 727 324 592 c 1,5,6
 330 575 330 575 360 575 c 2,7,-1
 408 575 l 2,8,9
 458 575 458 575 485 712 c 1,10,11
 510 759 510 759 545 759 c 2,12,-1
 569 759 l 2,13,14
 581 758 581 758 581 748 c 2,15,-1
 581 736 l 2,16,17
 581 720 581 720 539 598 c 1,18,-1
 539 592 l 1,19,20
 543 575 543 575 587 575 c 2,21,-1
 652 575 l 2,22,23
 661 575 661 575 670 557 c 1,24,25
 637 479 637 479 515 479 c 0,26,27
 487 479 487 479 467 396 c 1,28,-1
 467 378 l 2,29,30
 469 366 469 366 479 366 c 2,31,-1
 592 366 l 1,32,33
 628 362 628 362 628 348 c 2,34,-1
 628 336 l 1,35,36
 594 282 594 282 557 282 c 2,37,-1
 503 282 l 2,38,39
 420 282 420 282 420 217 c 1,40,41
 367 20 367 20 324 20 c 2,42,-1
 306 20 l 2,43,44
 298 20 298 20 288 38 c 1,45,46
 348 227 348 227 348 235 c 2,47,-1
 348 253 l 2,48,49
 348 261 348 261 330 270 c 1,50,-1
 259 270 l 2,51,52
 206 270 206 270 181 127 c 1,53,54
 146 24 146 24 121 20 c 1,55,-1
 98 20 l 2,56,57
 83 20 83 20 80 44 c 1,58,59
 133 205 133 205 133 253 c 1,60,61
 109 257 109 257 109 264 c 1,62,-1
 80 259 l 1,63,-1
 44 259 l 2,64,65
 35 259 35 259 20 282 c 1,66,67
 58 372 58 372 169 372 c 1,68,69
 193 443 193 443 193 461 c 1,70,-1
 175 473 l 1,71,-1
 74 473 l 2,72,73
 62 473 62 473 62 485 c 2,74,-1
 62 503 l 1,75,76
 96 581 96 581 217 581 c 0,77,78
 241 581 241 581 270 700 c 1,79,80
 290 759 290 759 330 759 c 2,0,-1
253 384 m 0,81,82
 253 375 253 375 270 366 c 1,83,-1
 366 366 l 2,84,85
 390 366 390 366 408 467 c 0,86,87
 408 479 408 479 396 479 c 2,88,-1
 300 479 l 2,89,90
 276 479 276 479 253 384 c 0,81,82
EndSplineSet
Validated: 1
EndChar

StartChar: dollar
Encoding: 36 36 7
Width: 800
GlyphClass: 1
Flags: W
LayerCount: 2
Fore
SplineSet
347 1107 m 2,0,-1
 354 1107 l 2,1,2
 362 1107 362 1107 408 999 c 1,3,4
 573 911 573 911 665 911 c 1,5,-1
 746 918 l 1,6,-1
 752 905 l 1,7,8
 752 841 752 841 631 763 c 1,9,-1
 597 763 l 2,10,11
 546 763 546 763 415 830 c 1,12,-1
 401 810 l 1,13,-1
 401 722 l 2,14,15
 401 672 401 672 422 668 c 1,16,-1
 442 668 l 1,17,18
 557 695 557 695 590 695 c 1,19,20
 759 660 759 660 759 527 c 1,21,22
 773 476 773 476 773 432 c 0,23,24
 773 217 773 217 617 101 c 1,25,26
 486 47 486 47 422 47 c 1,27,28
 405 0 405 0 395 0 c 2,29,-1
 374 0 l 1,30,31
 346 58 346 58 266 81 c 1,32,33
 151 123 151 123 71 257 c 1,34,35
 50 308 50 308 50 331 c 0,36,37
 50 426 50 426 111 500 c 1,38,-1
 125 500 l 1,39,40
 239 431 239 431 239 425 c 2,41,-1
 239 412 l 2,42,43
 239 404 239 404 212 304 c 1,44,-1
 212 277 l 2,45,46
 212 208 212 208 314 162 c 1,47,48
 334 167 334 167 341 189 c 1,49,50
 334 365 334 365 334 466 c 1,51,-1
 314 466 l 1,52,53
 30 557 30 557 30 709 c 0,54,55
 30 884 30 884 212 986 c 1,56,57
 327 1011 327 1011 327 1033 c 0,58,59
 327 1107 327 1107 347 1107 c 2,0,-1
172 824 m 1,60,-1
 172 776 l 2,61,62
 172 711 172 711 273 675 c 1,63,-1
 314 668 l 1,64,-1
 334 695 l 1,65,-1
 334 790 l 2,66,67
 334 878 334 878 287 878 c 1,68,69
 273 884 273 884 266 884 c 0,70,71
 215 884 215 884 172 824 c 1,60,-1
408 540 m 1,72,-1
 408 189 l 2,73,74
 408 142 408 142 455 142 c 1,75,76
 631 162 631 162 631 311 c 1,77,78
 604 567 604 567 449 567 c 0,79,80
 422 567 422 567 408 540 c 1,72,-1
EndSplineSet
Validated: 1
EndChar

StartChar: percent
Encoding: 37 37 8
Width: 730
GlyphClass: 1
Flags: W
LayerCount: 2
Fore
SplineSet
518 789 m 0,0,1
 564 784 564 784 564 766 c 0,2,3
 564 740 564 740 428 481 c 1,4,5
 359 340 359 340 285 135 c 1,6,7
 223 0 223 0 188 0 c 1,8,9
 158 11 158 11 158 23 c 2,10,-1
 158 30 l 2,11,12
 158 73 158 73 451 744 c 1,13,14
 481 789 481 789 518 789 c 0,0,1
165 744 m 2,15,-1
 203 744 l 2,16,17
 291 744 291 744 323 594 c 1,18,19
 295 421 295 421 165 421 c 0,20,21
 48 421 48 421 30 579 c 1,22,23
 90 744 90 744 165 744 c 2,15,-1
90 624 m 1,24,25
 120 496 120 496 218 496 c 2,26,-1
 225 496 l 1,27,28
 263 506 263 506 263 549 c 1,29,30
 224 669 224 669 143 669 c 2,31,-1
 128 669 l 1,32,33
 100 655 100 655 90 624 c 1,24,25
533 368 m 2,34,-1
 541 368 l 2,35,36
 644 368 644 368 684 233 c 1,37,-1
 684 203 l 1,38,39
 642 45 642 45 548 45 c 2,40,-1
 511 45 l 2,41,42
 415 45 415 45 398 165 c 1,43,-1
 398 218 l 1,44,45
 452 368 452 368 533 368 c 2,34,-1
451 263 m 2,46,-1
 451 233 l 2,47,48
 451 141 451 141 571 120 c 1,49,-1
 594 120 l 1,50,51
 624 135 624 135 624 165 c 1,52,53
 586 286 586 286 511 286 c 2,54,-1
 496 286 l 1,55,56
 451 281 451 281 451 263 c 2,46,-1
EndSplineSet
Validated: 1
EndChar

StartChar: ampersand
Encoding: 38 38 9
Width: 840
GlyphClass: 1
Flags: W
LayerCount: 2
Fore
SplineSet
399 1102 m 1,0,-1
 482 1102 l 1,1,2
 601 1014 601 1014 601 936 c 2,3,-1
 601 912 l 2,4,5
 601 830 601 830 447 652 c 1,6,-1
 447 640 l 1,7,8
 582 427 582 427 636 427 c 1,9,-1
 648 450 l 1,10,11
 636 551 636 551 636 616 c 0,12,13
 636 676 636 676 731 711 c 1,14,15
 814 683 814 683 814 569 c 2,16,-1
 814 557 l 1,17,18
 778 403 778 403 778 355 c 2,19,-1
 778 273 l 2,20,21
 778 209 778 209 909 142 c 1,22,-1
 909 130 l 1,23,24
 862 40 862 40 790 0 c 1,25,-1
 767 0 l 2,26,27
 739 0 739 0 589 83 c 1,28,-1
 387 0 l 1,29,30
 20 83 20 83 20 273 c 0,31,32
 20 435 20 435 162 581 c 1,33,-1
 162 604 l 1,34,35
 150 856 150 856 150 901 c 1,36,37
 175 970 175 970 399 1102 c 1,0,-1
304 960 m 1,38,-1
 293 901 l 1,39,40
 293 786 293 786 364 735 c 1,41,-1
 399 735 l 2,42,43
 416 735 416 735 435 770 c 1,44,-1
 435 794 l 2,45,46
 435 893 435 893 352 960 c 1,47,-1
 304 960 l 1,38,-1
186 403 m 1,48,49
 300 178 300 178 399 178 c 2,50,-1
 447 178 l 2,51,52
 464 178 464 178 482 213 c 1,53,-1
 482 225 l 2,54,55
 482 325 482 325 257 533 c 1,56,-1
 245 533 l 2,57,58
 204 533 204 533 186 403 c 1,48,49
EndSplineSet
Validated: 1
EndChar

StartChar: quotesingle
Encoding: 39 39 10
Width: 346
GlyphClass: 1
Flags: W
LayerCount: 2
Fore
SplineSet
190 1303 m 1,0,-1
 226 1272 l 1,1,-1
 233 1244 l 1,2,3
 180 966 180 966 115 950 c 1,4,-1
 102 967 l 1,5,-1
 97 986 l 1,6,7
 108 1284 108 1284 190 1303 c 1,0,-1
EndSplineSet
Validated: 1
EndChar

StartChar: parenleft
Encoding: 40 40 11
Width: 633
VWidth: 256
GlyphClass: 1
Flags: W
LayerCount: 2
Fore
SplineSet
605.7890625 1468.1328125 m 5,0,1
 280 1149 280 1149 280 616 c 260,2,3
 280 109 280 109 605.7890625 -210.12890625 c 5,4,-1
 564.841796875 -248.620117188 l 5,5,6
 44 104 44 104 36 624 c 260,7,8
 28.5185546875 1208.73144531 28.5185546875 1208.73144531 564.841796875 1506.62304688 c 5,9,-1
 605.7890625 1468.1328125 l 5,0,1
EndSplineSet
EndChar

StartChar: parenright
Encoding: 41 41 12
Width: 564
VWidth: 256
GlyphClass: 1
Flags: WO
LayerCount: 2
Fore
SplineSet
-3.7890625 1468.1328125 m 1,0,1
 322 1149 322 1149 322 616 c 256,2,3
 322 109 322 109 -3.7890625 -210.12890625 c 1,4,-1
 37.158203125 -248.620117188 l 1,5,6
 558 104 558 104 566 624 c 256,7,8
 573.481445312 1208.73144531 573.481445312 1208.73144531 37.158203125 1506.62304688 c 1,9,-1
 -3.7890625 1468.1328125 l 1,0,1
EndSplineSet
EndChar

StartChar: asterisk
Encoding: 42 42 13
Width: 760
VWidth: 256
GlyphClass: 1
Flags: W
LayerCount: 2
Fore
SplineSet
253.319335938 627.709960938 m 1,0,1
 120.336914062 697.368164062 120.336914062 697.368164062 107.671875 805.021484375 c 0,2,3
 101.33984375 887.341796875 101.33984375 887.341796875 152 957 c 0,4,5
 221.65625 1032.98925781 221.65625 1032.98925781 341.973632812 1026.65820312 c 0,6,7
 500.286132812 1007.66015625 500.286132812 1007.66015625 588.942382812 786.022460938 c 0,8,9
 639.602539062 646.708984375 639.602539062 646.708984375 709.258789062 646.708984375 c 0,10,11
 759.919921875 640.375 759.919921875 640.375 785.25 678.370117188 c 0,12,13
 810.580078125 710.033203125 810.580078125 710.033203125 810.580078125 748.02734375 c 0,14,15
 810.580078125 811.352539062 810.580078125 811.352539062 759.919921875 843.015625 c 0,16,17
 728.256835938 868.345703125 728.256835938 868.345703125 683.928710938 868.345703125 c 0,18,19
 677.59765625 862.01171875 677.59765625 862.01171875 671.263671875 862.01171875 c 256,20,21
 664.932617188 862.01171875 664.932617188 862.01171875 658.598632812 868.345703125 c 0,22,23
 633.268554688 906.33984375 633.268554688 906.33984375 633.268554688 919.004882812 c 0,24,25
 633.268554688 944.334960938 633.268554688 944.334960938 652.267578125 963.333984375 c 0,26,27
 677.59765625 988.663085938 677.59765625 988.663085938 721.92578125 982.330078125 c 0,28,29
 772.584960938 975.998046875 772.584960938 975.998046875 810.580078125 906.33984375 c 0,30,31
 861.239257812 811.352539062 861.239257812 811.352539062 848.57421875 672.038085938 c 0,32,33
 829.576171875 475.731445312 829.576171875 475.731445312 683.928710938 349.080078125 c 0,34,35
 531.94921875 222.430664062 531.94921875 222.430664062 354.638671875 222.430664062 c 0,36,37
 215.32421875 216.09765625 215.32421875 216.09765625 133.001953125 292.086914062 c 0,38,39
 69.6767578125 349.080078125 69.6767578125 349.080078125 63.34375 444.067382812 c 0,40,41
 63.34375 583.381835938 63.34375 583.381835938 246.98828125 602.379882812 c 1,42,-1
 253.319335938 627.709960938 l 1,0,1
-56.97265625 716.364257812 m 0,44,45
 -88.6357421875 722.698242188 -88.6357421875 722.698242188 -126.629882812 722.698242188 c 0,46,47
 -183.623046875 722.698242188 -183.623046875 722.698242188 -215.28515625 691.03515625 c 256,48,49
 -246.948242188 659.373046875 -246.948242188 659.373046875 -246.948242188 627.709960938 c 0,50,51
 -246.948242188 577.05078125 -246.948242188 577.05078125 -202.620117188 577.05078125 c 0,52,53
 -139.294921875 570.716796875 -139.294921875 570.716796875 -75.970703125 684.703125 c 0,54,43
 -56.97265625 697.368164062 -56.97265625 697.368164062 -56.97265625 716.364257812 c 0,44,45
202.66015625 640.375 m 0,56,57
 208.991210938 627.709960938 208.991210938 627.709960938 189.995117188 627.709960938 c 256,58,59
 170.99609375 627.709960938 170.99609375 627.709960938 139.334960938 634.043945312 c 0,60,61
 38.013671875 672.038085938 38.013671875 672.038085938 -12.646484375 697.368164062 c 1,62,63
 -37.9755859375 634.043945312 -37.9755859375 634.043945312 -82.3037109375 570.716796875 c 0,64,65
 -164.625 437.734375 -164.625 437.734375 -177.290039062 406.073242188 c 0,66,67
 -215.28515625 330.083984375 -215.28515625 330.083984375 -215.28515625 266.756835938 c 0,68,69
 -215.28515625 209.765625 -215.28515625 209.765625 -170.958984375 165.4375 c 256,70,71
 -126.629882812 121.109375 -126.629882812 121.109375 -75.970703125 121.109375 c 0,72,73
 -50.640625 121.109375 -50.640625 121.109375 -25.310546875 133.774414062 c 0,74,75
 0.0185546875 140.107421875 0.0185546875 140.107421875 6.3525390625 152.772460938 c 0,76,77
 12.68359375 159.106445312 12.68359375 159.106445312 25.3486328125 165.4375 c 0,78,79
 44.34765625 165.4375 44.34765625 165.4375 63.34375 146.439453125 c 0,80,81
 82.341796875 121.109375 82.341796875 121.109375 76.0087890625 95.779296875 c 0,82,83
 69.6767578125 51.453125 69.6767578125 51.453125 12.68359375 45.1201171875 c 0,84,85
 -75.970703125 38.7880859375 -75.970703125 38.7880859375 -170.958984375 114.77734375 c 0,86,87
 -278.611328125 197.100585938 -278.611328125 197.100585938 -278.611328125 317.418945312 c 0,88,89
 -278.611328125 399.739257812 -278.611328125 399.739257812 -196.288085938 507.392578125 c 1,90,91
 -202.620117188 507.392578125 -202.620117188 507.392578125 -208.953125 507.392578125 c 0,92,93
 -291.276367188 507.392578125 -291.276367188 507.392578125 -303.94140625 596.046875 c 0,94,95
 -303.94140625 672.038085938 -303.94140625 672.038085938 -259.61328125 716.364257812 c 0,96,97
 -208.953125 760.692382812 -208.953125 760.692382812 -132.963867188 754.359375 c 0,98,99
 -75.970703125 748.02734375 -75.970703125 748.02734375 -44.3076171875 741.694335938 c 1,100,101
 -6.3125 817.685546875 -6.3125 817.685546875 -6.3125 881.010742188 c 256,102,103
 -6.3125 944.334960938 -6.3125 944.334960938 -31.642578125 982.330078125 c 256,104,105
 -56.97265625 1020.32421875 -56.97265625 1020.32421875 -107.633789062 1020.32421875 c 0,106,107
 -151.959960938 1020.32421875 -151.959960938 1020.32421875 -183.623046875 982.330078125 c 0,108,109
 -196.288085938 963.333984375 -196.288085938 963.333984375 -221.618164062 969.665039062 c 0,110,111
 -259.61328125 975.998046875 -259.61328125 975.998046875 -284.942382812 994.995117188 c 0,112,113
 -310.272460938 1020.32421875 -310.272460938 1020.32421875 -316.606445312 1051.98828125 c 0,114,115
 -316.606445312 1096.31445312 -316.606445312 1096.31445312 -284.942382812 1127.97753906 c 256,116,117
 -253.28125 1159.640625 -253.28125 1159.640625 -196.288085938 1159.640625 c 0,118,119
 -107.633789062 1153.30761719 -107.633789062 1153.30761719 -37.9755859375 1064.65234375 c 0,120,121
 38.013671875 969.665039062 38.013671875 969.665039062 31.6826171875 862.01171875 c 0,122,123
 31.6826171875 805.021484375 31.6826171875 805.021484375 0.0185546875 729.029296875 c 1,124,55
 101.33984375 697.368164062 101.33984375 697.368164062 202.66015625 640.375 c 0,56,57
EndSplineSet
EndChar

StartChar: plus
Encoding: 43 43 14
Width: 664
GlyphClass: 1
Flags: W
LayerCount: 2
Fore
SplineSet
381 675 m 1,0,1
 401 642 401 642 401 615 c 2,2,-1
 401 515 l 2,3,4
 401 459 401 459 451 445 c 1,5,6
 491 445 491 445 631 485 c 1,7,-1
 641 465 l 1,8,-1
 641 445 l 1,9,10
 577 335 577 335 491 335 c 1,11,-1
 471 345 l 1,12,13
 401 345 401 345 401 275 c 2,14,-1
 401 155 l 1,15,16
 344 75 344 75 281 75 c 1,17,18
 251 112 251 112 251 145 c 2,19,-1
 251 325 l 2,20,21
 251 348 251 348 201 355 c 1,22,23
 65 315 65 315 41 315 c 1,24,-1
 31 335 l 1,25,-1
 31 365 l 1,26,27
 84 454 84 454 101 455 c 2,28,-1
 221 455 l 2,29,30
 235 455 235 455 251 485 c 1,31,-1
 251 555 l 2,32,33
 251 675 251 675 381 675 c 1,0,1
EndSplineSet
Validated: 1
EndChar

StartChar: comma
Encoding: 44 44 15
Width: 298
GlyphClass: 1
Flags: W
LayerCount: 2
Fore
SplineSet
160 112 m 0,0,1
 230 112 230 112 263 47 c 1,2,-1
 263 -57 l 2,3,4
 263 -180 263 -180 43 -251 c 1,5,-1
 30 -225 l 1,6,7
 134 -111 134 -111 134 -82 c 1,8,-1
 69 47 l 1,9,10
 87 112 87 112 160 112 c 0,0,1
EndSplineSet
Validated: 1
EndChar

StartChar: hyphen
Encoding: 45 45 16
AltUni2: 0000ad.ffffffff.0 0000ad.ffffffff.0
Width: 469
VWidth: 1000
GlyphClass: 1
Flags: W
LayerCount: 2
Fore
SplineSet
440.610351562 416.6328125 m 0,0,1
 399.880859375 399.299804688 399.880859375 399.299804688 386.880859375 368.299804688 c 128,-1,2
 373.880859375 337.299804688 373.880859375 337.299804688 346.880859375 316.299804688 c 0,3,4
 326.880859375 300.299804688 326.880859375 300.299804688 276.520507812 314.206054688 c 0,5,6
 276.520507812 314.206054688 276.520507812 314.206054688 276.520507812 314.206054688 c 0,7,8
 195.880859375 318.299804688 195.880859375 318.299804688 192.880859375 318.762695312 c 0,9,10
 135.880859375 318.299804688 135.880859375 318.299804688 94.2802734375 301.043945312 c 0,11,12
 52.880859375 283.299804688 52.880859375 283.299804688 50.080078125 283.325195312 c 0,13,14
 42.880859375 283.299804688 42.880859375 283.299804688 33.080078125 290.412109375 c 0,15,16
 19.880859375 299.299804688 19.880859375 299.299804688 22.880859375 302.5625 c 0,17,18
 51.880859375 337.299804688 51.880859375 337.299804688 55.5205078125 349.137695312 c 0,19,20
 70.880859375 393.299804688 70.880859375 393.299804688 88.16015625 408.875 c 0,21,22
 111.880859375 429.299804688 111.880859375 429.299804688 184.720703125 425.075195312 c 0,23,24
 216.880859375 423.299804688 216.880859375 423.299804688 250 419 c 0,25,26
 293.880859375 413.299804688 293.880859375 413.299804688 313.920898438 412.924804688 c 0,27,28
 331.880859375 413.299804688 331.880859375 413.299804688 361.520507812 428.112304688 c 0,29,30
 391.880859375 443.299804688 391.880859375 443.299804688 403.680664062 443.299804688 c 0,31,32
 412.880859375 443.299804688 412.880859375 443.299804688 423.400390625 435.200195312 c 0,33,34
 444.880859375 418.299804688 444.880859375 418.299804688 440.610351562 416.6328125 c 0,0,1
EndSplineSet
EndChar

StartChar: period
Encoding: 46 46 17
Width: 333
GlyphClass: 1
Flags: W
LayerCount: 2
Fore
SplineSet
143 220 m 1,0,-1
 182 220 l 1,1,2
 259 192 259 192 259 132 c 1,3,4
 223 0 223 0 118 0 c 1,5,6
 80 40 80 40 80 77 c 2,7,-1
 80 132 l 2,8,9
 80 192 80 192 143 220 c 1,0,-1
EndSplineSet
Validated: 1
EndChar

StartChar: slash
Encoding: 47 47 18
Width: 421
GlyphClass: 1
Flags: W
LayerCount: 2
Fore
SplineSet
402 1094 m 2,0,-1
 427 1094 l 2,1,2
 439 1094 439 1094 453 1069 c 1,3,-1
 453 1052 l 2,4,5
 453 1033 453 1033 249 458 c 1,6,7
 155 0 155 0 54 0 c 1,8,9
 20 13 20 13 20 25 c 0,10,11
 249 850 249 850 334 1069 c 1,12,13
 376 1094 376 1094 402 1094 c 2,0,-1
EndSplineSet
Validated: 1
EndChar

StartChar: zero
Encoding: 48 48 19
Width: 977
GlyphClass: 1
Flags: W
LayerCount: 2
Fore
SplineSet
484 1103 m 2,0,-1
 510 1103 l 2,1,2
 652 1103 652 1103 784 966 c 1,3,4
 946 735 946 735 946 598 c 1,5,6
 912 339 912 339 843 239 c 1,7,8
 613 0 613 0 442 0 c 0,9,10
 245 0 245 0 100 248 c 1,11,12
 40 413 40 413 40 496 c 0,13,14
 40 744 40 744 288 1009 c 1,15,16
 411 1103 411 1103 484 1103 c 2,0,-1
211 727 m 1,17,-1
 211 692 l 2,18,19
 211 446 211 446 450 282 c 1,20,21
 541 239 541 239 561 239 c 2,22,-1
 621 239 l 2,23,24
 731 239 731 239 775 410 c 1,25,26
 763 563 763 563 596 761 c 1,27,28
 464 853 464 853 365 863 c 1,29,30
 231 863 231 863 211 727 c 1,17,-1
EndSplineSet
Validated: 1
EndChar

StartChar: one
Encoding: 49 49 20
Width: 395
GlyphClass: 1
Flags: W
LayerCount: 2
Fore
SplineSet
275 1107 m 1,0,-1
 283 1107 l 1,1,2
 337 1071 337 1071 337 1018 c 2,3,-1
 337 390 l 2,4,5
 337 229 337 229 390 115 c 1,6,7
 377 115 377 115 363 89 c 1,8,-1
 319 97 l 1,9,-1
 301 97 l 2,10,11
 263 97 263 97 115 9 c 0,12,13
 100 0 100 0 80 0 c 1,14,-1
 71 18 l 1,15,-1
 71 27 l 1,16,17
 124 129 124 129 124 266 c 1,18,19
 133 296 133 296 133 381 c 0,20,21
 133 402 133 402 124 514 c 0,22,23
 124 519 124 519 133 629 c 1,24,25
 124 761 124 761 124 850 c 0,26,27
 124 897 124 897 9 912 c 1,28,-1
 0 930 l 1,29,-1
 0 939 l 1,30,31
 182 1089 182 1089 275 1107 c 1,0,-1
EndSplineSet
Validated: 1
EndChar

StartChar: two
Encoding: 50 50 21
Width: 796
GlyphClass: 1
Flags: W
LayerCount: 2
Fore
SplineSet
349 1102 m 2,0,-1
 409 1102 l 2,1,2
 567 1102 567 1102 624 956 c 1,3,4
 652 913 652 913 667 766 c 1,5,6
 667 548 667 548 400 319 c 1,7,-1
 400 310 l 2,8,9
 400 277 400 277 624 241 c 1,10,-1
 658 241 l 1,11,-1
 779 310 l 1,12,-1
 796 310 l 2,13,14
 813 307 813 307 813 293 c 2,15,-1
 813 284 l 1,16,17
 782 148 782 148 598 0 c 1,18,-1
 564 0 l 1,19,20
 359 95 359 95 288 95 c 0,21,22
 234 95 234 95 133 60 c 1,23,24
 116 60 116 60 116 77 c 0,25,26
 116 129 116 129 357 379 c 1,27,28
 521 607 521 607 521 758 c 1,29,30
 501 895 501 895 409 895 c 2,31,-1
 323 895 l 2,32,33
 214 895 214 895 82 740 c 1,34,35
 65 732 65 732 56 732 c 1,36,-1
 30 783 l 1,37,38
 30 954 30 954 262 1085 c 1,39,40
 332 1102 332 1102 349 1102 c 2,0,-1
EndSplineSet
Validated: 1
EndChar

StartChar: three
Encoding: 51 51 22
Width: 858
GlyphClass: 1
Flags: W
LayerCount: 2
Fore
SplineSet
433 1111 m 1,0,-1
 505 1111 l 1,1,2
 720 1041 720 1041 720 869 c 2,3,-1
 720 860 l 2,4,5
 720 815 720 815 648 654 c 1,6,7
 648 641 648 641 783 556 c 1,8,9
 845 469 845 469 845 385 c 0,10,11
 845 172 845 172 550 27 c 1,12,-1
 362 0 l 1,13,14
 130 0 130 0 48 260 c 1,15,16
 30 293 30 293 30 332 c 2,17,-1
 30 358 l 2,18,19
 30 372 30 372 66 394 c 1,20,-1
 227 394 l 2,21,22
 254 394 254 394 254 358 c 0,23,24
 254 321 254 321 236 269 c 1,25,26
 292 81 292 81 406 81 c 2,27,-1
 451 81 l 1,28,29
 666 144 666 144 666 305 c 2,30,-1
 666 323 l 2,31,32
 666 471 666 471 433 529 c 1,33,-1
 424 547 l 1,34,-1
 424 573 l 1,35,36
 577 698 577 698 577 779 c 1,37,38
 547 950 547 950 415 950 c 0,39,40
 335 950 335 950 209 842 c 1,41,-1
 191 842 l 1,42,43
 182 860 182 860 182 869 c 0,44,45
 182 1050 182 1050 433 1111 c 1,0,-1
EndSplineSet
Validated: 1
EndChar

StartChar: four
Encoding: 52 52 23
Width: 827
GlyphClass: 1
Flags: W
LayerCount: 2
Fore
SplineSet
422 1111 m 1,0,-1
 441 1083 l 1,1,-1
 441 1047 l 2,2,3
 441 873 441 873 202 551 c 1,4,-1
 202 542 l 2,5,6
 202 514 202 514 303 514 c 2,7,-1
 376 514 l 2,8,9
 533 514 533 514 533 615 c 2,10,-1
 533 955 l 2,11,12
 533 1019 533 1019 725 1111 c 1,13,14
 760 1111 760 1111 771 551 c 1,15,16
 797 526 797 526 863 514 c 1,17,-1
 881 477 l 1,18,19
 881 384 881 384 762 303 c 1,20,21
 753 287 753 287 753 266 c 0,22,23
 762 180 762 180 790 101 c 1,24,25
 790 46 790 46 615 46 c 1,26,27
 597 21 597 21 514 0 c 1,28,29
 496 22 496 22 496 37 c 1,30,31
 551 129 551 129 551 156 c 2,32,-1
 551 303 l 2,33,34
 551 331 551 331 459 340 c 1,35,36
 239 331 239 331 110 331 c 1,37,38
 0 340 0 340 0 386 c 1,39,-1
 193 790 l 1,40,41
 218 887 218 887 239 1010 c 1,42,43
 372 1111 372 1111 422 1111 c 1,0,-1
EndSplineSet
Validated: 1
EndChar

StartChar: five
Encoding: 53 53 24
Width: 809
GlyphClass: 1
Flags: W
LayerCount: 2
Fore
SplineSet
240 1107 m 2,0,-1
 259 1107 l 1,1,2
 371 1070 371 1070 396 1070 c 2,3,-1
 460 1070 l 1,4,5
 657 1107 657 1107 670 1107 c 0,6,7
 689 1104 689 1104 689 1089 c 0,8,9
 689 956 689 956 332 869 c 0,10,11
 332 865 332 865 314 842 c 1,12,-1
 314 823 l 2,13,14
 314 805 314 805 341 805 c 1,15,16
 439 823 439 823 469 823 c 2,17,-1
 515 823 l 2,18,19
 617 823 617 823 716 704 c 1,20,21
 780 554 780 554 780 521 c 2,22,-1
 780 384 l 2,23,24
 780 269 780 269 597 73 c 1,25,26
 435 0 435 0 414 0 c 2,27,-1
 222 0 l 1,28,29
 30 74 30 74 30 210 c 2,30,-1
 30 247 l 2,31,32
 30 320 30 320 149 320 c 2,33,-1
 213 320 l 2,34,35
 246 320 246 320 268 165 c 1,36,37
 307 91 307 91 369 91 c 2,38,-1
 433 91 l 2,39,40
 610 91 610 91 670 311 c 1,41,-1
 670 421 l 1,42,43
 625 631 625 631 515 631 c 1,44,45
 483 640 483 640 478 640 c 0,46,47
 339 633 339 633 250 595 c 1,48,49
 213 595 213 595 213 951 c 2,50,-1
 213 1052 l 1,51,52
 219 1107 219 1107 240 1107 c 2,0,-1
EndSplineSet
Validated: 1
EndChar

StartChar: six
Encoding: 54 54 25
Width: 884
GlyphClass: 1
Flags: W
LayerCount: 2
Fore
SplineSet
432 1098 m 2,0,-1
 575 1098 l 1,1,2
 735 1058 735 1058 735 1009 c 2,3,-1
 735 982 l 1,4,5
 690 902 690 902 637 902 c 2,6,-1
 601 902 l 1,7,8
 461 937 461 937 450 937 c 2,9,-1
 441 937 l 2,10,11
 228 937 228 937 173 661 c 1,12,-1
 173 589 l 2,13,14
 173 420 173 420 351 232 c 1,15,16
 513 179 513 179 539 179 c 2,17,-1
 548 179 l 1,18,19
 798 232 798 232 798 402 c 1,20,21
 735 589 735 589 610 589 c 2,22,-1
 583 589 l 1,23,24
 441 564 441 564 441 491 c 1,25,-1
 450 411 l 1,26,27
 428 393 428 393 414 393 c 1,28,29
 334 427 334 427 334 518 c 2,30,-1
 334 562 l 2,31,32
 334 732 334 732 592 759 c 1,33,34
 796 759 796 759 851 446 c 1,35,-1
 851 411 l 2,36,37
 851 136 851 136 566 18 c 1,38,39
 464 0 464 0 423 0 c 2,40,-1
 414 0 l 2,41,42
 124 0 124 0 39 393 c 0,43,44
 30 440 30 440 30 482 c 2,45,-1
 30 509 l 2,46,47
 30 841 30 841 271 1044 c 1,48,49
 342 1098 342 1098 432 1098 c 2,0,-1
EndSplineSet
Validated: 1
EndChar

StartChar: seven
Encoding: 55 55 26
Width: 672
GlyphClass: 1
Flags: W
LayerCount: 2
Fore
SplineSet
184 1111 m 2,0,-1
 271 1111 l 2,1,2
 288 1111 288 1111 560 1024 c 1,3,-1
 691 1059 l 1,4,-1
 700 1059 l 2,5,6
 726 1059 726 1059 726 1024 c 0,7,8
 726 976 726 976 455 595 c 1,9,10
 324 341 324 341 324 262 c 0,11,12
 324 207 324 207 437 87 c 1,13,-1
 437 79 l 1,14,15
 426 0 426 0 359 0 c 2,16,-1
 306 0 l 1,17,18
 149 55 149 55 149 184 c 2,19,-1
 149 201 l 2,20,21
 149 411 149 411 446 770 c 1,22,-1
 446 805 l 1,23,24
 419 805 419 805 114 901 c 1,25,26
 97 901 97 901 9 857 c 1,27,-1
 0 875 l 1,28,-1
 0 892 l 1,29,30
 36 1111 36 1111 184 1111 c 2,0,-1
EndSplineSet
Validated: 1
EndChar

StartChar: eight
Encoding: 56 56 27
Width: 818
GlyphClass: 1
Flags: W
LayerCount: 2
Fore
SplineSet
360 1107 m 1,0,-1
 412 1107 l 1,1,2
 717 1043 717 1043 717 802 c 2,3,-1
 717 793 l 2,4,5
 717 747 717 747 630 654 c 1,6,-1
 630 636 l 1,7,8
 787 494 787 494 787 366 c 2,9,-1
 787 349 l 2,10,11
 787 192 787 192 543 17 c 1,12,13
 465 0 465 0 430 0 c 2,14,-1
 369 0 l 2,15,16
 120 0 120 0 37 218 c 1,17,18
 20 335 20 335 20 418 c 0,19,20
 20 447 20 447 168 636 c 1,21,22
 81 743 81 743 72 811 c 1,23,24
 111 1081 111 1081 299 1081 c 1,25,26
 301 1098 301 1098 360 1107 c 1,0,-1
229 924 m 0,27,28
 229 803 229 803 499 723 c 1,29,-1
 517 723 l 2,30,31
 578 723 578 723 578 793 c 2,32,-1
 578 802 l 2,33,34
 578 875 578 875 395 985 c 1,35,36
 384 985 384 985 299 1011 c 1,37,38
 229 971 229 971 229 924 c 0,27,28
151 453 m 0,39,40
 151 344 151 344 386 209 c 1,41,-1
 517 183 l 1,42,43
 630 213 630 213 630 296 c 0,44,45
 630 416 630 416 360 575 c 1,46,-1
 299 575 l 1,47,48
 151 569 151 569 151 453 c 0,39,40
EndSplineSet
Validated: 1
EndChar

StartChar: nine
Encoding: 57 57 28
Width: 893
GlyphClass: 1
Flags: W
LayerCount: 2
Fore
SplineSet
450 1111 m 1,0,1
 678 1111 678 1111 800 866 c 1,2,3
 870 688 870 688 870 569 c 0,4,5
 870 252 870 252 520 26 c 1,6,7
 447 9 447 9 362 0 c 1,8,9
 149 0 149 0 30 184 c 1,10,-1
 30 201 l 1,11,12
 52 254 52 254 109 254 c 2,13,-1
 161 254 l 2,14,15
 212 254 212 254 275 122 c 1,16,17
 338 96 338 96 354 96 c 2,18,-1
 380 96 l 2,19,20
 609 96 609 96 651 437 c 1,21,22
 669 507 669 507 669 586 c 2,23,-1
 669 735 l 2,24,25
 669 985 669 985 494 1024 c 1,26,-1
 467 1024 l 2,27,28
 278 1024 278 1024 249 761 c 1,29,30
 284 492 284 492 397 464 c 1,31,-1
 459 464 l 1,32,33
 529 470 529 470 529 525 c 0,34,35
 529 538 529 538 502 630 c 1,36,-1
 502 647 l 2,37,38
 505 665 505 665 520 665 c 2,39,-1
 529 665 l 1,40,41
 581 633 581 633 581 560 c 2,42,-1
 581 472 l 2,43,44
 581 319 581 319 354 280 c 1,45,46
 164 280 164 280 74 542 c 1,47,-1
 74 735 l 2,48,49
 74 975 74 975 336 1085 c 0,50,51
 382 1102 382 1102 450 1111 c 1,0,1
EndSplineSet
Validated: 1
EndChar

StartChar: colon
Encoding: 58 58 29
Width: 254
GlyphClass: 1
Flags: W
LayerCount: 2
Fore
SplineSet
122 741 m 2,0,-1
 158 741 l 1,1,2
 204 718 204 718 204 669 c 0,3,4
 204 602 204 602 140 560 c 1,5,-1
 113 560 l 1,6,7
 77 575 77 575 77 624 c 2,8,-1
 77 642 l 1,9,10
 91 741 91 741 122 741 c 2,0,-1
95 181 m 1,11,-1
 104 181 l 2,12,13
 167 181 167 181 167 117 c 2,14,-1
 167 90 l 2,15,16
 167 40 167 40 104 0 c 1,17,-1
 86 0 l 2,18,19
 72 0 72 0 50 36 c 1,20,-1
 50 108 l 2,21,22
 50 158 50 158 95 181 c 1,11,-1
EndSplineSet
Validated: 1
EndChar

StartChar: semicolon
Encoding: 59 59 30
AltUni2: 00037e.ffffffff.0 00037e.ffffffff.0
Width: 298
GlyphClass: 1
Flags: W
LayerCount: 2
Fore
SplineSet
173 719 m 2,0,-1
 208 719 l 1,1,2
 252 697 252 697 252 640 c 0,3,4
 252 586 252 586 190 543 c 1,5,-1
 164 543 l 1,6,7
 129 558 129 558 129 605 c 2,8,-1
 129 622 l 1,9,10
 142 719 142 719 173 719 c 2,0,-1
129 140 m 1,11,-1
 155 140 l 2,12,13
 234 140 234 140 234 43 c 0,14,15
 234 -62 234 -62 68 -106 c 1,16,17
 50 -106 50 -106 50 -88 c 1,18,19
 106 -50 106 -50 129 8 c 1,20,21
 129 31 129 31 103 70 c 1,22,-1
 103 113 l 2,23,24
 103 126 103 126 129 140 c 1,11,-1
EndSplineSet
Validated: 1
EndChar

StartChar: equal
Encoding: 61 61 32
Width: 690
GlyphClass: 1
Flags: W
LayerCount: 2
Fore
SplineSet
215 642 m 1,0,-1
 619 642 l 2,1,2
 634 642 634 642 650 611 c 1,3,4
 619 559 619 559 578 559 c 0,5,6
 172 538 172 538 80 538 c 1,7,-1
 60 569 l 1,8,9
 60 635 60 635 215 642 c 1,0,-1
153 435 m 1,10,-1
 557 435 l 1,11,12
 619 428 619 428 619 403 c 2,13,-1
 619 393 l 2,14,15
 619 331 619 331 184 331 c 2,16,-1
 60 331 l 2,17,18
 39 331 39 331 39 352 c 2,19,-1
 39 383 l 2,20,21
 39 419 39 419 153 435 c 1,10,-1
EndSplineSet
Validated: 1
EndChar

StartChar: question
Encoding: 63 63 34
Width: 526
VWidth: 1000
GlyphClass: 1
Flags: W
LayerCount: 2
Fore
SplineSet
503 757.799804688 m 4,0,1
 503 696.200195312 503 696.200195312 430.19921875 599.599609375 c 4,2,3
 410.599609375 574.400390625 410.599609375 574.400390625 312.599609375 465.200195312 c 4,4,5
 307 459.599609375 307 459.599609375 287.399414062 396.599609375 c 4,6,7
 273.399414062 350.400390625 273.399414062 350.400390625 239.799804688 350.400390625 c 4,8,9
 227.19921875 350.400390625 227.19921875 350.400390625 211.799804688 361.599609375 c 132,-1,10
 196.399414062 372.799804688 196.399414062 372.799804688 196.399414062 384 c 4,11,12
 196.399414062 437.200195312 196.399414062 437.200195312 250.299804688 545.700195312 c 132,-1,13
 304.19921875 654.200195312 304.19921875 654.200195312 304.19921875 708.799804688 c 4,14,15
 304.19921875 752.200195312 304.19921875 752.200195312 269.19921875 793.5 c 132,-1,16
 234.19921875 834.799804688 234.19921875 834.799804688 192.19921875 834.799804688 c 4,17,18
 147.399414062 834.799804688 147.399414062 834.799804688 121.5 786.5 c 132,-1,19
 95.599609375 738.200195312 95.599609375 738.200195312 78.7998046875 738.200195312 c 4,20,21
 49.3994140625 738.200195312 49.3994140625 738.200195312 39.599609375 747.299804688 c 132,-1,22
 29.7998046875 756.400390625 29.7998046875 756.400390625 29.7998046875 785.799804688 c 4,23,24
 29.7998046875 825 29.7998046875 825 59.19921875 862.799804688 c 4,25,26
 95.599609375 909 95.599609375 909 101.19921875 927.200195312 c 4,27,28
 104 934.200195312 104 934.200195312 99.099609375 964.299804688 c 132,-1,29
 94.19921875 994.400390625 94.19921875 994.400390625 94.19921875 998.599609375 c 4,30,31
 94.19921875 1043.40039062 94.19921875 1043.40039062 127.799804688 1043.40039062 c 4,32,33
 147.399414062 1043.40039062 147.399414062 1043.40039062 183.799804688 1021 c 5,34,35
 235.599609375 1028 235.599609375 1028 276.19921875 1028 c 4,36,37
 391 1028 391 1028 451.19921875 948.200195312 c 4,38,39
 503 876.799804688 503 876.799804688 503 757.799804688 c 4,0,1
358.799804688 196.400390625 m 4,40,41
 347.599609375 125 347.599609375 125 272 62 c 5,42,43
 238.399414062 74.599609375 238.399414062 74.599609375 203.399414062 111 c 4,44,45
 148.799804688 167 148.799804688 167 141.799804688 172.599609375 c 5,46,47
 143.19921875 207.599609375 143.19921875 207.599609375 175.399414062 242.599609375 c 4,48,49
 203.399414062 272 203.399414062 272 232.799804688 300 c 5,50,51
 270.599609375 300 270.599609375 300 304.19921875 260.799804688 c 4,52,53
 357.399414062 197.799804688 357.399414062 197.799804688 358.799804688 196.400390625 c 4,40,41
EndSplineSet
EndChar

StartChar: at
Encoding: 64 64 35
Width: 818
GlyphClass: 1
Flags: W
LayerCount: 2
Fore
SplineSet
410 838 m 0,0,1
 677 838 677 838 759 582 c 1,2,3
 790 510 790 510 790 403 c 1,4,5
 764 163 764 163 596 163 c 0,6,7
 570 163 570 163 488 248 c 1,8,-1
 457 256 l 1,9,10
 386 225 386 225 333 210 c 1,11,12
 200 210 200 210 177 388 c 1,13,14
 177 573 177 573 441 629 c 1,15,16
 573 574 573 574 612 574 c 1,17,-1
 612 559 l 1,18,19
 565 473 565 473 565 388 c 1,20,21
 575 287 575 287 604 287 c 2,22,-1
 627 287 l 1,23,24
 682 329 682 329 682 435 c 0,25,26
 682 671 682 671 503 745 c 1,27,28
 464 768 464 768 426 768 c 2,29,-1
 309 768 l 2,30,31
 196 768 196 768 123 535 c 1,32,-1
 123 427 l 2,33,34
 123 186 123 186 364 47 c 1,35,36
 402 44 402 44 402 23 c 2,37,-1
 402 16 l 2,38,39
 402 0 402 0 387 0 c 2,40,-1
 325 0 l 1,41,42
 30 132 30 132 30 403 c 0,43,44
 30 581 30 581 146 737 c 1,45,46
 249 838 249 838 410 838 c 0,0,1
286 450 m 0,47,48
 286 295 286 295 379 295 c 2,49,-1
 410 295 l 2,50,51
 488 295 488 295 488 473 c 1,52,-1
 496 473 l 1,53,54
 496 511 496 511 356 535 c 1,55,-1
 333 535 l 1,56,57
 286 506 286 506 286 450 c 0,47,48
EndSplineSet
Validated: 1
EndChar

StartChar: A
Encoding: 65 65 36
Width: 1405
GlyphClass: 1
Flags: W
LayerCount: 2
Fore
SplineSet
1029 1431 m 0,0,1
 1155 1431 1155 1431 1330 950 c 0,2,3
 1330 944 1330 944 1353 783 c 1,4,-1
 1353 391 l 2,5,6
 1353 339 1353 339 1431 201 c 1,7,-1
 1431 190 l 1,8,9
 1308 168 1308 168 1140 11 c 1,10,-1
 1129 11 l 1,11,12
 1040 59 1040 59 1040 179 c 2,13,-1
 1040 224 l 1,14,15
 1062 385 1062 385 1062 391 c 1,16,-1
 1040 402 l 1,17,-1
 1029 402 l 1,18,19
 958 349 958 349 939 347 c 1,20,21
 525 525 525 525 492 525 c 2,22,-1
 481 525 l 1,23,24
 402 470 402 470 402 358 c 2,25,-1
 402 302 l 2,26,27
 402 212 402 212 414 89 c 1,28,29
 414 47 414 47 347 0 c 1,30,-1
 291 0 l 2,31,32
 275 0 275 0 257 34 c 1,33,-1
 257 78 l 1,34,35
 324 167 324 167 324 212 c 1,36,37
 282 682 282 682 201 682 c 1,38,39
 183 693 183 693 145 693 c 2,40,-1
 112 693 l 2,41,42
 96 693 96 693 78 660 c 1,43,-1
 78 626 l 1,44,45
 134 580 134 580 134 570 c 2,46,-1
 134 559 l 2,47,48
 134 537 134 537 101 537 c 1,49,50
 0 589 0 589 0 660 c 2,51,-1
 0 693 l 2,52,53
 0 842 0 842 179 906 c 1,54,55
 294 872 294 872 335 872 c 1,56,57
 547 1110 547 1110 850 1286 c 1,58,59
 1012 1431 1012 1431 1029 1431 c 0,0,1
604 727 m 0,60,61
 604 671 604 671 861 604 c 1,62,-1
 928 604 l 1,63,64
 1073 619 1073 619 1073 682 c 0,65,66
 1073 866 1073 866 928 1140 c 1,67,-1
 917 1140 l 1,68,69
 845 1099 845 1099 615 771 c 0,70,71
 604 752 604 752 604 727 c 0,60,61
EndSplineSet
Validated: 1
EndChar

StartChar: B
Encoding: 66 66 37
Width: 1431
GlyphClass: 1
Flags: W
LayerCount: 2
Fore
SplineSet
860 1433 m 2,0,-1
 883 1433 l 2,1,2
 1081 1433 1081 1433 1261 1089 c 1,3,4
 1253 1038 1253 1038 1124 906 c 1,5,6
 1422 663 1422 663 1422 493 c 2,7,-1
 1422 470 l 2,8,9
 1422 277 1422 277 975 11 c 1,10,-1
 860 0 l 1,11,-1
 837 0 l 2,12,13
 760 0 760 0 470 161 c 1,14,15
 396 183 396 183 367 183 c 2,16,-1
 356 183 l 2,17,18
 295 183 295 183 138 92 c 1,19,-1
 115 92 l 2,20,21
 97 92 97 92 69 138 c 1,22,-1
 69 161 l 1,23,24
 74 186 74 186 218 264 c 1,25,26
 229 476 229 476 229 573 c 2,27,-1
 229 917 l 2,28,29
 229 977 229 977 195 986 c 1,30,-1
 183 986 l 1,31,32
 102 963 102 963 92 963 c 2,33,-1
 46 963 l 2,34,35
 28 963 28 963 0 1009 c 1,36,-1
 0 1032 l 2,37,38
 0 1062 0 1062 195 1089 c 1,39,40
 770 1433 770 1433 860 1433 c 2,0,-1
539 906 m 2,41,-1
 539 654 l 1,42,-1
 550 631 l 1,43,44
 872 867 872 867 872 986 c 2,45,-1
 872 1021 l 1,46,47
 843 1089 843 1089 780 1089 c 2,48,-1
 745 1089 l 1,49,50
 539 1021 539 1021 539 906 c 2,41,-1
677 619 m 1,51,52
 688 557 688 557 688 516 c 1,53,54
 659 493 659 493 654 493 c 2,55,-1
 631 493 l 2,56,57
 562 493 562 493 562 539 c 1,58,-1
 550 539 l 2,59,60
 516 539 516 539 505 390 c 1,61,-1
 745 298 l 1,62,63
 875 206 875 206 986 172 c 1,64,65
 1120 172 1120 172 1216 470 c 1,66,67
 1216 549 1216 549 894 688 c 1,68,69
 866 688 866 688 814 734 c 1,70,-1
 803 734 l 2,71,72
 726 734 726 734 677 619 c 1,51,52
EndSplineSet
Validated: 1
EndChar

StartChar: C
Encoding: 67 67 38
Width: 1171
GlyphClass: 1
Flags: W
LayerCount: 2
Fore
SplineSet
664 1429 m 2,0,-1
 698 1429 l 1,1,2
 994 1350 994 1350 1058 1350 c 1,3,-1
 1159 1361 l 1,4,5
 1226 1283 1226 1283 1226 1193 c 1,6,7
 1122 810 1122 810 1013 810 c 1,8,9
 919 721 919 721 878 720 c 1,10,11
 866 742 866 742 866 754 c 1,12,13
 956 955 956 955 956 979 c 2,14,-1
 956 990 l 1,15,16
 829 1170 829 1170 506 1170 c 0,17,18
 265 1170 265 1170 203 968 c 1,19,20
 180 927 180 927 180 878 c 2,21,-1
 180 754 l 2,22,23
 180 453 180 453 540 248 c 1,24,25
 751 203 751 203 788 203 c 0,26,27
 967 203 967 203 1125 383 c 1,28,-1
 1136 383 l 1,29,30
 1159 379 1159 379 1159 360 c 2,31,-1
 1159 349 l 2,32,33
 1159 203 1159 203 855 45 c 1,34,35
 722 0 722 0 641 0 c 2,36,-1
 596 0 l 2,37,38
 224 0 224 0 45 428 c 0,39,40
 0 532 0 532 0 619 c 2,41,-1
 0 664 l 2,42,43
 0 1095 0 1095 506 1384 c 1,44,45
 629 1429 629 1429 664 1429 c 2,0,-1
EndSplineSet
Validated: 1
EndChar

StartChar: D
Encoding: 68 68 39
Width: 1466
GlyphClass: 1
Flags: W
LayerCount: 2
Fore
SplineSet
48 1433 m 1,0,-1
 60 1433 l 1,1,2
 262 1409 262 1409 287 1409 c 2,3,-1
 908 1409 l 1,4,5
 1190 1387 1190 1387 1308.5 1207 c 128,-1,6
 1427 1027 1427 1027 1451.5 778 c 128,-1,7
 1476 529 1476 529 1417.5 264.5 c 128,-1,8
 1359 0 1359 0 908 0 c 0,9,10
 623 0 623 0 299 215 c 1,11,-1
 251 215 l 1,12,13
 153 96 153 96 143 96 c 2,14,-1
 131 96 l 2,15,16
 114 96 114 96 96 131 c 1,17,18
 96 168 96 168 239 322 c 1,19,20
 239 361 239 361 310 525 c 1,21,-1
 310 621 l 2,22,23
 310 653 310 653 287 943 c 1,24,-1
 287 1075 l 2,25,26
 287 1146 287 1146 334 1146 c 1,27,-1
 334 1158 l 1,28,29
 226 1258 226 1258 12 1326 c 1,30,-1
 0 1385 l 2,31,32
 0 1404 0 1404 48 1433 c 1,0,-1
346 1158 m 1,33,34
 346 1148 346 1148 573 991 c 1,35,-1
 573 776 l 1,36,37
 597 602 597 602 597 585 c 2,38,-1
 597 418 l 2,39,40
 597 233 597 233 979 179 c 1,41,-1
 1003 179 l 1,42,43
 1290 264 1290 264 1290 609 c 2,44,-1
 1290 717 l 1,45,46
 1216 1015 1216 1015 1158 1015 c 1,47,48
 1043 1146 1043 1146 967 1146 c 2,49,-1
 920 1146 l 1,50,51
 651 1170 651 1170 633 1170 c 2,52,-1
 585 1170 l 2,53,54
 536 1170 536 1170 454 1158 c 1,55,56
 436 1170 436 1170 382 1170 c 1,57,58
 359 1158 359 1158 346 1158 c 1,33,34
EndSplineSet
Validated: 33
EndChar

StartChar: E
Encoding: 69 69 40
Width: 1151
GlyphClass: 1
Flags: W
LayerCount: 2
Fore
SplineSet
492 1433 m 2,0,-1
 567 1433 l 2,1,2
 744 1433 744 1433 962 1283 c 1,3,-1
 1027 1273 l 1,4,5
 1071 1390 1071 1390 1091 1390 c 2,6,-1
 1123 1390 l 2,7,8
 1138 1390 1138 1390 1155 1358 c 1,9,-1
 1155 1273 l 2,10,11
 1155 1100 1155 1100 930 1016 c 1,12,-1
 920 1016 l 2,13,14
 898 1016 898 1016 813 1155 c 1,15,16
 720 1219 720 1219 652 1219 c 2,17,-1
 449 1219 l 1,18,19
 271 1173 271 1173 192 1037 c 1,20,21
 160 941 160 941 160 909 c 2,22,-1
 160 834 l 2,23,24
 163 781 163 781 182 781 c 1,25,26
 282 866 282 866 364 866 c 1,27,28
 588 834 588 834 588 823 c 1,29,30
 693 856 693 856 727 856 c 1,31,-1
 738 834 l 1,32,33
 673 631 673 631 556 631 c 2,34,-1
 492 631 l 2,35,36
 465 631 465 631 364 663 c 1,37,-1
 299 663 l 1,38,39
 246 636 246 636 246 577 c 0,40,41
 246 369 246 369 449 289 c 1,42,43
 642 235 642 235 727 235 c 0,44,45
 902 235 902 235 1059 385 c 1,46,-1
 1069 385 l 2,47,48
 1086 385 1086 385 1123 150 c 1,49,50
 1166 102 1166 102 1166 53 c 1,51,-1
 1134 32 l 1,52,-1
 1037 32 l 1,53,54
 680 11 680 11 32 0 c 1,55,-1
 21 21 l 1,56,57
 43 174 43 174 43 235 c 2,58,-1
 43 449 l 2,59,60
 43 1083 43 1083 0 1380 c 1,61,62
 32 1390 32 1390 32 1401 c 1,63,-1
 139 1380 l 1,64,65
 424 1433 424 1433 492 1433 c 2,0,-1
EndSplineSet
Validated: 1
EndChar

StartChar: F
Encoding: 70 70 41
Width: 681
GlyphClass: 1
Flags: W
LayerCount: 2
Fore
SplineSet
402 1429 m 1,0,-1
 625 1429 l 2,1,2
 708 1429 708 1429 974 1260 c 1,3,-1
 1006 1260 l 2,4,5
 1029 1260 1029 1260 1059 1376 c 1,6,-1
 1111 1376 l 1,7,8
 1154 1359 1154 1359 1154 1302 c 1,9,10
 1107 1050 1107 1050 921 1006 c 1,11,-1
 910 1006 l 2,12,13
 893 1006 893 1006 794 1164 c 1,14,15
 650 1217 650 1217 561 1217 c 0,16,17
 265 1217 265 1217 180 995 c 1,18,19
 159 926 159 926 159 900 c 2,20,-1
 159 804 l 2,21,22
 162 783 162 783 180 783 c 2,23,-1
 191 783 l 1,24,25
 271 853 271 853 360 868 c 1,26,27
 545 826 545 826 593 826 c 2,28,-1
 603 826 l 1,29,30
 678 847 678 847 688 847 c 2,31,-1
 709 847 l 2,32,33
 730 844 730 844 730 826 c 1,34,35
 669 635 669 635 561 635 c 1,36,37
 561 625 561 625 508 625 c 0,38,39
 491 625 491 625 328 667 c 1,40,41
 243 651 243 651 243 582 c 0,42,43
 243 448 243 448 455 53 c 1,44,-1
 455 21 l 1,45,-1
 423 0 l 1,46,-1
 64 0 l 2,47,48
 48 0 48 0 32 32 c 1,49,50
 53 211 53 211 53 233 c 2,51,-1
 53 730 l 1,52,53
 32 1135 32 1135 0 1365 c 1,54,-1
 32 1387 l 1,55,56
 122 1365 122 1365 148 1365 c 0,57,58
 199 1365 199 1365 402 1429 c 1,0,-1
EndSplineSet
Validated: 1
EndChar

StartChar: G
Encoding: 71 71 42
Width: 1175
GlyphClass: 1
Flags: W
LayerCount: 2
Fore
SplineSet
653 1429 m 1,0,-1
 686 1429 l 1,1,2
 994 1350 994 1350 1046 1350 c 0,3,4
 1056 1350 1056 1350 1136 1361 c 1,5,6
 1204 1333 1204 1333 1204 1260 c 2,7,-1
 1204 1136 l 2,8,9
 1204 957 1204 957 923 731 c 1,10,-1
 923 720 l 2,11,12
 923 702 923 702 1103 619 c 1,13,14
 1159 535 1159 535 1159 473 c 2,15,-1
 1159 371 l 2,16,17
 1159 170 1159 170 776 23 c 1,18,19
 675 0 675 0 630 0 c 2,20,-1
 596 0 l 2,21,22
 170 0 170 0 0 529 c 1,23,-1
 0 731 l 2,24,25
 0 976 0 976 293 1249 c 1,26,27
 535 1423 535 1423 653 1429 c 1,0,-1
169 799 m 0,28,29
 169 404 169 404 585 236 c 1,30,31
 724 203 724 203 776 203 c 1,32,33
 1091 251 1091 251 1091 405 c 0,34,35
 1091 495 1091 495 934 585 c 1,36,-1
 900 585 l 2,37,38
 743 585 743 585 743 394 c 1,39,-1
 720 383 l 1,40,41
 629 383 629 383 585 518 c 1,42,-1
 585 551 l 2,43,44
 585 679 585 679 844 720 c 1,45,46
 934 906 934 906 934 968 c 2,47,-1
 934 979 l 1,48,49
 892 1147 892 1147 506 1170 c 1,50,51
 169 1170 169 1170 169 799 c 0,28,29
EndSplineSet
Validated: 1
EndChar

StartChar: H
Encoding: 72 72 43
Width: 1272
GlyphClass: 1
Flags: W
LayerCount: 2
Fore
SplineSet
23 1433 m 1,0,1
 245 1421 245 1421 335 1398 c 1,2,3
 437 1421 437 1421 589 1433 c 1,4,-1
 601 1410 l 1,5,6
 439 1289 439 1289 439 1017 c 2,7,-1
 439 925 l 2,8,9
 439 785 439 785 728 717 c 1,10,-1
 832 717 l 2,11,12
 923 717 923 717 959 786 c 1,13,-1
 959 936 l 2,14,15
 959 1207 959 1207 797 1398 c 1,16,-1
 797 1421 l 1,17,-1
 821 1433 l 1,18,19
 1062 1421 1062 1421 1121 1398 c 1,20,21
 1228 1421 1228 1421 1387 1433 c 1,22,-1
 1387 1398 l 1,23,24
 1237 1307 1237 1307 1237 994 c 2,25,-1
 1237 312 l 2,26,27
 1237 211 1237 211 1294 35 c 1,28,29
 1271 31 1271 31 1271 12 c 1,30,-1
 1086 23 l 2,31,32
 1052 23 1052 23 936 0 c 1,33,34
 913 28 913 28 913 46 c 1,35,36
 971 195 971 195 971 300 c 2,37,-1
 971 462 l 2,38,39
 971 522 971 522 936 532 c 1,40,-1
 925 532 l 1,41,42
 882 497 882 497 844 497 c 1,43,44
 507 659 507 659 462 659 c 1,45,46
 439 616 439 616 439 566 c 2,47,-1
 439 335 l 2,48,49
 439 226 439 226 497 46 c 1,50,-1
 497 35 l 2,51,52
 497 12 497 12 474 12 c 2,53,-1
 289 23 l 1,54,55
 150 0 150 0 139 0 c 1,56,-1
 116 35 l 1,57,58
 173 195 173 195 173 243 c 0,59,60
 162 534 162 534 162 705 c 2,61,-1
 162 1063 l 2,62,63
 162 1168 162 1168 0 1421 c 1,64,-1
 23 1433 l 1,0,1
EndSplineSet
Validated: 1
EndChar

StartChar: I
Encoding: 73 73 44
Width: 483
GlyphClass: 1
Flags: W
LayerCount: 2
Fore
SplineSet
23 1433 m 1,0,1
 224 1387 224 1387 344 1376 c 0,2,3
 372 1376 372 1376 596 1422 c 1,4,-1
 608 1399 l 1,5,6
 436 1259 436 1259 436 986 c 2,7,-1
 436 275 l 2,8,9
 436 249 436 249 504 34 c 1,10,11
 488 34 488 34 470 0 c 1,12,-1
 390 11 l 1,13,-1
 310 11 l 2,14,15
 252 11 252 11 138 0 c 1,16,-1
 126 23 l 1,17,-1
 126 34 l 1,18,19
 172 160 172 160 172 229 c 2,20,-1
 172 883 l 2,21,22
 172 1197 172 1197 11 1387 c 1,23,24
 0 1409 0 1409 0 1422 c 1,25,-1
 23 1433 l 1,0,1
EndSplineSet
Validated: 1
EndChar

StartChar: J
Encoding: 74 74 45
Width: 897
GlyphClass: 1
Flags: W
LayerCount: 2
Fore
SplineSet
494 1433 m 1,0,1
 676 1423 676 1423 767 1403 c 1,2,3
 922 1431 922 1431 999 1433 c 1,4,-1
 999 1403 l 1,5,6
 868 1300 868 1300 868 1191 c 2,7,-1
 868 313 l 2,8,9
 868 30 868 30 545 0 c 1,10,-1
 525 0 l 2,11,12
 230 0 230 0 0 222 c 1,13,-1
 0 242 l 1,14,15
 159 375 159 375 252 474 c 1,16,17
 279 474 279 474 313 303 c 1,18,19
 393 202 393 202 474 202 c 2,20,-1
 494 202 l 2,21,22
 609 202 609 202 626 404 c 1,23,-1
 626 999 l 2,24,25
 626 1207 626 1207 484 1393 c 0,26,27
 474 1412 474 1412 474 1423 c 1,28,-1
 494 1433 l 1,0,1
EndSplineSet
Validated: 1
EndChar

StartChar: K
Encoding: 75 75 46
Width: 1277
GlyphClass: 1
Flags: W
LayerCount: 2
Fore
SplineSet
832 1437 m 0,0,1
 1186 1372 1186 1372 1186 1345 c 1,2,3
 1266 1273 1266 1273 1266 1163 c 2,4,-1
 1266 1152 l 2,5,6
 1266 919 1266 919 912 878 c 1,7,-1
 901 832 l 1,8,9
 987 737 987 737 1117 342 c 1,10,11
 1202 262 1202 262 1323 262 c 1,12,-1
 1334 239 l 1,13,14
 1162 95 1162 95 1049 11 c 1,15,-1
 1026 11 l 1,16,17
 832 140 832 140 832 433 c 1,18,19
 760 775 760 775 547 775 c 1,20,21
 433 758 433 758 433 718 c 2,22,-1
 433 228 l 2,23,24
 433 215 433 215 490 57 c 1,25,-1
 490 34 l 2,26,27
 490 11 490 11 467 11 c 2,28,-1
 285 23 l 2,29,30
 274 23 274 23 137 0 c 1,31,32
 114 28 114 28 114 46 c 1,33,34
 160 124 160 124 160 182 c 2,35,-1
 160 1026 l 2,36,37
 160 1153 160 1153 0 1402 c 1,38,-1
 23 1414 l 1,39,40
 237 1402 237 1402 342 1380 c 1,41,42
 402 1402 402 1402 581 1414 c 1,43,-1
 593 1391 l 1,44,45
 433 1236 433 1236 433 1117 c 2,46,-1
 433 912 l 2,47,48
 433 855 433 855 479 844 c 1,49,50
 786 931 786 931 889 1095 c 1,51,52
 946 1169 946 1169 946 1209 c 2,53,-1
 946 1231 l 2,54,55
 946 1311 946 1311 810 1368 c 1,56,-1
 810 1414 l 2,57,58
 813 1437 813 1437 832 1437 c 0,0,1
EndSplineSet
Validated: 1
EndChar

StartChar: L
Encoding: 76 76 47
Width: 1308
GlyphClass: 1
Flags: W
LayerCount: 2
Fore
SplineSet
23 1433 m 1,0,1
 208 1387 208 1387 286 1387 c 2,2,-1
 377 1387 l 2,3,4
 409 1387 409 1387 594 1422 c 1,5,-1
 594 1387 l 1,6,7
 434 1252 434 1252 434 1124 c 2,8,-1
 434 221 l 2,9,10
 434 154 434 154 503 130 c 1,11,12
 793 267 793 267 846 267 c 2,13,-1
 880 267 l 1,14,15
 1042 210 1042 210 1052 210 c 2,16,-1
 1063 210 l 2,17,18
 1103 210 1103 210 1120 507 c 1,19,-1
 1120 530 l 2,20,21
 1120 648 1120 648 1063 724 c 1,22,23
 1063 747 1063 747 1097 747 c 1,24,25
 1255 690 1255 690 1269 393 c 1,26,-1
 1269 221 l 2,27,28
 1269 157 1269 157 1314 4 c 1,29,30
 1298 4 1298 4 1280 -30 c 1,31,-1
 1200 -19 l 1,32,33
 452 4 452 4 251 4 c 2,34,-1
 137 4 l 2,35,36
 114 4 114 4 114 27 c 1,37,38
 160 155 160 155 160 187 c 2,39,-1
 160 1010 l 2,40,41
 160 1172 160 1172 0 1387 c 1,42,-1
 0 1410 l 1,43,44
 4 1433 4 1433 23 1433 c 1,0,1
EndSplineSet
Validated: 1
EndChar

StartChar: M
Encoding: 77 77 48
Width: 1616
GlyphClass: 1
Flags: W
LayerCount: 2
Fore
SplineSet
653 1429 m 1,0,-1
 698 1429 l 1,1,2
 808 1357 808 1357 905 1177 c 1,3,-1
 927 1166 l 1,4,-1
 939 1166 l 2,5,6
 959 1168 959 1168 1065 1406 c 1,7,-1
 1099 1429 l 1,8,-1
 1111 1429 l 1,9,10
 1367 1383 1367 1383 1408 1383 c 2,11,-1
 1477 1383 l 2,12,13
 1540 1383 1540 1383 1706 1418 c 1,14,-1
 1718 1395 l 1,15,16
 1569 1258 1569 1258 1569 1108 c 1,17,18
 1615 61 1615 61 1615 44 c 2,19,-1
 1615 21 l 2,20,21
 1615 -2 1615 -2 1580 -2 c 1,22,23
 1458 21 1458 21 1420 21 c 1,24,25
 1298 -2 1298 -2 1260 -2 c 1,26,27
 1237 26 1237 26 1237 44 c 1,28,-1
 1305 192 l 1,29,30
 1305 247 1305 247 1294 456 c 1,31,32
 1305 767 1305 767 1305 834 c 1,33,34
 1294 986 1294 986 1271 1051 c 1,35,-1
 1248 1051 l 1,36,37
 1191 1044 1191 1044 1099 719 c 1,38,39
 996 583 996 583 939 364 c 1,40,41
 896 346 896 346 836 158 c 1,42,-1
 802 158 l 2,43,44
 779 158 779 158 779 181 c 2,45,-1
 779 295 l 1,46,47
 730 431 730 431 698 914 c 1,48,49
 656 1057 656 1057 618 1085 c 1,50,51
 475 1085 475 1085 206 410 c 1,52,-1
 206 273 l 1,53,-1
 275 21 l 1,54,55
 266 -71 266 -71 183 -71 c 2,56,-1
 149 -71 l 2,57,58
 126 -71 126 -71 126 -48 c 0,59,60
 137 77 137 77 137 169 c 1,61,62
 0 569 0 569 0 685 c 0,63,64
 0 797 0 797 492 1234 c 1,65,66
 598 1392 598 1392 653 1429 c 1,0,-1
EndSplineSet
Validated: 1
EndChar

StartChar: N
Encoding: 78 78 49
Width: 1202
GlyphClass: 1
Flags: W
LayerCount: 2
Fore
SplineSet
760 1429 m 1,0,-1
 817 1429 l 1,1,2
 1068 1237 1068 1237 1191 783 c 1,3,-1
 1191 544 l 1,4,-1
 1089 238 l 1,5,-1
 1089 204 l 1,6,7
 1134 77 1134 77 1134 45 c 2,8,-1
 1134 34 l 2,9,10
 1134 18 1134 18 1100 0 c 1,11,12
 1020 0 1020 0 998 147 c 1,13,14
 921 1089 921 1089 680 1089 c 1,15,16
 431 1055 431 1055 431 930 c 2,17,-1
 431 329 l 2,18,19
 431 261 431 261 488 34 c 1,20,-1
 465 23 l 1,21,22
 332 34 332 34 272 34 c 0,23,24
 243 34 243 34 159 11 c 1,25,26
 113 28 113 28 113 45 c 1,27,28
 159 170 159 170 170 306 c 1,29,30
 159 578 159 578 159 737 c 2,31,-1
 159 975 l 2,32,33
 159 1220 159 1220 11 1384 c 1,34,35
 0 1384 0 1384 0 1395 c 0,36,37
 4 1418 4 1418 23 1418 c 0,38,39
 128 1398 128 1398 340 1384 c 1,40,41
 399 1406 399 1406 578 1418 c 1,42,-1
 590 1395 l 1,43,-1
 488 1282 l 1,44,-1
 488 1248 l 1,45,46
 549 1248 549 1248 760 1429 c 1,0,-1
EndSplineSet
Validated: 1
EndChar

StartChar: O
Encoding: 79 79 50
Width: 1215
GlyphClass: 1
Flags: W
LayerCount: 2
Fore
SplineSet
616 1433 m 0,0,1
 1012 1433 1012 1433 1176 963 c 1,2,3
 1198 773 1198 773 1198 750 c 2,4,-1
 1198 728 l 2,5,6
 1198 246 1198 246 705 11 c 1,7,-1
 593 0 l 1,8,-1
 515 0 l 2,9,10
 262 0 262 0 45 369 c 1,11,12
 11 501 11 501 0 649 c 1,13,14
 0 1071 0 1071 425 1399 c 1,15,16
 515 1433 515 1433 616 1433 c 0,0,1
168 862 m 0,17,18
 168 588 168 588 515 291 c 1,19,20
 630 246 630 246 672 246 c 2,21,-1
 784 246 l 2,22,23
 1006 246 1006 246 1041 571 c 1,24,25
 1041 754 1041 754 817 1030 c 1,26,27
 627 1164 627 1164 526 1164 c 2,28,-1
 425 1164 l 1,29,30
 179 1104 179 1104 179 918 c 1,31,32
 168 918 168 918 168 862 c 0,17,18
EndSplineSet
Validated: 1
EndChar

StartChar: P
Encoding: 80 80 51
Width: 1206
GlyphClass: 1
Flags: W
LayerCount: 2
Fore
SplineSet
848 1429 m 1,0,-1
 875 1429 l 2,1,2
 1064 1429 1064 1429 1215 1116 c 1,3,-1
 1241 974 l 1,4,5
 1241 827 1241 827 1152 625 c 1,6,7
 974 384 974 384 831 384 c 0,8,9
 690 384 690 384 616 572 c 0,10,11
 591 633 591 633 554 652 c 1,12,13
 536 619 536 619 536 581 c 2,14,-1
 536 339 l 2,15,16
 536 166 536 166 589 54 c 1,17,-1
 589 45 l 1,18,19
 565 0 565 0 330 0 c 1,20,21
 290 17 290 17 286 36 c 1,22,-1
 286 45 l 2,23,24
 286 56 286 56 304 143 c 1,25,-1
 304 1027 l 2,26,27
 304 1116 304 1116 214 1116 c 2,28,-1
 89 1116 l 2,29,30
 18 1116 18 1116 0 1215 c 1,31,-1
 27 1233 l 1,32,-1
 45 1233 l 1,33,34
 106 1170 106 1170 143 1170 c 2,35,-1
 179 1170 l 2,36,37
 222 1170 222 1170 652 1393 c 1,38,-1
 848 1429 l 1,0,-1
545 982 m 2,39,-1
 545 777 l 2,40,41
 545 756 545 756 616 741 c 1,42,43
 698 527 698 527 804 527 c 1,44,45
 819 518 819 518 840 518 c 1,46,47
 1009 567 1009 567 1009 759 c 2,48,-1
 1009 902 l 1,49,50
 943 1241 943 1241 723 1241 c 1,51,52
 545 1210 545 1210 545 982 c 2,39,-1
EndSplineSet
Validated: 1
EndChar

StartChar: Q
Encoding: 81 81 52
Width: 1215
GlyphClass: 1
Flags: W
LayerCount: 2
Fore
SplineSet
615 1429 m 2,0,1
 869 1429 869 1429 1074 1160 c 1,2,3
 1197 959 1197 959 1197 724 c 0,4,5
 1197 502 1197 502 1041 254 c 1,6,-1
 1041 232 l 1,7,8
 1119 35 1119 35 1119 8 c 1,9,10
 991 -51 991 -51 906 -171 c 1,11,12
 873 -171 873 -171 862 53 c 1,13,-1
 828 53 l 1,14,15
 680 -3 680 -3 604 -3 c 2,16,-1
 515 -3 l 2,17,18
 167 -3 167 -3 0 489 c 1,19,-1
 0 713 l 2,20,21
 0 954 0 954 280 1284 c 1,22,23
 451 1429 451 1429 559 1429 c 2,24,-1
 615 1429 l 2,0,1
157 836 m 2,25,26
 157 624 157 624 481 299 c 1,27,28
 583 243 583 243 683 243 c 1,29,-1
 694 265 l 1,30,-1
 638 321 l 1,31,-1
 638 332 l 1,32,33
 656 377 656 377 716 377 c 0,34,35
 739 377 739 377 951 321 c 1,36,37
 996 321 996 321 1029 556 c 1,38,39
 1029 777 1029 777 794 1026 c 1,40,41
 632 1160 632 1160 492 1160 c 2,42,-1
 425 1160 l 2,43,44
 245 1160 245 1160 157 892 c 1,45,-1
 157 836 l 2,25,26
EndSplineSet
Validated: 1
EndChar

StartChar: R
Encoding: 82 82 53
Width: 1374
GlyphClass: 1
Flags: W
LayerCount: 2
Fore
SplineSet
883 1438 m 2,0,-1
 1021 1438 l 2,1,2
 1165 1438 1165 1438 1339 1140 c 1,3,4
 1369 1004 1369 1004 1369 982 c 0,5,6
 1369 628 1369 628 1071 436 c 1,7,8
 1042 436 1042 436 1021 397 c 1,9,-1
 1021 367 l 2,10,11
 1021 304 1021 304 1329 159 c 1,12,-1
 1329 129 l 1,13,14
 1292 129 1292 129 962 40 c 1,15,16
 909 40 909 40 823 298 c 1,17,18
 685 588 685 588 625 645 c 1,19,-1
 615 645 l 2,20,21
 595 642 595 642 595 625 c 2,22,-1
 595 198 l 1,23,24
 645 69 645 69 645 60 c 2,25,-1
 645 40 l 1,26,27
 631 0 631 0 555 0 c 2,28,-1
 397 0 l 2,29,30
 324 0 324 0 317 30 c 1,31,-1
 317 40 l 2,32,33
 317 51 317 51 337 149 c 1,34,-1
 337 1041 l 2,35,36
 337 1111 337 1111 268 1111 c 2,37,-1
 129 1111 l 1,38,39
 0 1138 0 1138 0 1230 c 1,40,41
 5 1230 5 1230 30 1250 c 1,42,-1
 50 1250 l 1,43,44
 121 1180 121 1180 169 1180 c 0,45,46
 254 1180 254 1180 664 1388 c 1,47,48
 825 1438 825 1438 883 1438 c 2,0,-1
595 803 m 1,49,-1
 605 754 l 1,50,-1
 674 754 l 2,51,52
 687 754 687 754 754 605 c 1,53,54
 839 529 839 529 912 516 c 1,55,56
 1111 516 1111 516 1111 823 c 0,57,58
 1111 1183 1111 1183 863 1240 c 1,59,60
 863 1257 863 1257 813 1259 c 2,61,-1
 783 1259 l 2,62,63
 646 1259 646 1259 595 992 c 1,64,-1
 595 803 l 1,49,-1
EndSplineSet
Validated: 1
EndChar

StartChar: S
Encoding: 83 83 54
Width: 1065
GlyphClass: 1
Flags: W
LayerCount: 2
Fore
SplineSet
394 1433 m 2,0,-1
 404 1433 l 2,1,2
 513 1433 513 1433 769 1308 c 1,3,4
 833 1298 833 1298 894 1298 c 2,5,-1
 1000 1298 l 2,6,7
 1019 1298 1019 1298 1019 1270 c 0,8,9
 1019 1198 1019 1198 866 1077 c 1,10,11
 834 1058 834 1058 808 1058 c 0,12,13
 740 1058 740 1058 462 1212 c 1,14,15
 392 1241 392 1241 375 1241 c 2,16,-1
 298 1241 l 2,17,18
 217 1241 217 1241 192 1116 c 1,19,20
 192 904 192 904 510 904 c 0,21,22
 534 904 534 904 741 962 c 1,23,-1
 798 962 l 2,24,25
 957 962 957 962 1029 741 c 1,26,27
 1048 650 1048 650 1048 596 c 2,28,-1
 1048 558 l 2,29,30
 1048 374 1048 374 923 154 c 1,31,32
 760 0 760 0 529 0 c 0,33,34
 185 0 185 0 38 346 c 1,35,-1
 19 423 l 1,36,37
 61 664 61 664 96 664 c 2,38,-1
 106 664 l 1,39,40
 289 591 289 591 289 539 c 1,41,42
 260 400 260 400 260 365 c 2,43,-1
 260 337 l 2,44,45
 260 163 260 163 519 135 c 1,46,-1
 577 135 l 1,47,48
 837 169 837 169 837 308 c 2,49,-1
 837 481 l 1,50,51
 761 779 761 779 596 779 c 2,52,-1
 567 779 l 2,53,54
 492 779 492 779 375 625 c 1,55,56
 0 775 0 775 0 933 c 2,57,-1
 0 1048 l 2,58,59
 0 1241 0 1241 269 1414 c 1,60,61
 356 1433 356 1433 394 1433 c 2,0,-1
EndSplineSet
Validated: 1
EndChar

StartChar: T
Encoding: 84 84 55
Width: 774
GlyphClass: 1
Flags: W
LayerCount: 2
Fore
SplineSet
422 1429 m 0,0,1
 482 1429 482 1429 996 1321 c 1,2,-1
 1115 1321 l 1,3,4
 1248 1364 1248 1364 1277 1364 c 2,5,-1
 1299 1364 l 2,6,7
 1321 1361 1321 1361 1321 1342 c 2,8,-1
 1321 1332 l 2,9,10
 1321 1265 1321 1265 1158 1137 c 1,11,12
 1069 955 1069 955 1028 931 c 1,13,14
 1020 931 1020 931 996 963 c 1,15,-1
 1007 1018 l 1,16,17
 1007 1099 1007 1099 693 1126 c 1,18,19
 603 1162 603 1162 314 1191 c 1,20,21
 141 1191 141 1191 22 1028 c 1,22,23
 0 1028 0 1028 0 1050 c 0,24,25
 0 1267 0 1267 281 1407 c 0,26,27
 330 1429 330 1429 422 1429 c 0,0,1
466 1104 m 1,28,29
 682 1056 682 1056 682 1018 c 2,30,-1
 682 292 l 2,31,32
 682 242 682 242 736 43 c 1,33,-1
 736 32 l 1,34,-1
 725 11 l 1,35,36
 595 22 595 22 530 22 c 1,37,38
 411 0 411 0 401 0 c 1,39,-1
 390 22 l 1,40,-1
 390 43 l 1,41,42
 433 164 433 164 433 195 c 2,43,-1
 433 844 l 2,44,45
 433 920 433 920 422 1083 c 1,46,-1
 466 1104 l 1,28,29
EndSplineSet
Validated: 1
EndChar

StartChar: U
Encoding: 85 85 56
Width: 1241
GlyphClass: 1
Flags: W
LayerCount: 2
Fore
SplineSet
23 1433 m 2,0,-1
 35 1433 l 2,1,2
 46 1433 46 1433 196 1398 c 1,3,-1
 438 1398 l 2,4,5
 462 1398 462 1398 587 1433 c 1,6,-1
 599 1410 l 1,7,-1
 599 1398 l 1,8,9
 438 1257 438 1257 438 1087 c 2,10,-1
 438 431 l 2,11,12
 438 263 438 263 737 131 c 1,13,-1
 772 131 l 1,14,15
 910 207 910 207 910 304 c 2,16,-1
 910 915 l 2,17,18
 910 1210 910 1210 749 1387 c 1,19,-1
 749 1410 l 2,20,21
 752 1433 752 1433 772 1433 c 2,22,-1
 783 1433 l 1,23,24
 933 1398 933 1398 945 1398 c 2,25,-1
 1186 1398 l 2,26,27
 1211 1398 1211 1398 1336 1433 c 1,28,-1
 1348 1410 l 1,29,-1
 1348 1398 l 1,30,31
 1186 1288 1186 1288 1186 984 c 2,32,-1
 1186 293 l 2,33,34
 1186 242 1186 242 1244 16 c 1,35,-1
 1221 5 l 1,36,37
 1083 16 1083 16 1014 16 c 0,38,39
 993 16 993 16 887 -7 c 1,40,41
 859 85 859 85 829 85 c 1,42,43
 682 -10 682 -10 576 -53 c 1,44,45
 372 16 372 16 346 16 c 2,46,-1
 265 16 l 1,47,48
 153 -7 153 -7 138 -7 c 1,49,50
 115 21 115 21 115 39 c 1,51,52
 161 123 161 123 161 223 c 2,53,-1
 161 926 l 2,54,55
 161 1221 161 1221 0 1375 c 1,56,-1
 0 1410 l 1,57,58
 4 1433 4 1433 23 1433 c 2,0,-1
EndSplineSet
Validated: 1
EndChar

StartChar: V
Encoding: 86 86 57
Width: 1246
GlyphClass: 1
Flags: W
LayerCount: 2
Fore
SplineSet
349 1429 m 1,0,1
 371 1425 371 1425 371 1406 c 2,2,-1
 371 1395 l 2,3,4
 371 1365 371 1365 349 1328 c 1,5,6
 630 564 630 564 743 383 c 1,7,-1
 776 383 l 1,8,9
 1035 681 1035 681 1035 923 c 0,10,11
 1035 1129 1035 1129 844 1204 c 1,12,-1
 810 1204 l 2,13,14
 748 1204 748 1204 664 1103 c 1,15,-1
 653 1103 l 2,16,17
 636 1103 636 1103 619 1136 c 1,18,-1
 619 1159 l 1,19,20
 904 1410 904 1410 1013 1429 c 1,21,-1
 1035 1429 l 2,22,23
 1189 1429 1189 1429 1249 1024 c 1,24,25
 1249 594 1249 594 986 307.5 c 128,-1,26
 723 21 723 21 653 0 c 1,27,28
 543 0 543 0 304 878 c 1,29,30
 192 1159 192 1159 135 1159 c 2,31,-1
 23 1159 l 2,32,33
 0 1159 0 1159 0 1181 c 2,34,-1
 0 1193 l 1,35,36
 77 1285 77 1285 338 1429 c 1,37,-1
 349 1429 l 1,0,1
EndSplineSet
Validated: 1
EndChar

StartChar: W
Encoding: 87 87 58
Width: 1823
GlyphClass: 1
Flags: W
LayerCount: 2
Fore
SplineSet
1679 1438 m 1,0,1
 1877 1306 1877 1306 1877 1043 c 2,2,-1
 1877 999 l 2,3,4
 1877 623 1877 623 1526 340 c 1,5,6
 1464 267 1464 267 1350 55 c 1,7,8
 1315 33 1315 33 1295 33 c 0,9,10
 1230 33 1230 33 1076 472 c 1,11,-1
 1054 483 l 1,12,13
 779 273 779 273 746 132 c 1,14,15
 688 22 688 22 648 0 c 1,16,-1
 604 0 l 1,17,18
 511 81 511 81 373 571 c 0,19,20
 219 1131 219 1131 99 1131 c 2,21,-1
 77 1131 l 1,22,-1
 22 1120 l 1,23,24
 0 1147 0 1147 0 1153 c 2,25,-1
 0 1164 l 1,26,27
 274 1394 274 1394 351 1394 c 1,28,-1
 362 1372 l 1,29,30
 340 1294 340 1294 340 1284 c 2,31,-1
 340 1273 l 1,32,33
 617 521 617 521 714 373 c 1,34,35
 733 362 733 362 757 362 c 1,36,37
 977 635 977 635 977 790 c 1,38,39
 880 1175 880 1175 779 1175 c 1,40,41
 697 1153 697 1153 692 1153 c 1,42,-1
 670 1186 l 1,43,-1
 670 1197 l 1,44,45
 698 1236 698 1236 988 1427 c 1,46,-1
 1021 1427 l 2,47,48
 1043 1424 1043 1424 1043 1405 c 1,49,50
 1021 1365 1021 1365 1021 1317 c 2,51,-1
 1021 1284 l 1,52,53
 1227 731 1227 731 1361 439 c 1,54,-1
 1405 395 l 1,55,-1
 1416 395 l 1,56,57
 1669 650 1669 650 1669 944 c 1,58,59
 1646 1197 1646 1197 1471 1197 c 0,60,61
 1394 1197 1394 1197 1306 1098 c 1,62,63
 1290 1098 1290 1098 1273 1131 c 1,64,-1
 1273 1164 l 1,65,66
 1503 1371 1503 1371 1679 1438 c 1,0,1
EndSplineSet
Validated: 1
EndChar

StartChar: X
Encoding: 88 88 59
Width: 1166
GlyphClass: 1
Flags: W
LayerCount: 2
Fore
SplineSet
405 1433 m 1,0,-1
 436 1433 l 2,1,2
 457 1433 457 1433 457 1402 c 0,3,4
 457 1392 457 1392 405 1329 c 1,5,6
 405 1280 405 1280 602 966 c 1,7,-1
 623 966 l 1,8,9
 729 1062 729 1062 851 1319 c 1,10,11
 851 1329 851 1329 800 1391 c 1,12,-1
 800 1402 l 2,13,14
 800 1417 800 1417 831 1433 c 1,15,16
 1256 1243 1256 1243 1256 1163 c 1,17,-1
 1215 1132 l 1,18,-1
 1153 1132 l 2,19,20
 1036 1132 1036 1132 914 893 c 1,21,22
 779 723 779 723 779 665 c 1,23,24
 960 304 960 304 1018 270 c 1,25,26
 1153 218 1153 218 1153 197 c 2,27,-1
 1153 166 l 1,28,29
 1120 122 1120 122 935 42 c 1,30,31
 918 0 918 0 862 0 c 2,32,-1
 841 0 l 2,33,34
 810 0 810 0 800 156 c 1,35,-1
 633 384 l 1,36,-1
 613 395 l 1,37,-1
 592 395 l 1,38,39
 398 168 398 168 384 21 c 1,40,-1
 363 10 l 1,41,-1
 343 10 l 2,42,43
 253 10 253 10 42 208 c 1,44,-1
 42 218 l 2,45,46
 43 238 43 238 197 301 c 1,47,48
 447 614 447 614 447 685 c 1,49,50
 417 797 417 797 177 1132 c 1,51,52
 0 1142 0 1142 0 1184 c 2,53,-1
 0 1215 l 1,54,55
 31 1275 31 1275 405 1433 c 1,0,-1
EndSplineSet
Validated: 1
EndChar

StartChar: Y
Encoding: 89 89 60
Width: 928
GlyphClass: 1
Flags: W
LayerCount: 2
Fore
SplineSet
878 1433 m 1,0,-1
 897 1433 l 2,1,2
 914 1433 914 1433 1008 1267 c 1,3,4
 1137 1151 1137 1151 1137 1091 c 0,5,6
 1137 971 1137 971 860 647 c 1,7,8
 662 261 662 261 573 129 c 1,9,10
 395 0 395 0 259 0 c 2,11,-1
 222 0 l 2,12,13
 166 0 166 0 166 37 c 1,14,15
 213 204 213 204 250 213 c 1,16,-1
 370 157 l 2,17,18
 384 148 384 148 425 148 c 0,19,20
 547 148 547 148 656 379 c 0,21,22
 675 413 675 413 675 453 c 0,23,24
 675 545 675 545 518 545 c 1,25,26
 393 679 393 679 139 1202 c 1,27,28
 131 1242 131 1242 0 1257 c 1,29,-1
 0 1276 l 1,30,31
 170 1424 170 1424 287 1424 c 0,32,33
 400 1424 400 1424 527 1082 c 1,34,-1
 647 647 l 1,35,36
 683 592 683 592 712 592 c 1,37,38
 878 870 878 870 878 961 c 2,39,-1
 878 1026 l 2,40,41
 878 1122 878 1122 730 1248 c 1,42,-1
 730 1257 l 2,43,44
 732 1272 732 1272 878 1433 c 1,0,-1
EndSplineSet
Validated: 1
EndChar

StartChar: Z
Encoding: 90 90 61
Width: 1330
GlyphClass: 1
Flags: W
LayerCount: 2
Fore
SplineSet
268 1438 m 1,0,1
 312 1438 312 1438 769 1315 c 1,2,-1
 847 1315 l 2,3,4
 948 1315 948 1315 1271 1382 c 1,5,-1
 1293 1349 l 1,6,7
 1193 1049 1193 1049 669 580 c 1,8,9
 441 437 441 437 412 323 c 1,10,11
 434 312 434 312 446 312 c 0,12,13
 518 334 518 334 546 334 c 2,14,-1
 814 334 l 1,15,16
 1051 268 1051 268 1104 268 c 2,17,-1
 1159 268 l 2,18,19
 1209 268 1209 268 1282 334 c 1,20,21
 1304 331 1304 331 1304 312 c 2,22,-1
 1304 279 l 1,23,24
 1138 0 1138 0 925 0 c 2,25,-1
 803 0 l 2,26,27
 737 0 737 0 424 89 c 1,28,-1
 379 89 l 2,29,30
 328 89 328 89 89 45 c 0,31,32
 67 45 67 45 67 67 c 2,33,-1
 67 78 l 1,34,35
 126 248 126 248 557 769 c 1,36,37
 890 995 890 995 981 1104 c 0,38,39
 992 1123 992 1123 992 1148 c 0,40,41
 992 1163 992 1163 925 1182 c 1,42,43
 865 1182 865 1182 580 1115 c 0,44,45
 525 1104 525 1104 435 1104 c 2,46,-1
 412 1104 l 2,47,48
 316 1104 316 1104 178 1159 c 1,49,50
 87 1115 87 1115 67 1115 c 2,51,-1
 33 1115 l 1,52,53
 0 1126 0 1126 0 1182 c 0,54,55
 0 1409 0 1409 268 1438 c 1,0,1
EndSplineSet
Validated: 1
EndChar

StartChar: a
Encoding: 97 97 68
Width: 677
GlyphClass: 1
Flags: W
LayerCount: 2
Fore
SplineSet
404 725 m 1,0,-1
 422 725 l 2,1,2
 471 725 471 725 588 655 c 0,3,4
 603 646 603 646 623 646 c 1,5,6
 655 664 655 664 693 664 c 1,7,-1
 710 655 l 1,8,9
 623 506 623 506 623 384 c 2,10,-1
 623 262 l 2,11,12
 623 199 623 199 675 87 c 1,13,14
 605 0 605 0 570 0 c 1,15,16
 504 87 504 87 457 87 c 1,17,18
 287 0 287 0 256 0 c 0,19,20
 75 0 75 0 20 288 c 1,21,-1
 20 306 l 2,22,23
 20 600 20 600 343 716 c 1,24,-1
 404 725 l 1,0,-1
177 428 m 1,25,26
 208 157 208 157 299 157 c 1,27,28
 299 140 299 140 343 140 c 2,29,-1
 378 140 l 2,30,31
 460 140 460 140 483 253 c 1,32,-1
 483 341 l 2,33,34
 483 376 483 376 509 489 c 1,35,-1
 509 498 l 1,36,37
 501 519 501 519 282 585 c 1,38,39
 177 537 177 537 177 428 c 1,25,26
EndSplineSet
Validated: 1
EndChar

StartChar: b
Encoding: 98 98 69
Width: 659
GlyphClass: 1
Flags: W
LayerCount: 2
Fore
SplineSet
197 1101 m 1,0,-1
 205 1101 l 2,1,2
 223 1099 223 1099 223 1084 c 2,3,-1
 223 1058 l 1,4,5
 162 1022 162 1022 162 902 c 0,6,7
 162 668 162 668 205 668 c 1,8,9
 366 720 366 720 431 720 c 0,10,11
 574 720 574 720 639 442 c 1,12,-1
 639 425 l 2,13,14
 639 235 639 235 396 61 c 1,15,16
 303 0 303 0 214 0 c 0,17,18
 90 0 90 0 23 330 c 1,19,-1
 23 876 l 2,20,21
 23 904 23 904 -20 962 c 1,22,23
 -20 1029 -20 1029 197 1101 c 1,0,-1
188 494 m 2,24,-1
 188 468 l 1,25,26
 206 156 206 156 301 156 c 2,27,-1
 327 156 l 2,28,29
 428 156 428 156 492 390 c 1,30,-1
 492 434 l 1,31,32
 443 598 443 598 327 598 c 2,33,-1
 301 598 l 1,34,35
 188 574 188 574 188 494 c 2,24,-1
EndSplineSet
Validated: 1
EndChar

StartChar: c
Encoding: 99 99 70
Width: 628
GlyphClass: 1
Flags: W
LayerCount: 2
Fore
SplineSet
290 728 m 1,0,1
 531 683 531 683 577 665 c 1,2,-1
 577 647 l 1,3,4
 544 578 544 578 496 548 c 1,5,-1
 460 548 l 1,6,7
 271 593 271 593 254 593 c 0,8,9
 92 573 92 573 92 521 c 2,10,-1
 92 485 l 1,11,12
 133 189 133 189 335 189 c 1,13,14
 335 180 335 180 371 180 c 0,15,16
 449 186 449 186 550 243 c 1,17,-1
 577 243 l 2,18,19
 595 240 595 240 595 225 c 2,20,-1
 595 162 l 1,21,22
 558 5 558 5 344 0 c 1,23,-1
 326 0 l 2,24,25
 124 0 124 0 47 207 c 0,26,27
 20 291 20 291 20 360 c 2,28,-1
 20 395 l 2,29,30
 20 590 20 590 218 719 c 1,31,32
 267 728 267 728 290 728 c 1,0,1
EndSplineSet
Validated: 1
EndChar

StartChar: d
Encoding: 100 100 71
Width: 650
GlyphClass: 1
Flags: W
LayerCount: 2
Fore
SplineSet
637 1089 m 1,0,1
 650 1089 650 1089 663 1063 c 1,2,-1
 663 1055 l 1,3,4
 612 950 612 950 612 892 c 2,5,-1
 612 189 l 1,6,-1
 629 34 l 1,7,8
 596 9 596 9 552 9 c 2,9,-1
 526 9 l 2,10,11
 488 9 488 9 440 77 c 1,12,-1
 432 77 l 1,13,14
 307 0 307 0 226 0 c 2,15,-1
 209 0 l 2,16,17
 56 0 56 0 20 223 c 1,18,-1
 20 309 l 2,19,20
 20 487 20 487 191 660 c 1,21,22
 262 713 262 713 337 720 c 1,23,24
 394 712 394 712 449 712 c 1,25,-1
 466 737 l 1,26,-1
 466 797 l 2,27,28
 466 877 466 877 423 960 c 1,29,30
 423 1015 423 1015 637 1089 c 1,0,1
123 472 m 1,31,-1
 123 352 l 1,32,33
 183 146 183 146 286 146 c 2,34,-1
 320 146 l 2,35,36
 466 146 466 146 466 326 c 2,37,-1
 466 514 l 2,38,39
 466 560 466 560 286 609 c 1,40,-1
 252 609 l 2,41,42
 157 609 157 609 123 472 c 1,31,-1
EndSplineSet
Validated: 1
EndChar

StartChar: e
Encoding: 101 101 72
Width: 668
GlyphClass: 1
Flags: W
LayerCount: 2
Fore
SplineSet
357 723 m 1,0,1
 535 723 535 723 598 559 c 1,2,-1
 598 551 l 2,3,4
 598 482 598 482 228 301 c 1,5,-1
 211 275 l 1,6,7
 211 178 211 178 374 138 c 1,8,-1
 383 138 l 2,9,10
 483 138 483 138 572 284 c 1,11,-1
 589 293 l 1,12,-1
 607 293 l 2,13,14
 624 290 624 290 624 275 c 2,15,-1
 624 250 l 2,16,17
 624 146 624 146 486 43 c 0,18,19
 435 0 435 0 348 0 c 1,20,21
 30 54 30 54 30 310 c 2,22,-1
 30 456 l 1,23,24
 89 697 89 697 228 697 c 1,25,26
 228 712 228 712 357 723 c 1,0,1
151 499 m 1,27,28
 159 353 159 353 219 353 c 1,29,30
 365 427 365 427 435 508 c 1,31,-1
 435 516 l 1,32,33
 417 620 417 620 245 620 c 0,34,35
 175 620 175 620 151 499 c 1,27,28
EndSplineSet
Validated: 1
EndChar

StartChar: f
Encoding: 102 102 73
Width: 403
GlyphClass: 1
Flags: W
LayerCount: 2
Fore
SplineSet
309 1058 m 1,0,1
 443 1035 443 1035 443 999 c 2,2,-1
 443 991 l 1,3,4
 406 873 406 873 351 873 c 1,5,6
 298 879 298 879 250 915 c 1,7,-1
 217 915 l 1,8,9
 175 894 175 894 175 848 c 2,10,-1
 175 756 l 2,11,12
 175 689 175 689 242 689 c 2,13,-1
 250 689 l 2,14,15
 304 689 304 689 393 722 c 1,16,-1
 410 697 l 1,17,-1
 410 689 l 1,18,19
 369 529 369 529 250 529 c 0,20,21
 183 529 183 529 183 369 c 2,22,-1
 183 185 l 2,23,24
 183 93 183 93 217 42 c 1,25,26
 217 0 217 0 141 0 c 2,27,-1
 82 0 l 2,28,29
 60 0 60 0 32 17 c 1,30,31
 40 115 40 115 40 160 c 2,32,-1
 40 462 l 1,33,34
 -10 572 -10 572 -10 579 c 1,35,36
 35 625 35 625 49 856 c 1,37,38
 139 1058 139 1058 309 1058 c 1,0,1
EndSplineSet
Validated: 1
EndChar

StartChar: g
Encoding: 103 103 74
Width: 717
GlyphClass: 1
Flags: W
LayerCount: 2
Fore
SplineSet
668 723 m 1,0,1
 704 710 704 710 704 696 c 2,2,-1
 704 687 l 1,3,4
 650 567 650 567 650 465 c 0,5,6
 650 389 650 389 704 180 c 1,7,-1
 704 20 l 1,8,9
 640 -238 640 -238 517 -238 c 1,10,11
 451 -291 451 -291 286 -291 c 1,12,13
 10 -264 10 -264 10 -184 c 0,14,15
 10 -149 10 -149 152 -86 c 1,16,17
 286 -211 286 -211 366 -211 c 2,18,-1
 401 -211 l 1,19,20
 544 -167 544 -167 544 -86 c 2,21,-1
 544 -6 l 2,22,23
 544 39 544 39 526 100 c 1,24,-1
 499 100 l 1,25,26
 410 3 410 3 241 3 c 1,27,28
 10 25 10 25 10 234 c 2,29,-1
 10 243 l 2,30,31
 10 515 10 515 232 670 c 1,32,33
 304 714 304 714 419 714 c 0,34,35
 473 714 473 714 579 705 c 1,36,37
 652 714 652 714 668 723 c 1,0,1
143 421 m 2,38,-1
 143 376 l 1,39,40
 185 180 185 180 295 180 c 2,41,-1
 348 180 l 2,42,43
 456 180 456 180 481 447 c 1,44,45
 490 447 490 447 490 572 c 1,46,-1
 473 581 l 1,47,48
 406 554 406 554 375 554 c 1,49,50
 280 581 280 581 259 581 c 1,51,52
 143 525 143 525 143 421 c 2,38,-1
EndSplineSet
Validated: 1
EndChar

StartChar: h
Encoding: 104 104 75
Width: 695
GlyphClass: 1
Flags: W
LayerCount: 2
Fore
SplineSet
215 1122 m 1,0,-1
 224 1122 l 2,1,2
 242 1120 242 1120 242 1105 c 2,3,-1
 242 1087 l 1,4,5
 215 1002 215 1002 215 980 c 2,6,-1
 215 668 l 2,7,8
 215 654 215 654 251 632 c 1,9,-1
 259 632 l 2,10,11
 298 632 298 632 500 722 c 1,12,-1
 518 722 l 2,13,14
 624 722 624 722 687 490 c 1,15,-1
 687 312 l 2,16,17
 687 126 687 126 393 0 c 1,18,-1
 384 0 l 1,19,-1
 384 27 l 1,20,21
 527 203 527 203 527 339 c 1,22,23
 491 570 491 570 393 570 c 2,24,-1
 357 570 l 2,25,26
 215 570 215 570 215 365 c 2,27,-1
 215 187 l 2,28,29
 215 138 215 138 242 18 c 1,30,31
 212 0 212 0 188 0 c 2,32,-1
 46 0 l 2,33,34
 33 0 33 0 19 27 c 1,35,36
 19 38 19 38 37 125 c 1,37,-1
 37 882 l 2,38,39
 37 904 37 904 10 989 c 1,40,-1
 10 1007 l 1,41,42
 140 1113 140 1113 215 1122 c 1,0,-1
EndSplineSet
Validated: 1
EndChar

StartChar: i
Encoding: 105 105 76
Width: 284
GlyphClass: 1
Flags: W
LayerCount: 2
Fore
SplineSet
175 1027 m 1,0,1
 252 1000 252 1000 252 941 c 0,2,3
 252 871 252 871 167 796 c 1,4,-1
 133 796 l 1,5,6
 81 822 81 822 81 941 c 0,7,8
 81 1027 81 1027 175 1027 c 1,0,1
124 719 m 1,9,10
 227 719 227 719 227 394 c 2,11,-1
 227 120 l 1,12,13
 244 36 244 36 244 26 c 1,14,15
 218 0 218 0 81 0 c 2,16,-1
 47 0 l 2,17,18
 35 0 35 0 21 26 c 1,19,20
 47 84 47 84 47 120 c 2,21,-1
 47 505 l 2,22,23
 47 545 47 545 -30 599 c 1,24,-1
 -30 625 l 1,25,26
 59 713 59 713 124 719 c 1,9,10
EndSplineSet
Validated: 1
EndChar

StartChar: j
Encoding: 106 106 77
Width: 311
GlyphClass: 1
Flags: W
LayerCount: 2
Fore
SplineSet
200 1023 m 1,0,1
 282 1001 282 1001 282 942 c 1,2,3
 251 804 251 804 176 804 c 1,4,5
 111 853 111 853 111 950 c 1,6,7
 138 1023 138 1023 200 1023 c 1,0,1
168 722 m 1,8,9
 251 722 251 722 265 495 c 1,10,-1
 265 121 l 2,11,12
 265 73 265 73 282 -66 c 1,13,14
 282 -184 282 -184 70 -269 c 1,15,-1
 46 -269 l 1,16,-1
 5 -261 l 1,17,-1
 5 -245 l 2,18,19
 5 -233 5 -233 87 -196 c 1,20,21
 143 -116 143 -116 143 -74 c 2,22,-1
 143 -58 l 2,23,24
 143 -44 143 -44 70 97 c 1,25,-1
 70 519 l 2,26,27
 70 568 70 568 -11 609 c 1,28,-1
 -11 617 l 2,29,30
 -11 668 -11 668 168 722 c 1,8,9
EndSplineSet
Validated: 1
EndChar

StartChar: k
Encoding: 107 107 78
Width: 628
GlyphClass: 1
Flags: W
LayerCount: 2
Fore
SplineSet
209 1107 m 2,0,1
 227 1104 227 1104 227 1089 c 1,2,3
 183 961 183 961 183 939 c 2,4,-1
 183 886 l 2,5,6
 183 764 183 764 174 567 c 1,7,-1
 183 549 l 1,8,-1
 174 496 l 1,9,-1
 174 461 l 2,10,11
 174 411 174 411 218 399 c 1,12,13
 377 459 377 459 377 523 c 1,14,15
 364 558 364 558 351 558 c 2,16,-1
 324 558 l 1,17,-1
 236 531 l 1,18,-1
 227 549 l 1,19,-1
 227 558 l 1,20,21
 374 687 374 687 493 717 c 1,22,-1
 519 717 l 2,23,24
 563 717 563 717 572 584 c 1,25,-1
 572 567 l 2,26,27
 572 528 572 528 501 461 c 1,28,-1
 501 434 l 1,29,30
 569 347 569 347 616 159 c 1,31,32
 630 159 630 159 652 124 c 1,33,-1
 652 97 l 2,34,35
 652 74 652 74 528 27 c 1,36,37
 464 27 464 27 377 266 c 1,38,39
 333 328 333 328 289 328 c 0,40,41
 191 328 191 328 191 204 c 2,42,-1
 191 195 l 2,43,44
 191 183 191 183 209 53 c 1,45,-1
 209 44 l 1,46,47
 186 0 186 0 138 0 c 2,48,-1
 76 0 l 2,49,50
 14 0 14 0 14 44 c 0,51,52
 32 407 32 407 32 469 c 2,53,-1
 32 824 l 2,54,55
 32 861 32 861 -30 974 c 1,56,57
 -30 1027 -30 1027 191 1107 c 1,58,-1
 209 1107 l 2,0,1
EndSplineSet
Validated: 1
EndChar

StartChar: l
Encoding: 108 108 79
Width: 293
GlyphClass: 1
Flags: W
LayerCount: 2
Fore
SplineSet
214 1125 m 1,0,-1
 241 1125 l 2,1,2
 254 1125 254 1125 268 1098 c 1,3,-1
 268 1089 l 1,4,5
 223 980 223 980 223 955 c 0,6,7
 223 816 223 816 232 116 c 0,8,9
 232 89 232 89 250 45 c 1,10,11
 238 0 238 0 188 0 c 2,12,-1
 36 0 l 2,13,14
 13 0 13 0 9 36 c 1,15,16
 36 116 36 116 36 143 c 2,17,-1
 36 875 l 2,18,19
 36 907 36 907 0 946 c 1,20,-1
 0 982 l 1,21,22
 7 1009 7 1009 214 1125 c 1,0,-1
EndSplineSet
Validated: 1
EndChar

StartChar: m
Encoding: 109 109 80
Width: 1043
GlyphClass: 1
Flags: W
LayerCount: 2
Fore
SplineSet
144 718 m 2,0,-1
 152 718 l 1,1,2
 261 616 261 616 296 616 c 0,3,4
 318 616 318 616 456 701 c 0,5,6
 471 709 471 709 490 709 c 0,7,8
 529 709 529 709 642 616 c 1,9,10
 809 718 809 718 844 718 c 1,11,12
 1005 663 1005 663 1005 481 c 2,13,-1
 1005 203 l 2,14,15
 1005 178 1005 178 1047 84 c 1,16,17
 1047 61 1047 61 979 17 c 1,18,-1
 971 17 l 2,19,20
 878 17 878 17 870 186 c 1,21,22
 870 566 870 566 819 566 c 2,23,-1
 794 566 l 2,24,25
 633 566 633 566 633 312 c 2,26,-1
 633 186 l 2,27,28
 633 141 633 141 642 42 c 1,29,30
 606 8 606 8 549 8 c 0,31,32
 497 8 497 8 473 42 c 1,33,-1
 481 84 l 1,34,-1
 481 228 l 2,35,36
 481 549 481 549 431 549 c 2,37,-1
 380 549 l 2,38,39
 262 549 262 549 262 228 c 0,40,41
 262 221 262 221 270 25 c 1,42,43
 239 0 239 0 211 0 c 2,44,-1
 169 0 l 2,45,46
 120 0 120 0 84 34 c 1,47,-1
 93 93 l 1,48,-1
 93 524 l 2,49,50
 93 551 93 551 8 574 c 1,51,-1
 0 591 l 1,52,-1
 0 616 l 1,53,54
 94 718 94 718 144 718 c 2,0,-1
EndSplineSet
Validated: 1
EndChar

StartChar: n
Encoding: 110 110 81
Width: 668
GlyphClass: 1
Flags: W
LayerCount: 2
Fore
SplineSet
453 732 m 1,0,1
 586 732 586 732 610 549 c 1,2,3
 636 443 636 443 636 192 c 0,4,5
 636 152 636 152 671 105 c 1,6,-1
 671 70 l 1,7,8
 632 9 632 9 584 9 c 1,9,10
 488 50 488 50 488 192 c 2,11,-1
 488 479 l 2,12,13
 488 548 488 548 436 575 c 1,14,-1
 410 575 l 1,15,16
 261 556 261 556 261 444 c 2,17,-1
 261 340 l 2,18,19
 261 290 261 290 253 279 c 1,20,21
 261 232 261 232 261 200 c 2,22,-1
 261 44 l 2,23,24
 261 6 261 6 148 0 c 0,25,26
 126 0 126 0 87 26 c 1,27,28
 96 88 96 88 96 96 c 0,29,30
 96 558 96 558 44 558 c 1,31,32
 0 564 0 564 0 584 c 2,33,-1
 0 593 l 1,34,35
 49 723 49 723 96 723 c 0,36,37
 140 723 140 723 253 627 c 1,38,-1
 261 627 l 1,39,40
 373 700 373 700 453 732 c 1,0,1
EndSplineSet
Validated: 1
EndChar

StartChar: o
Encoding: 111 111 82
Width: 672
GlyphClass: 1
Flags: W
LayerCount: 2
Fore
SplineSet
319 723 m 2,0,-1
 345 723 l 2,1,2
 452 723 452 723 555 622 c 1,3,4
 656 482 656 482 656 387 c 0,5,6
 656 116 656 116 345 8 c 0,7,8
 331 0 331 0 303 0 c 0,9,10
 106 0 106 0 25 202 c 0,11,12
 0 273 0 273 0 303 c 2,13,-1
 0 336 l 2,14,15
 0 535 0 535 227 698 c 1,16,17
 292 723 292 723 319 723 c 2,0,-1
118 454 m 2,18,-1
 118 446 l 2,19,20
 118 336 118 336 252 210 c 1,21,22
 318 171 318 171 395 160 c 1,23,24
 530 179 530 179 530 269 c 2,25,-1
 530 286 l 1,26,27
 427 563 427 563 227 563 c 1,28,29
 118 548 118 548 118 454 c 2,18,-1
EndSplineSet
Validated: 1
EndChar

StartChar: p
Encoding: 112 112 83
Width: 743
GlyphClass: 1
Flags: W
LayerCount: 2
Fore
SplineSet
520 728 m 1,0,1
 606 728 606 728 695 554 c 1,2,3
 721 409 721 409 721 379 c 2,4,-1
 721 371 l 2,5,6
 721 160 721 160 459 13 c 1,7,8
 394 -4 394 -4 381 -4 c 0,9,10
 371 -4 371 -4 250 40 c 1,11,12
 221 40 221 40 215 -126 c 1,13,-1
 250 -283 l 2,14,15
 250 -295 250 -295 224 -309 c 1,16,-1
 207 -309 l 1,17,18
 41 -292 41 -292 41 -265 c 2,19,-1
 41 13 l 2,20,21
 41 37 41 37 -3 101 c 1,22,23
 67 171 67 171 67 284 c 2,24,-1
 67 467 l 2,25,26
 67 542 67 542 -11 562 c 0,27,28
 -20 562 -20 562 -20 571 c 2,29,-1
 -20 589 l 1,30,31
 87 711 87 711 137 711 c 2,32,-1
 146 711 l 1,33,34
 212 641 212 641 250 641 c 0,35,36
 311 641 311 641 477 719 c 1,37,-1
 520 728 l 1,0,1
268 318 m 2,38,39
 268 199 268 199 468 153 c 1,40,-1
 503 153 l 2,41,42
 555 153 555 153 599 327 c 1,43,-1
 599 371 l 1,44,45
 543 597 543 597 442 597 c 2,46,-1
 390 597 l 1,47,48
 268 566 268 566 268 475 c 2,49,-1
 268 318 l 2,38,39
EndSplineSet
Validated: 1
EndChar

StartChar: q
Encoding: 113 113 84
Width: 717
GlyphClass: 1
Flags: W
LayerCount: 2
Fore
SplineSet
414 719 m 1,0,-1
 568 693 l 1,1,-1
 593 693 l 2,2,3
 601 693 601 693 662 710 c 1,4,5
 679 708 679 708 679 693 c 2,6,-1
 679 120 l 2,7,8
 679 -3 679 -3 687 -214 c 1,9,10
 673 -282 673 -282 585 -282 c 2,11,-1
 533 -282 l 2,12,13
 520 -282 520 -282 499 -248 c 1,14,15
 516 -170 516 -170 516 -162 c 0,16,17
 508 39 508 39 499 60 c 1,18,-1
 473 60 l 1,19,-1
 268 -8 l 1,20,-1
 251 -8 l 1,21,22
 20 35 20 35 20 291 c 0,23,24
 20 424 20 424 140 582 c 1,25,26
 321 719 321 719 414 719 c 1,0,-1
208 471 m 2,27,-1
 208 402 l 1,28,29
 254 189 254 189 414 189 c 0,30,31
 533 189 533 189 533 283 c 2,32,-1
 533 479 l 2,33,34
 533 575 533 575 371 608 c 1,35,-1
 337 608 l 1,36,37
 208 569 208 569 208 471 c 2,27,-1
EndSplineSet
Validated: 1
EndChar

StartChar: r
Encoding: 114 114 85
Width: 501
GlyphClass: 1
Flags: W
LayerCount: 2
Fore
SplineSet
362 754 m 1,0,1
 418 754 418 754 494 693 c 1,2,-1
 494 675 l 2,3,4
 494 587 494 587 362 473 c 1,5,-1
 345 473 l 1,6,-1
 309 570 l 1,7,-1
 292 579 l 1,8,-1
 283 579 l 2,9,10
 204 579 204 579 204 395 c 1,11,12
 195 395 195 395 195 289 c 2,13,-1
 195 149 l 2,14,15
 195 124 195 124 231 26 c 1,16,17
 231 14 231 14 204 0 c 1,18,-1
 46 0 l 2,19,20
 29 0 29 0 29 18 c 2,21,-1
 29 35 l 1,22,23
 55 69 55 69 55 114 c 2,24,-1
 55 500 l 2,25,26
 55 546 55 546 -50 596 c 1,27,-1
 -50 622 l 1,28,29
 33 719 33 719 90 719 c 0,30,31
 98 719 98 719 213 666 c 1,32,33
 244 666 244 666 336 745 c 1,34,35
 345 745 345 745 362 754 c 1,0,1
EndSplineSet
Validated: 1
EndChar

StartChar: s
Encoding: 115 115 86
Width: 659
GlyphClass: 1
Flags: W
LayerCount: 2
Fore
SplineSet
287 723 m 2,0,1
 523 723 523 723 523 688 c 2,2,-1
 523 671 l 2,3,4
 523 615 523 615 453 566 c 1,5,-1
 436 566 l 1,6,7
 219 636 219 636 166 636 c 1,8,9
 122 618 122 618 122 575 c 2,10,-1
 122 557 l 2,11,12
 122 464 122 464 270 444 c 1,13,14
 411 479 411 479 470 479 c 2,15,-1
 488 479 l 1,16,17
 627 453 627 453 627 357 c 2,18,-1
 627 322 l 2,19,20
 627 96 627 96 322 0 c 1,21,-1
 200 0 l 1,22,23
 0 18 0 18 0 148 c 1,24,25
 26 270 26 270 96 270 c 1,26,27
 166 261 166 261 166 209 c 1,28,-1
 157 157 l 1,29,30
 157 78 157 78 261 70 c 1,31,-1
 314 70 l 1,32,33
 470 103 470 103 470 218 c 0,34,35
 470 282 470 282 383 314 c 1,36,37
 231 305 231 305 192 305 c 1,38,39
 35 328 35 328 35 462 c 2,40,-1
 35 505 l 1,41,42
 72 723 72 723 253 723 c 2,43,-1
 287 723 l 2,0,1
EndSplineSet
Validated: 1
EndChar

StartChar: t
Encoding: 116 116 87
Width: 470
GlyphClass: 1
Flags: W
LayerCount: 2
Fore
SplineSet
213 1014 m 1,0,-1
 239 1014 l 2,1,2
 256 1011 256 1011 256 997 c 2,3,-1
 256 767 l 2,4,5
 256 744 256 744 273 716 c 1,6,-1
 358 724 l 1,7,-1
 392 724 l 2,8,9
 452 724 452 724 452 665 c 0,10,11
 452 557 452 557 290 537 c 1,12,13
 256 525 256 525 256 460 c 2,14,-1
 256 341 l 2,15,16
 256 136 256 136 392 136 c 0,17,18
 435 134 435 134 435 111 c 2,19,-1
 435 94 l 1,20,21
 353 11 353 11 281 0 c 1,22,-1
 247 0 l 1,23,24
 51 75 51 75 51 273 c 2,25,-1
 51 511 l 1,26,27
 0 563 0 563 0 596 c 1,28,29
 77 696 77 696 77 775 c 2,30,-1
 77 903 l 2,31,32
 77 916 77 916 213 1014 c 1,0,-1
EndSplineSet
Validated: 1
EndChar

StartChar: u
Encoding: 117 117 88
Width: 664
GlyphClass: 1
Flags: W
LayerCount: 2
Fore
SplineSet
174 730 m 0,0,1
 187 730 187 730 208 695 c 1,2,-1
 208 339 l 2,3,4
 208 174 208 174 313 174 c 2,5,-1
 356 174 l 2,6,7
 478 174 478 174 478 374 c 1,8,9
 486 423 486 423 486 513 c 2,10,-1
 486 582 l 1,11,12
 469 707 469 707 469 712 c 1,13,14
 501 730 501 730 539 730 c 2,15,-1
 599 730 l 2,16,17
 623 730 623 730 652 712 c 1,18,-1
 643 608 l 1,19,-1
 643 200 l 2,20,21
 643 159 643 159 721 96 c 1,22,23
 644 9 644 9 582 9 c 1,24,25
 481 96 481 96 452 96 c 1,26,27
 341 22 341 22 269 0 c 1,28,29
 175 0 175 0 43 165 c 1,30,31
 43 194 43 194 35 208 c 1,32,-1
 52 530 l 2,33,34
 52 549 52 549 0 608 c 1,35,-1
 0 634 l 1,36,37
 93 730 93 730 174 730 c 0,0,1
EndSplineSet
Validated: 1
EndChar

StartChar: v
Encoding: 118 118 89
Width: 628
GlyphClass: 1
Flags: W
LayerCount: 2
Fore
SplineSet
133 719 m 1,0,-1
 151 719 l 1,1,2
 222 659 222 659 222 568 c 2,3,-1
 222 346 l 1,4,5
 242 169 242 169 346 169 c 1,6,7
 479 281 479 281 479 453 c 0,8,9
 479 528 479 528 364 568 c 1,10,-1
 355 586 l 1,11,12
 355 652 355 652 524 719 c 1,13,-1
 541 719 l 1,14,15
 630 656 630 656 630 577 c 2,16,-1
 630 417 l 1,17,18
 457 30 457 30 320 0 c 1,19,20
 53 101 53 101 53 328 c 2,21,-1
 53 559 l 1,22,-1
 0 621 l 1,23,-1
 0 639 l 2,24,25
 0 671 0 671 133 719 c 1,0,-1
EndSplineSet
Validated: 1
EndChar

StartChar: w
Encoding: 119 119 90
Width: 1043
GlyphClass: 1
Flags: W
LayerCount: 2
Fore
SplineSet
526 719 m 1,0,1
 572 719 572 719 623 570 c 1,2,-1
 623 430 l 2,3,4
 623 420 623 420 605 333 c 1,5,6
 626 167 626 167 728 167 c 1,7,8
 868 288 868 288 868 438 c 0,9,10
 868 517 868 517 745 552 c 1,11,12
 737 569 737 569 737 579 c 0,13,14
 757 633 757 633 886 710 c 1,15,-1
 903 710 l 1,16,17
 1026 670 1026 670 1026 491 c 0,18,19
 1026 305 1026 305 745 9 c 1,20,21
 715 0 715 0 710 0 c 0,22,23
 608 36 608 36 500 123 c 1,24,-1
 491 123 l 2,25,26
 447 123 447 123 368 9 c 1,27,28
 322 0 322 0 316 0 c 0,29,30
 120 72 120 72 61 210 c 1,31,32
 44 359 44 359 44 377 c 2,33,-1
 44 552 l 1,34,-1
 0 605 l 1,35,-1
 0 631 l 1,36,37
 67 700 67 700 140 710 c 1,38,-1
 149 710 l 1,39,40
 219 646 219 646 219 526 c 2,41,-1
 219 307 l 2,42,43
 219 218 219 218 316 167 c 1,44,-1
 324 167 l 2,45,46
 387 167 387 167 438 316 c 1,47,-1
 430 377 l 1,48,49
 438 468 438 468 438 482 c 0,50,51
 438 521 438 521 360 552 c 1,52,-1
 351 570 l 1,53,54
 351 644 351 644 526 719 c 1,0,1
EndSplineSet
Validated: 1
EndChar

StartChar: x
Encoding: 120 120 91
Width: 686
GlyphClass: 1
Flags: W
LayerCount: 2
Fore
SplineSet
607 728 m 1,0,1
 659 710 659 710 659 693 c 2,2,-1
 659 685 l 2,3,4
 659 555 659 555 503 555 c 1,5,6
 443 473 443 473 425 407 c 1,7,8
 480 165 480 165 607 165 c 1,9,10
 702 120 702 120 702 104 c 2,11,-1
 702 95 l 1,12,13
 626 0 626 0 546 0 c 0,14,15
 447 0 447 0 355 243 c 1,16,-1
 338 243 l 2,17,18
 320 242 320 242 182 61 c 1,19,20
 120 0 120 0 95 0 c 0,21,22
 0 7 0 7 0 26 c 2,23,-1
 0 52 l 1,24,25
 35 165 35 165 69 165 c 2,26,-1
 147 156 l 1,27,28
 213 156 213 156 286 364 c 1,29,30
 213 563 213 563 95 563 c 1,31,32
 43 588 43 588 43 615 c 0,33,34
 43 671 43 671 165 719 c 1,35,-1
 191 719 l 2,36,37
 207 719 207 719 355 555 c 1,38,-1
 373 546 l 1,39,-1
 399 546 l 1,40,41
 538 717 538 717 572 719 c 0,42,43
 592 719 592 719 607 728 c 1,0,1
EndSplineSet
Validated: 1
EndChar

StartChar: y
Encoding: 121 121 92
Width: 589
GlyphClass: 1
Flags: W
LayerCount: 2
Fore
SplineSet
86 723 m 1,0,1
 200 652 200 652 200 503 c 1,2,3
 184 369 184 369 184 341 c 0,4,5
 184 235 184 235 257 211 c 1,6,7
 436 368 436 368 436 536 c 0,8,9
 436 577 436 577 347 601 c 1,10,-1
 338 617 l 1,11,-1
 338 634 l 2,12,13
 338 667 338 667 485 723 c 1,14,-1
 493 723 l 2,15,16
 574 723 574 723 574 609 c 2,17,-1
 574 601 l 2,18,19
 574 450 574 450 298 24 c 0,20,21
 265 -29 265 -29 265 -58 c 2,22,-1
 265 -66 l 2,23,24
 265 -83 265 -83 314 -163 c 1,25,26
 255 -212 255 -212 208 -212 c 1,27,28
 143 -202 143 -202 143 -82 c 1,29,-1
 168 32 l 1,30,-1
 168 64 l 1,31,32
 29 179 29 179 29 276 c 2,33,-1
 29 495 l 2,34,35
 29 561 29 561 -60 625 c 1,36,-1
 -60 642 l 1,37,38
 9 723 9 723 86 723 c 1,0,1
EndSplineSet
Validated: 1
EndChar

StartChar: z
Encoding: 122 122 93
Width: 593
GlyphClass: 1
Flags: W
LayerCount: 2
Fore
SplineSet
139 728 m 2,0,-1
 173 728 l 1,1,2
 368 711 368 711 381 711 c 2,3,-1
 433 711 l 2,4,5
 462 711 462 711 555 728 c 1,6,-1
 572 702 l 1,7,8
 493 534 493 534 251 217 c 1,9,-1
 251 199 l 2,10,11
 251 187 251 187 277 173 c 1,12,-1
 459 173 l 1,13,14
 573 217 573 217 589 217 c 1,15,-1
 598 199 l 1,16,-1
 598 191 l 2,17,18
 598 107 598 107 407 0 c 1,19,-1
 390 0 l 1,20,-1
 173 35 l 1,21,22
 48 26 48 26 35 26 c 1,23,24
 26 43 26 43 26 52 c 1,25,26
 87 137 87 137 269 355 c 1,27,28
 390 541 390 541 390 563 c 1,29,-1
 373 572 l 1,30,-1
 156 572 l 2,31,32
 125 572 125 572 9 555 c 1,33,-1
 0 572 l 1,34,35
 36 728 36 728 139 728 c 2,0,-1
EndSplineSet
Validated: 1
EndChar

StartChar: copyright
Encoding: 169 169 106
Width: 2076
GlyphClass: 1
Flags: W
LayerCount: 2
Fore
SplineSet
1035 1661 m 0,0,1
 1404 1661 1404 1661 1698 1377 c 1,2,3
 1825 1236 1825 1236 1879 1119 c 0,4,5
 1982 899 1982 899 1982 680 c 2,6,-1
 1982 645 l 2,7,8
 1982 263 1982 263 1700 -49 c 1,9,10
 1406 -336 1406 -336 1035 -336 c 0,11,12
 649 -336 649 -336 351 -31 c 1,13,14
 85 272 85 272 85 665 c 0,15,16
 85 1064 85 1064 365 1370 c 1,17,18
 657 1661 657 1661 1035 1661 c 0,0,1
1008 1615 m 1,19,20
 1013 1536 1013 1536 1013 1505 c 0,21,22
 1015 1500 1015 1500 1015 1498 c 2,23,-1
 1006 1491 l 1,24,-1
 988 1491 l 2,25,26
 977 1491 977 1491 977 1606 c 1,27,28
 975 1606 975 1606 975 1613 c 1,29,30
 953 1610 953 1610 942 1610 c 2,31,-1
 935 1610 l 1,32,33
 938 1596 938 1596 940 1542 c 1,34,35
 937 1542 937 1542 927 1529 c 1,36,37
 942 1522 942 1522 942 1509 c 2,38,-1
 942 1487 l 2,39,40
 942 1456 942 1456 973 1456 c 2,41,-1
 977 1456 l 2,42,43
 1052 1456 1052 1456 1052 1476 c 0,44,45
 1052 1478 1052 1478 1054 1489 c 0,46,47
 1052 1512 1052 1512 1052 1524 c 1,48,49
 1055 1524 1055 1524 1065 1538 c 1,50,51
 1059 1538 1059 1538 1050 1551 c 1,52,-1
 1050 1555 l 2,53,54
 1050 1574 1050 1574 1048 1615 c 1,55,-1
 1008 1615 l 1,19,20
1121 1610 m 1,56,57
 1118 1605 1118 1605 1114 1577 c 1,58,59
 1154 1574 1154 1574 1154 1566 c 0,60,61
 1154 1536 1154 1536 1134 1527 c 1,62,63
 1137 1527 1137 1527 1145 1513 c 1,64,65
 1136 1453 1136 1453 1134 1449 c 1,66,67
 1148 1449 1148 1449 1173 1443 c 1,68,69
 1180 1516 1180 1516 1200 1516 c 1,70,-1
 1189 1531 l 1,71,72
 1191 1554 1191 1554 1195 1564 c 1,73,74
 1230 1557 1230 1557 1235 1557 c 1,75,-1
 1235 1560 l 2,76,77
 1235 1567 1235 1567 1240 1591 c 1,78,79
 1135 1610 1135 1610 1121 1610 c 1,56,57
761 1551 m 0,80,81
 761 1537 761 1537 772 1502 c 1,82,83
 769 1502 769 1502 764 1491 c 1,84,-1
 764 1487 l 1,85,86
 782 1487 782 1487 790 1441 c 1,87,88
 800 1425 800 1425 816 1425 c 0,89,90
 896 1440 896 1440 896 1458 c 2,91,-1
 896 1467 l 2,92,93
 896 1478 896 1478 889 1502 c 1,94,95
 854 1491 854 1491 849 1491 c 1,96,97
 854 1481 854 1481 854 1472 c 1,98,99
 843 1465 843 1465 825 1465 c 1,100,101
 819 1479 819 1479 819 1496 c 1,102,103
 825 1498 825 1498 825 1509 c 1,104,105
 807 1509 807 1509 803 1544 c 1,106,107
 810 1549 810 1549 830 1553 c 1,108,109
 836 1545 836 1545 836 1535 c 1,110,-1
 876 1546 l 1,111,112
 869 1591 869 1591 845 1591 c 2,113,-1
 836 1591 l 1,114,115
 761 1579 761 1579 761 1551 c 0,80,81
1292 1573 m 1,116,117
 1281 1547 1281 1547 1281 1544 c 0,118,119
 1319 1530 1319 1530 1319 1527 c 0,120,121
 1309 1491 1309 1491 1290 1491 c 1,122,123
 1297 1480 1297 1480 1297 1474 c 0,124,125
 1277 1423 1277 1423 1277 1414 c 1,126,127
 1306 1401 1306 1401 1312 1401 c 1,128,129
 1331 1467 1331 1467 1352 1467 c 1,130,131
 1345 1478 1345 1478 1345 1485 c 0,132,133
 1353 1513 1353 1513 1359 1513 c 0,134,135
 1388 1500 1388 1500 1394 1500 c 1,136,-1
 1407 1531 l 1,137,138
 1305 1573 1305 1573 1292 1575 c 1,139,-1
 1292 1573 l 1,116,117
574 1483 m 1,140,141
 601 1434 601 1434 605 1421 c 1,142,-1
 600 1405 l 1,143,144
 623 1405 623 1405 634 1370 c 0,145,146
 636 1370 636 1370 649 1346 c 1,147,148
 737 1386 737 1386 737 1408 c 0,149,150
 737 1420 737 1420 715 1456 c 1,151,152
 719 1464 719 1464 719 1474 c 1,153,154
 699 1474 699 1474 691 1502 c 1,155,156
 680 1524 680 1524 658 1524 c 0,157,158
 649 1524 649 1524 574 1483 c 1,140,141
1467 1498 m 1,159,160
 1433 1441 1433 1441 1427 1441 c 0,161,162
 1415 1438 1415 1438 1414 1438 c 1,163,164
 1414 1434 1414 1434 1418 1423 c 1,165,166
 1383 1369 1383 1369 1383 1366 c 0,167,168
 1468 1308 1468 1308 1475 1308 c 1,169,170
 1489 1329 1489 1329 1489 1337 c 1,171,172
 1439 1368 1439 1368 1433 1377 c 1,173,174
 1447 1394 1447 1394 1449 1394 c 2,175,-1
 1451 1394 l 1,176,-1
 1489 1370 l 2,177,178
 1493 1372 1493 1372 1508 1399 c 1,179,180
 1469 1420 1469 1420 1469 1427 c 0,181,182
 1477 1444 1477 1444 1484 1447 c 1,183,184
 1486 1443 1486 1443 1539 1410 c 0,185,186
 1544 1411 1544 1411 1559 1438 c 1,187,188
 1554 1440 1554 1440 1467 1498 c 1,159,160
653 1483 m 0,189,190
 656 1483 656 1483 693 1414 c 1,191,-1
 693 1412 l 1,192,193
 679 1397 679 1397 667 1397 c 1,194,195
 635 1451 635 1451 627 1472 c 1,196,197
 647 1483 647 1483 653 1483 c 0,189,190
429 1353 m 2,198,199
 429 1342 429 1342 462 1304 c 1,200,-1
 459 1289 l 1,201,-1
 475 1289 l 1,202,203
 508 1251 508 1251 521 1251 c 0,204,205
 544 1251 544 1251 589 1306 c 1,206,-1
 592 1317 l 2,207,208
 592 1327 592 1327 561 1364 c 1,209,-1
 561 1366 l 1,210,-1
 563 1379 l 1,211,-1
 548 1379 l 1,212,213
 512 1419 512 1419 497 1419 c 0,214,215
 477 1419 477 1419 431 1364 c 1,216,-1
 429 1353 l 2,198,199
1614 1390 m 1,217,218
 1614 1387 1614 1387 1566 1342 c 1,219,-1
 1555 1344 l 1,220,-1
 1550 1344 l 1,221,-1
 1550 1326 l 1,222,-1
 1506 1280 l 2,223,224
 1506 1277 1506 1277 1533 1253 c 1,225,-1
 1566 1284 l 1,226,-1
 1568 1284 l 1,227,228
 1555 1233 1555 1233 1555 1229 c 2,229,-1
 1586 1200 l 1,230,-1
 1601 1256 l 1,231,232
 1617 1251 1617 1251 1619 1251 c 2,233,-1
 1623 1251 l 2,234,235
 1642 1251 1642 1251 1680 1304 c 1,236,-1
 1680 1311 l 2,237,238
 1680 1332 1680 1332 1614 1390 c 1,217,218
490 1375 m 1,239,-1
 495 1375 l 1,240,241
 511 1360 511 1360 548 1315 c 1,242,-1
 548 1311 l 2,243,244
 548 1308 548 1308 530 1295 c 1,245,-1
 526 1295 l 1,246,247
 510 1308 510 1308 473 1355 c 1,248,-1
 473 1359 l 2,249,250
 473 1361 473 1361 490 1375 c 1,239,-1
609 991 m 1,251,-1
 611 976 l 1,252,-1
 611 861 l 1,253,254
 552 839 552 839 552 760 c 0,255,256
 552 675 552 675 581 608 c 0,257,258
 585 606 585 606 627 522 c 1,259,260
 660 480 660 480 660 473 c 2,261,-1
 660 469 l 1,262,-1
 658 453 l 1,263,264
 660 428 660 428 667 396 c 1,265,266
 662 384 662 384 662 361 c 0,267,268
 664 345 664 345 664 343 c 2,269,-1
 662 339 l 1,270,271
 669 262 669 262 680 262 c 1,272,273
 702 243 702 243 702 213 c 1,274,275
 710 192 710 192 741 167 c 1,276,277
 757 136 757 136 779 136 c 1,278,279
 814 86 814 86 814 81 c 0,280,281
 844 8 844 8 872 8 c 0,282,283
 883 8 883 8 889 -34 c 1,284,285
 905 -57 905 -57 944 -69 c 1,286,287
 961 -90 961 -90 1017 -104 c 0,288,289
 1030 -104 1030 -104 1032 -106 c 0,290,291
 1066 -100 1066 -100 1145 -98 c 1,292,293
 1169 -89 1169 -89 1191 -73 c 1,294,295
 1225 -73 1225 -73 1262 -38 c 1,296,297
 1330 -38 1330 -38 1339 44 c 1,298,299
 1356 67 1356 67 1378 156 c 1,300,301
 1416 197 1416 197 1416 257 c 1,302,303
 1429 277 1429 277 1429 301 c 2,304,-1
 1429 317 l 1,305,306
 1449 367 1449 367 1449 390 c 0,307,308
 1447 409 1447 409 1442 416 c 1,309,310
 1444 438 1444 438 1444 451 c 2,311,-1
 1444 460 l 2,312,313
 1444 467 1444 467 1442 471 c 0,314,315
 1444 480 1444 480 1444 486 c 0,316,317
 1444 527 1444 527 1418 581 c 1,318,319
 1420 605 1420 605 1422 605 c 1,320,-1
 1420 610 l 1,321,-1
 1420 632 l 2,322,323
 1420 652 1420 652 1409 685 c 1,324,325
 1427 699 1427 699 1427 722 c 2,326,-1
 1425 738 l 1,327,328
 1436 766 1436 766 1436 797 c 2,329,-1
 1436 810 l 1,330,331
 1444 835 1444 835 1444 848 c 2,332,-1
 1425 916 l 1,333,-1
 1427 951 l 2,334,335
 1427 979 1427 979 1392 1075 c 1,336,337
 1360 1149 1360 1149 1299 1205 c 1,338,339
 1253 1274 1253 1274 1191 1295 c 0,340,341
 1051 1342 1051 1342 955 1342 c 2,342,-1
 938 1342 l 2,343,344
 888 1342 888 1342 810 1315 c 0,345,346
 766 1299 766 1299 708 1251 c 1,347,348
 659 1189 659 1189 625 1110 c 1,349,350
 616 1076 616 1076 609 991 c 1,251,-1
1619 1337 m 1,351,352
 1638 1322 1638 1322 1638 1313 c 1,353,-1
 1614 1291 l 1,354,-1
 1610 1291 l 2,355,356
 1607 1291 1607 1291 1592 1308 c 1,357,-1
 1592 1311 l 2,358,359
 1592 1314 1592 1314 1619 1337 c 1,351,352
916 1319 m 1,360,361
 1061 1319 1061 1319 1173 1278 c 1,362,363
 1259 1231 1259 1231 1273 1207 c 1,364,365
 1299 1185 1299 1185 1332 1108 c 1,366,367
 1364 1072 1364 1072 1392 956 c 1,368,-1
 1392 954 l 2,369,370
 1392 947 1392 947 1389 912 c 1,371,372
 1398 886 1398 886 1403 857 c 0,373,374
 1406 857 1406 857 1409 850 c 2,375,-1
 1409 846 l 2,376,377
 1409 830 1409 830 1398 828 c 1,378,-1
 1403 806 l 1,379,380
 1403 770 1403 770 1383 731 c 1,381,382
 1392 730 1392 730 1392 724 c 2,383,-1
 1392 718 l 2,384,385
 1392 715 1392 715 1385 711 c 1,386,-1
 1372 711 l 1,387,388
 1372 704 1372 704 1365 691 c 1,389,390
 1375 691 1375 691 1387 625 c 1,391,-1
 1387 616 l 1,392,393
 1383 583 1383 583 1383 568 c 1,394,395
 1397 552 1397 552 1407 506 c 0,396,397
 1407 504 1407 504 1409 489 c 2,398,-1
 1407 473 l 1,399,400
 1411 451 1411 451 1411 447 c 256,401,402
 1411 443 1411 443 1403 416 c 1,403,404
 1414 397 1414 397 1414 387 c 0,405,406
 1414 376 1414 376 1394 323 c 1,407,408
 1394 286 1394 286 1381 255 c 1,409,410
 1381 219 1381 219 1359 187 c 1,411,412
 1344 175 1344 175 1328 105 c 0,413,414
 1328 100 1328 100 1301 44 c 1,415,-1
 1301 41 l 2,416,417
 1301 40 1301 40 1303 33 c 1,418,419
 1291 -3 1291 -3 1264 -3 c 0,420,421
 1245 -3 1245 -3 1206 -36 c 1,422,423
 1177 -36 1177 -36 1145 -60 c 1,424,-1
 1035 -71 l 1,425,-1
 1032 -71 l 2,426,427
 1011 -71 1011 -71 966 -45 c 1,428,429
 966 -35 966 -35 927 -25 c 1,430,431
 918 -15 918 -15 918 6 c 0,432,433
 918 9 918 9 920 28 c 1,434,435
 863 42 863 42 863 63 c 1,436,437
 847 83 847 83 847 96 c 0,438,439
 847 100 847 100 852 110 c 1,440,441
 833 110 833 110 801 169 c 1,442,443
 776 169 776 169 766 191 c 0,444,445
 766 197 766 197 741 215 c 1,446,-1
 724 268 l 1,447,448
 700 279 700 279 700 326 c 0,449,450
 697 334 697 334 697 343 c 2,451,-1
 697 345 l 2,452,453
 697 348 697 348 700 348 c 1,454,-1
 697 352 l 1,455,456
 700 401 700 401 700 405 c 0,457,458
 693 449 693 449 693 460 c 2,459,-1
 695 471 l 1,460,-1
 689 504 l 1,461,462
 666 512 666 512 603 647 c 1,463,464
 587 711 587 711 587 755 c 2,465,-1
 587 764 l 2,466,467
 587 819 587 819 634 832 c 1,468,-1
 649 832 l 1,469,-1
 649 835 l 2,470,471
 649 865 649 865 645 901 c 1,472,473
 647 922 647 922 647 940 c 0,474,475
 647 961 647 961 645 991 c 0,476,477
 645 1146 645 1146 739 1238 c 0,478,479
 789 1290 789 1290 854 1311 c 0,480,481
 860 1311 860 1311 916 1319 c 1,360,361
667 1015 m 0,482,483
 667 1013 667 1013 669 1009 c 0,484,485
 664 997 664 997 664 985 c 0,486,487
 664 969 664 969 667 936 c 1,488,489
 664 906 664 906 664 899 c 0,490,491
 669 843 669 843 669 828 c 1,492,493
 722 808 722 808 722 784 c 1,494,-1
 724 784 l 1,495,496
 724 793 724 793 735 799 c 1,497,-1
 739 799 l 1,498,-1
 753 788 l 1,499,500
 783 793 783 793 792 793 c 1,501,-1
 799 784 l 1,502,-1
 799 780 l 1,503,504
 770 657 770 657 770 603 c 1,505,506
 781 580 781 580 788 550 c 1,507,508
 814 537 814 537 814 517 c 1,509,510
 843 513 843 513 843 482 c 1,511,-1
 869 484 l 1,512,-1
 900 482 l 1,513,514
 916 491 916 491 922 491 c 0,515,516
 925 491 925 491 929 484 c 1,517,518
 924 468 924 468 924 464 c 0,519,520
 929 450 929 450 929 445 c 0,521,522
 927 440 927 440 927 438 c 0,523,524
 953 421 953 421 953 405 c 2,525,-1
 953 396 l 1,526,527
 973 396 973 396 982 363 c 1,528,529
 975 336 975 336 975 328 c 0,530,531
 977 316 977 316 977 310 c 1,532,-1
 979 310 l 1,533,534
 1000 358 1000 358 1041 414 c 0,535,536
 1068 456 1068 456 1085 497 c 1,537,-1
 1092 497 l 2,538,539
 1098 497 1098 497 1098 489 c 0,540,541
 1095 464 1095 464 1065 420 c 1,542,-1
 1068 420 l 1,543,544
 1119 432 1119 432 1121 445 c 0,545,546
 1125 445 1125 445 1129 447 c 0,547,548
 1148 445 1148 445 1160 445 c 0,549,550
 1164 445 1164 445 1187 453 c 1,551,-1
 1187 456 l 1,552,-1
 1180 456 l 2,553,554
 1171 456 1171 456 1151 451 c 1,555,556
 1107 461 1107 461 1107 486 c 2,557,-1
 1107 493 l 2,558,559
 1109 506 1109 506 1114 506 c 2,560,-1
 1121 506 l 2,561,562
 1125 506 1125 506 1127 482 c 1,563,564
 1139 471 1139 471 1147 471 c 0,565,566
 1175 475 1175 475 1182 475 c 0,567,568
 1231 451 1231 451 1253 451 c 0,569,570
 1290 451 1290 451 1290 495 c 0,571,572
 1290 557 1290 557 1264 603 c 1,573,574
 1251 661 1251 661 1251 700 c 2,575,-1
 1251 705 l 2,576,577
 1251 733 1251 733 1299 780 c 1,578,579
 1316 780 1316 780 1365 846 c 0,580,581
 1368 846 1368 846 1383 854 c 1,582,583
 1378 888 1378 888 1370 912 c 1,584,585
 1372 934 1372 934 1372 947 c 2,586,-1
 1372 951 l 1,587,588
 1355 1033 1355 1033 1334 1070 c 2,589,-1
 1297 1137 l 1,590,591
 1282 1150 1282 1150 1259 1189 c 1,592,593
 1205 1245 1205 1245 1147 1264 c 0,594,595
 1027 1300 1027 1300 982 1300 c 2,596,-1
 960 1300 l 1,597,-1
 946 1297 l 2,598,599
 943 1300 943 1300 938 1300 c 0,600,601
 811 1282 811 1282 792 1251 c 1,602,603
 754 1220 754 1220 715 1172 c 0,604,605
 667 1115 667 1115 667 1015 c 0,482,483
307 1207 m 2,606,607
 307 1198 307 1198 349 1165 c 1,608,609
 351 1156 351 1156 351 1150 c 1,610,-1
 371 1152 l 1,611,612
 398 1126 398 1126 420 1126 c 1,613,614
 454 1148 454 1148 475 1192 c 1,615,-1
 475 1200 l 2,616,617
 475 1215 475 1215 435 1242 c 1,618,-1
 435 1258 l 1,619,-1
 431 1258 l 1,620,-1
 415 1256 l 1,621,622
 384 1284 384 1284 367 1284 c 0,623,624
 343 1284 343 1284 307 1216 c 1,625,-1
 307 1207 l 2,606,607
880 1260 m 1,626,627
 909 1251 909 1251 909 1234 c 2,628,-1
 909 1227 l 1,629,630
 905 1218 905 1218 858 1194 c 1,631,-1
 849 1194 l 1,632,633
 827 1203 827 1203 827 1220 c 2,634,-1
 827 1223 l 2,635,636
 827 1247 827 1247 880 1260 c 1,626,627
845 1216 m 1,637,-1
 849 1214 l 1,638,-1
 856 1214 l 1,639,-1
 889 1234 l 1,640,641
 887 1240 887 1240 876 1240 c 0,642,643
 845 1232 845 1232 845 1216 c 1,637,-1
365 1240 m 2,644,-1
 371 1240 l 1,645,646
 429 1199 429 1199 433 1189 c 1,647,648
 424 1172 424 1172 418 1170 c 2,649,-1
 413 1170 l 1,650,651
 349 1213 349 1213 349 1220 c 0,652,653
 359 1237 359 1237 365 1240 c 2,644,-1
781 1189 m 2,654,-1
 788 1189 l 2,655,656
 808 1187 808 1187 808 1170 c 2,657,-1
 808 1161 l 2,658,659
 808 1151 808 1151 779 1117 c 1,660,661
 766 1035 766 1035 724 1035 c 1,662,663
 706 1042 706 1042 706 1064 c 2,664,-1
 706 1084 l 2,665,666
 706 1138 706 1138 768 1185 c 0,667,668
 775 1189 775 1189 781 1189 c 2,654,-1
1614 1167 m 2,669,-1
 1614 1165 l 2,670,671
 1614 1152 1614 1152 1630 1141 c 1,672,-1
 1638 1141 l 1,673,674
 1652 1149 1652 1149 1652 1152 c 2,675,-1
 1652 1156 l 1,676,677
 1646 1181 1646 1181 1632 1181 c 1,678,679
 1615 1172 1615 1172 1614 1167 c 2,669,-1
724 1081 m 2,680,-1
 724 1064 l 1,681,-1
 726 1053 l 1,682,-1
 730 1053 l 2,683,684
 748 1053 748 1053 764 1128 c 1,685,686
 785 1151 785 1151 792 1163 c 1,687,-1
 792 1167 l 2,688,689
 792 1171 792 1171 786 1174 c 1,690,691
 756 1162 756 1162 733 1119 c 0,692,693
 724 1098 724 1098 724 1081 c 2,680,-1
1740 1132 m 0,694,695
 1733 1134 1733 1134 1724 1134 c 1,696,697
 1724 1116 1724 1116 1660 1090 c 1,698,699
 1701 1016 1701 1016 1711 991 c 1,700,701
 1736 1002 1736 1002 1742 1009 c 1,702,-1
 1711 1070 l 1,703,-1
 1733 1081 l 1,704,705
 1755 1046 1755 1046 1755 1040 c 1,706,707
 1761 1040 1761 1040 1786 1053 c 1,708,709
 1786 1061 1786 1061 1766 1095 c 1,710,-1
 1766 1097 l 2,711,712
 1766 1102 1766 1102 1788 1108 c 1,713,-1
 1790 1108 l 1,714,715
 1801 1081 1801 1081 1821 1048 c 1,716,717
 1846 1062 1846 1062 1850 1062 c 1,718,719
 1850 1072 1850 1072 1799 1161 c 1,720,721
 1746 1132 1746 1132 1740 1132 c 0,694,695
246 1132 m 1,722,723
 246 1126 246 1126 232 1097 c 1,724,725
 328 1057 328 1057 336 1051 c 1,726,-1
 336 1048 l 1,727,728
 329 1026 329 1026 321 1026 c 0,729,730
 303 1026 303 1026 299 1048 c 1,731,732
 288 1042 288 1042 281 1042 c 2,733,-1
 219 1068 l 1,734,-1
 206 1031 l 1,735,-1
 206 1029 l 1,736,737
 272 1008 272 1008 272 989 c 2,738,-1
 272 987 l 1,739,740
 283 993 283 993 290 993 c 0,741,742
 306 991 306 991 307 985 c 0,743,744
 302 960 302 960 296 960 c 2,745,-1
 294 960 l 1,746,-1
 191 1000 l 1,747,-1
 191 998 l 1,748,749
 177 967 177 967 177 962 c 1,750,751
 243 940 243 940 243 929 c 2,752,-1
 243 923 l 1,753,-1
 246 923 l 2,754,755
 248 923 248 923 263 927 c 1,756,-1
 292 916 l 1,757,758
 349 936 349 936 349 976 c 0,759,760
 349 981 349 981 343 993 c 1,761,762
 366 1002 366 1002 373 1024 c 0,763,764
 373 1030 373 1030 378 1037 c 1,765,766
 365 1090 365 1090 351 1090 c 0,767,768
 327 1097 327 1097 327 1115 c 1,769,770
 316 1108 316 1108 312 1108 c 2,771,-1
 248 1132 l 1,772,-1
 246 1132 l 1,722,723
1828 996 m 1,773,774
 1828 985 1828 985 1797 971 c 1,775,-1
 1793 956 l 1,776,-1
 1793 954 l 2,777,778
 1793 940 1793 940 1804 905 c 1,779,780
 1795 899 1795 899 1784 899 c 0,781,782
 1777 899 1777 899 1773 925 c 1,783,784
 1788 930 1788 930 1788 934 c 0,785,786
 1777 966 1777 966 1777 969 c 1,787,788
 1735 961 1735 961 1735 940 c 2,789,-1
 1735 927 l 1,790,791
 1746 854 1746 854 1779 854 c 1,792,-1
 1790 857 l 1,793,794
 1790 853 1790 853 1804 848 c 1,795,796
 1804 859 1804 859 1837 874 c 1,797,-1
 1841 890 l 1,798,-1
 1841 892 l 2,799,800
 1841 907 1841 907 1830 940 c 1,801,802
 1843 949 1843 949 1852 949 c 1,803,804
 1861 936 1861 936 1861 923 c 0,805,806
 1860 916 1860 916 1846 916 c 1,807,-1
 1857 877 l 1,808,809
 1901 885 1901 885 1901 910 c 0,810,811
 1888 991 1888 991 1859 991 c 2,812,-1
 1854 991 l 2,813,814
 1849 991 1849 991 1846 989 c 0,815,816
 1837 996 1837 996 1828 996 c 1,773,774
1162 991 m 0,817,818
 1181 991 1181 991 1240 971 c 1,819,-1
 1244 971 l 2,820,821
 1251 971 1251 971 1288 985 c 0,822,823
 1291 985 1291 985 1295 978 c 1,824,-1
 1295 971 l 2,825,826
 1295 961 1295 961 1235 951 c 0,827,828
 1226 951 1226 951 1180 969 c 1,829,-1
 1160 971 l 1,830,-1
 1127 965 l 1,831,-1
 1125 965 l 2,832,833
 1121 965 1121 965 1121 969 c 2,834,-1
 1121 976 l 2,835,836
 1121 987 1121 987 1162 991 c 0,817,818
973 978 m 2,837,-1
 979 978 l 2,838,839
 993 978 993 978 1050 956 c 1,840,841
 1076 953 1076 953 1076 947 c 2,842,-1
 1076 940 l 2,843,844
 1074 934 1074 934 1063 934 c 0,845,846
 1047 934 1047 934 988 958 c 0,847,848
 979 958 979 958 979 960 c 1,849,850
 959 960 959 960 929 936 c 1,851,-1
 922 936 l 2,852,853
 919 936 919 936 916 943 c 2,854,-1
 916 949 l 1,855,856
 945 978 945 978 973 978 c 2,837,-1
979 921 m 2,857,-1
 986 921 l 1,858,859
 1043 916 1043 916 1043 907 c 0,860,861
 1039 897 1039 897 1035 896 c 2,862,-1
 1021 896 l 2,863,864
 1013 896 1013 896 982 903 c 1,865,866
 946 903 946 903 916 859 c 1,867,-1
 913 859 l 2,868,869
 905 862 905 862 905 866 c 2,870,-1
 905 868 l 1,871,872
 925 921 925 921 979 921 c 2,857,-1
1220 896 m 2,873,-1
 1226 896 l 2,874,875
 1232 896 1232 896 1303 892 c 1,876,-1
 1303 890 l 1,877,-1
 1325 894 l 1,878,879
 1334 891 1334 891 1334 888 c 2,880,-1
 1334 881 l 2,881,882
 1334 874 1334 874 1312 870 c 1,883,884
 1251 877 1251 877 1233 877 c 2,885,-1
 1231 877 l 2,886,887
 1220 877 1220 877 1198 874 c 1,888,-1
 1195 879 l 1,889,-1
 1195 885 l 2,890,891
 1195 893 1195 893 1220 896 c 2,873,-1
964 870 m 2,892,-1
 973 870 l 2,893,894
 1012 870 1012 870 1103 839 c 1,895,896
 1156 807 1156 807 1156 791 c 2,897,-1
 1156 782 l 1,898,899
 1148 769 1148 769 1136 769 c 2,900,-1
 1132 769 l 2,901,902
 1120 769 1120 769 1052 799 c 1,903,904
 1033 799 1033 799 1008 802 c 1,905,906
 1008 798 1008 798 1002 795 c 2,907,-1
 979 795 l 2,908,909
 964 795 964 795 887 773 c 1,910,-1
 883 773 l 1,911,-1
 876 782 l 1,912,913
 877 798 877 798 929 854 c 0,914,915
 948 870 948 870 964 870 c 2,892,-1
618 804 m 1,916,-1
 618 802 l 1,917,918
 692 802 692 802 719 689 c 1,919,-1
 722 689 l 1,920,-1
 722 696 l 2,921,922
 722 701 722 701 719 705 c 1,923,924
 722 707 722 707 722 751 c 1,925,926
 711 751 711 751 700 793 c 1,927,928
 674 813 674 813 649 813 c 2,929,-1
 640 813 l 2,930,931
 635 813 635 813 618 804 c 1,916,-1
1378 810 m 1,932,933
 1372 795 1372 795 1297 755 c 1,934,-1
 1286 738 l 1,935,-1
 1288 738 l 1,936,937
 1303 744 1303 744 1319 744 c 2,938,-1
 1325 744 l 2,939,940
 1339 744 1339 744 1363 735 c 1,941,942
 1383 765 1383 765 1383 808 c 1,943,-1
 1378 810 l 1,932,933
607 780 m 1,944,-1
 607 749 l 2,945,946
 607 658 607 658 653 590 c 1,947,948
 670 545 670 545 697 524 c 1,949,950
 706 539 706 539 706 546 c 2,951,-1
 706 557 l 1,952,-1
 695 619 l 1,953,954
 703 671 703 671 708 683 c 1,955,956
 700 683 700 683 689 731 c 1,957,958
 655 784 655 784 627 784 c 0,959,960
 624 784 624 784 607 780 c 1,944,-1
202 782 m 1,961,-1
 202 740 l 1,962,-1
 195 731 l 1,963,-1
 202 722 l 1,964,-1
 202 683 l 1,965,-1
 224 683 l 1,966,-1
 224 724 l 1,967,-1
 228 724 l 1,968,-1
 246 685 l 2,969,970
 250 685 250 685 265 722 c 1,971,-1
 270 722 l 1,972,-1
 270 683 l 1,973,-1
 292 683 l 1,974,-1
 292 722 l 1,975,-1
 299 731 l 1,976,-1
 292 740 l 1,977,-1
 292 782 l 1,978,-1
 272 782 l 2,979,980
 268 782 268 782 250 740 c 1,981,-1
 243 740 l 1,982,983
 243 745 243 745 226 782 c 1,984,-1
 202 782 l 1,961,-1
323 782 m 1,985,-1
 323 742 l 2,986,987
 323 741 323 741 314 731 c 1,988,989
 323 728 323 728 323 716 c 2,990,-1
 323 683 l 1,991,-1
 343 683 l 1,992,-1
 343 724 l 1,993,-1
 345 724 l 2,994,995
 350 724 350 724 365 685 c 1,996,-1
 389 724 l 1,997,-1
 391 724 l 1,998,-1
 391 683 l 1,999,-1
 411 683 l 1,1000,-1
 411 722 l 1,1001,-1
 420 733 l 1,1002,1003
 411 733 411 733 411 740 c 2,1004,-1
 411 782 l 1,1005,-1
 391 782 l 2,1006,1007
 387 782 387 782 369 740 c 1,1008,-1
 367 740 l 2,1009,1010
 362 740 362 740 345 782 c 1,1011,-1
 323 782 l 1,985,-1
435 782 m 1,1012,-1
 435 780 l 2,1013,1014
 435 777 435 777 459 733 c 1,1015,1016
 435 686 435 686 435 683 c 1,1017,-1
 459 683 l 2,1018,1019
 464 683 464 683 470 702 c 1,1020,-1
 473 702 l 2,1021,1022
 478 702 478 702 484 683 c 1,1023,-1
 510 683 l 1,1024,-1
 510 685 l 1,1025,1026
 488 727 488 727 488 733 c 2,1027,-1
 510 782 l 1,1028,-1
 484 782 l 1,1029,1030
 478 762 478 762 473 762 c 2,1031,-1
 470 762 l 1,1032,1033
 464 782 464 782 459 782 c 2,1034,-1
 435 782 l 1,1012,-1
1475 782 m 1,1035,-1
 1475 742 l 1,1036,1037
 1467 732 1467 732 1467 731 c 0,1038,1039
 1475 728 1475 728 1475 716 c 2,1040,-1
 1475 683 l 1,1041,-1
 1495 683 l 1,1042,-1
 1495 724 l 1,1043,-1
 1497 724 l 2,1044,1045
 1503 724 1503 724 1517 685 c 1,1046,-1
 1541 724 l 1,1047,-1
 1544 724 l 1,1048,-1
 1544 683 l 1,1049,-1
 1563 683 l 1,1050,-1
 1563 722 l 1,1051,-1
 1572 733 l 1,1052,1053
 1563 733 1563 733 1563 740 c 2,1054,-1
 1563 782 l 1,1055,-1
 1544 782 l 2,1056,1057
 1539 782 1539 782 1522 740 c 1,1058,-1
 1519 740 l 2,1059,1060
 1515 740 1515 740 1497 782 c 1,1061,-1
 1475 782 l 1,1035,-1
1594 782 m 1,1062,-1
 1594 742 l 1,1063,-1
 1586 731 l 1,1064,1065
 1594 728 1594 728 1594 716 c 2,1066,-1
 1594 683 l 1,1067,-1
 1614 683 l 1,1068,-1
 1614 724 l 1,1069,-1
 1616 724 l 2,1070,1071
 1622 724 1622 724 1636 685 c 1,1072,-1
 1660 724 l 1,1073,-1
 1663 724 l 1,1074,-1
 1663 683 l 1,1075,-1
 1682 683 l 1,1076,-1
 1682 722 l 1,1077,-1
 1691 733 l 1,1078,1079
 1682 733 1682 733 1682 740 c 2,1080,-1
 1682 782 l 1,1081,-1
 1663 782 l 2,1082,1083
 1658 782 1658 782 1641 740 c 1,1084,-1
 1638 740 l 2,1085,1086
 1634 740 1634 740 1616 782 c 1,1087,-1
 1594 782 l 1,1062,-1
1707 782 m 1,1088,1089
 1731 735 1731 735 1731 731 c 2,1090,-1
 1707 683 l 1,1091,-1
 1731 683 l 2,1092,1093
 1736 683 1736 683 1742 702 c 1,1094,-1
 1744 702 l 2,1095,1096
 1749 702 1749 702 1755 683 c 1,1097,-1
 1784 683 l 1,1098,1099
 1760 729 1760 729 1760 733 c 2,1100,-1
 1784 782 l 1,1101,-1
 1755 782 l 1,1102,1103
 1749 762 1749 762 1744 762 c 2,1104,-1
 1742 762 l 1,1105,1106
 1736 782 1736 782 1731 782 c 2,1107,-1
 1707 782 l 1,1088,1089
1801 782 m 1,1108,1109
 1826 735 1826 735 1826 731 c 2,1110,-1
 1801 683 l 1,1111,-1
 1826 683 l 2,1112,1113
 1831 683 1831 683 1837 702 c 1,1114,-1
 1839 702 l 2,1115,1116
 1844 702 1844 702 1850 683 c 1,1117,-1
 1879 683 l 1,1118,1119
 1854 729 1854 729 1854 733 c 2,1120,-1
 1879 782 l 1,1121,-1
 1850 782 l 1,1122,1123
 1844 762 1844 762 1839 762 c 2,1124,-1
 1837 762 l 1,1125,1126
 1831 782 1831 782 1826 782 c 2,1127,-1
 1801 782 l 1,1108,1109
1021 777 m 1,1128,1129
 1082 770 1082 770 1087 755 c 1,1130,-1
 1087 749 l 2,1131,1132
 1087 746 1087 746 1081 742 c 1,1133,1134
 1046 758 1046 758 1024 758 c 2,1135,-1
 1021 758 l 1,1136,1137
 962 747 962 747 962 733 c 1,1138,1139
 957 727 957 727 955 727 c 2,1140,-1
 949 727 l 2,1141,1142
 942 729 942 729 942 740 c 0,1143,1144
 942 763 942 763 1021 777 c 1,1128,1129
649 753 m 0,1145,1146
 658 750 658 750 662 742 c 1,1147,-1
 653 669 l 1,1148,1149
 658 630 658 630 669 630 c 1,1150,-1
 678 634 l 1,1151,1152
 686 631 686 631 686 628 c 2,1153,-1
 686 621 l 2,1154,1155
 686 618 686 618 675 610 c 1,1156,-1
 667 610 l 2,1157,1158
 641 610 641 610 634 669 c 1,1159,1160
 640 710 640 710 640 727 c 2,1161,-1
 640 735 l 1,1162,-1
 638 747 l 1,1163,1164
 645 753 645 753 649 753 c 0,1145,1146
1030 749 m 256,1165,1166
 1076 749 1076 749 1112 709 c 1,1167,-1
 1112 702 l 1,1168,1169
 1082 665 1082 665 1028 665 c 1,1170,1171
 951 678 951 678 951 711 c 2,1172,-1
 951 716 l 1,1173,1174
 984 749 984 749 1030 749 c 256,1165,1166
1125 740 m 1,1175,-1
 1132 740 l 1,1176,1177
 1156 721 1156 721 1156 705 c 0,1178,1179
 1153 683 1153 683 1143 683 c 0,1180,1181
 1134 686 1134 686 1134 689 c 2,1182,-1
 1134 709 l 1,1183,-1
 1118 727 l 1,1184,-1
 1118 733 l 2,1185,1186
 1118 736 1118 736 1125 740 c 1,1175,-1
1035 729 m 1,1187,1188
 1039 722 1039 722 1039 716 c 2,1189,-1
 1039 705 l 2,1190,1191
 1039 699 1039 699 1035 685 c 1,1192,-1
 1037 685 l 1,1193,1194
 1085 690 1085 690 1085 709 c 1,1195,1196
 1058 729 1058 729 1035 729 c 1,1187,1188
1321 727 m 1,1197,1198
 1325 718 1325 718 1325 713 c 0,1199,1200
 1323 700 1323 700 1317 689 c 1,1201,-1
 1319 689 l 2,1202,1203
 1354 689 1354 689 1354 718 c 1,1204,1205
 1337 727 1337 727 1321 727 c 1,1197,1198
973 711 m 1,1206,-1
 973 707 l 1,1207,-1
 975 707 l 1,1208,-1
 975 711 l 1,1209,-1
 973 711 l 1,1206,-1
1270 705 m 1,1210,-1
 1270 696 l 2,1211,1212
 1271 691 1271 691 1275 691 c 1,1213,-1
 1275 694 l 1,1214,-1
 1273 705 l 1,1215,-1
 1270 705 l 1,1210,-1
675 696 m 0,1216,1217
 681 696 681 696 689 691 c 1,1218,1219
 684 676 684 676 684 667 c 2,1220,-1
 686 647 l 1,1221,-1
 678 643 l 1,1222,1223
 666 643 666 643 662 669 c 1,1224,1225
 667 696 667 696 675 696 c 0,1216,1217
1118 687 m 2,1226,-1
 1125 687 l 2,1227,1228
 1128 687 1128 687 1132 680 c 1,1229,-1
 1132 678 l 2,1230,1231
 1132 660 1132 660 1092 616 c 1,1232,-1
 1090 616 l 2,1233,1234
 1084 616 1084 616 1079 628 c 1,1235,-1
 1112 674 l 1,1236,1237
 1114 687 1114 687 1118 687 c 2,1226,-1
1297 669 m 2,1238,-1
 1281 669 l 1,1239,-1
 1270 672 l 1,1240,1241
 1272 628 1272 628 1306 548 c 1,1242,1243
 1308 519 1308 519 1308 502 c 2,1244,-1
 1308 493 l 2,1245,1246
 1308 474 1308 474 1299 460 c 1,1247,1248
 1309 460 1309 460 1341 431 c 1,1249,-1
 1343 431 l 1,1250,1251
 1343 435 1343 435 1354 506 c 2,1252,-1
 1367 632 l 2,1253,1254
 1366 652 1366 652 1361 652 c 1,1255,1256
 1361 617 1361 617 1323 590 c 1,1257,-1
 1319 590 l 2,1258,1259
 1316 590 1316 590 1312 597 c 1,1260,-1
 1312 601 l 1,1261,1262
 1345 632 1345 632 1345 669 c 2,1263,-1
 1345 676 l 1,1264,1265
 1318 669 1318 669 1297 669 c 2,1238,-1
1187 645 m 2,1266,-1
 1195 645 l 2,1267,1268
 1201 645 1201 645 1202 628 c 2,1269,-1
 1200 616 l 1,1270,-1
 1206 586 l 1,1271,-1
 1206 581 l 2,1272,1273
 1204 575 1204 575 1193 575 c 0,1274,1275
 1183 575 1183 575 1180 634 c 2,1276,-1
 1180 639 l 2,1277,1278
 1180 642 1180 642 1187 645 c 2,1266,-1
933 643 m 2,1279,-1
 942 643 l 1,1280,1281
 971 610 971 610 1008 610 c 2,1282,-1
 1019 610 l 2,1283,1284
 1030 610 1030 610 1068 621 c 1,1285,-1
 1070 616 l 1,1286,-1
 1070 608 l 1,1287,1288
 1056 590 1056 590 1017 590 c 1,1289,1290
 929 602 929 602 929 636 c 2,1291,-1
 929 639 l 2,1292,1293
 930 643 930 643 933 643 c 2,1279,-1
1806 628 m 1,1294,1295
 1804 602 1804 602 1804 590 c 1,1296,1297
 1809 590 1809 590 1832 570 c 0,1298,1299
 1832 567 1832 567 1799 553 c 1,1300,-1
 1795 517 l 1,1301,1302
 1863 550 1863 550 1868 550 c 2,1303,-1
 1876 550 l 1,1304,-1
 1887 539 l 2,1305,1306
 1891 539 1891 539 1896 548 c 1,1307,-1
 1912 546 l 1,1308,-1
 1920 546 l 1,1309,-1
 1920 559 l 1,1310,-1
 1923 575 l 1,1311,1312
 1900 575 1900 575 1892 588 c 1,1313,1314
 1881 582 1881 582 1881 579 c 1,1315,1316
 1865 579 1865 579 1826 614 c 1,1317,-1
 1806 628 l 1,1294,1295
226 612 m 1,1318,1319
 226 603 226 603 197 594 c 1,1320,-1
 193 579 l 1,1321,1322
 195 547 195 547 195 544 c 0,1323,1324
 188 539 188 539 182 539 c 2,1325,-1
 180 539 l 2,1326,1327
 174 539 174 539 173 561 c 1,1328,1329
 178 566 178 566 186 566 c 1,1330,1331
 185 597 185 597 182 597 c 0,1332,1333
 146 597 146 597 146 575 c 0,1334,1335
 146 509 146 509 171 509 c 0,1336,1337
 177 509 177 509 188 500 c 1,1338,1339
 188 509 188 509 217 515 c 1,1340,-1
 224 535 l 2,1341,1342
 224 540 224 540 219 566 c 1,1343,1344
 229 572 229 572 237 572 c 1,1345,1346
 241 567 241 567 243 550 c 1,1347,1348
 230 545 230 545 230 544 c 0,1349,1350
 230 542 230 542 232 515 c 1,1351,-1
 235 515 l 2,1352,1353
 270 515 270 515 270 537 c 0,1354,1355
 270 603 270 603 243 603 c 0,1356,1357
 237 603 237 603 228 612 c 1,1358,-1
 226 612 l 1,1318,1319
1132 594 m 2,1359,-1
 1138 594 l 2,1360,1361
 1141 594 1141 594 1145 588 c 1,1362,1363
 1129 531 1129 531 1118 531 c 2,1364,-1
 1114 531 l 2,1365,1366
 1111 531 1111 531 1107 539 c 1,1367,1368
 1126 592 1126 592 1132 594 c 2,1359,-1
1160 544 m 0,1369,1370
 1189 535 1189 535 1189 526 c 2,1371,-1
 1189 520 l 2,1372,1373
 1189 515 1189 515 1184 515 c 2,1374,-1
 1180 515 l 1,1375,1376
 1151 524 1151 524 1151 531 c 2,1377,-1
 1151 537 l 2,1378,1379
 1151 543 1151 543 1160 544 c 0,1369,1370
1775 425 m 1,1380,1381
 1830 413 1830 413 1830 405 c 2,1382,-1
 1830 401 l 1,1383,-1
 1841 407 l 1,1384,1385
 1877 401 1877 401 1892 401 c 1,1386,-1
 1898 427 l 1,1387,1388
 1871 434 1871 434 1865 434 c 1,1389,-1
 1865 436 l 2,1390,1391
 1868 439 1868 439 1905 453 c 1,1392,-1
 1912 484 l 1,1393,1394
 1875 473 1875 473 1868 473 c 1,1395,1396
 1868 497 1868 497 1819 504 c 1,1397,-1
 1808 504 l 2,1398,1399
 1786 504 1786 504 1775 425 c 1,1380,1381
224 480 m 1,1400,1401
 224 483 224 483 215 486 c 1,1402,1403
 215 472 215 472 164 462 c 0,1404,1405
 162 462 162 462 162 460 c 0,1406,1407
 166 434 166 434 171 434 c 0,1408,1409
 198 440 198 440 208 440 c 1,1410,1411
 216 392 216 392 230 392 c 2,1412,-1
 232 392 l 1,1413,1414
 294 396 294 396 294 420 c 2,1415,-1
 294 425 l 1,1416,-1
 279 491 l 1,1417,1418
 234 480 234 480 224 480 c 1,1400,1401
1815 471 m 0,1419,1420
 1841 471 1841 471 1841 460 c 0,1421,1422
 1840 442 1840 442 1835 442 c 0,1423,1424
 1808 445 1808 445 1808 453 c 0,1425,1426
 1809 471 1809 471 1815 471 c 0,1419,1420
259 453 m 1,1427,1428
 265 441 265 441 265 431 c 1,1429,1430
 258 425 258 425 237 425 c 1,1431,1432
 230 438 230 438 230 447 c 1,1433,1434
 249 453 249 453 259 453 c 1,1427,1428
1742 330 m 1,1435,1436
 1742 311 1742 311 1784 299 c 1,1437,1438
 1788 286 1788 286 1790 286 c 0,1439,1440
 1801 293 1801 293 1804 293 c 0,1441,1442
 1812 287 1812 287 1837 282 c 1,1443,1444
 1859 282 1859 282 1872 343 c 1,1445,-1
 1872 348 l 2,1446,1447
 1872 364 1872 364 1832 376 c 1,1448,1449
 1831 387 1831 387 1826 387 c 2,1450,-1
 1819 383 l 1,1451,-1
 1815 383 l 1,1452,-1
 1777 394 l 1,1453,1454
 1758 394 1758 394 1742 330 c 1,1435,1436
257 374 m 0,1455,1456
 251 374 251 374 243 378 c 1,1457,1458
 243 368 243 368 224 359 c 1,1459,1460
 193 352 193 352 193 343 c 0,1461,1462
 202 319 202 319 204 319 c 0,1463,1464
 239 334 239 334 246 334 c 0,1465,1466
 251 334 251 334 257 308 c 1,1467,1468
 217 293 217 293 215 293 c 1,1469,-1
 215 290 l 1,1470,1471
 221 264 221 264 226 264 c 0,1472,1473
 267 279 267 279 274 279 c 0,1474,1475
 277 277 277 277 285 277 c 1,1476,1477
 285 290 285 290 336 306 c 1,1478,-1
 336 310 l 1,1479,1480
 312 368 312 368 305 392 c 1,1481,1482
 262 374 262 374 257 374 c 0,1455,1456
1782 359 m 0,1483,1484
 1792 359 1792 359 1841 339 c 1,1485,-1
 1841 337 l 2,1486,1487
 1838 315 1838 315 1832 315 c 0,1488,1489
 1773 336 1773 336 1773 339 c 0,1490,1491
 1777 359 1777 359 1782 359 c 0,1483,1484
290 352 m 0,1492,1493
 295 346 295 346 301 326 c 1,1494,1495
 288 319 288 319 283 319 c 1,1496,1497
 275 330 275 330 272 345 c 1,1498,1499
 285 352 285 352 290 352 c 0,1492,1493
1187 317 m 2,1500,-1
 1182 319 l 1,1501,1502
 1170 313 1170 313 1140 310 c 1,1503,1504
 1131 297 1131 297 1110 297 c 0,1505,1506
 1106 297 1106 297 1096 301 c 1,1507,1508
 1084 295 1084 295 1079 295 c 1,1509,1510
 1079 290 1079 290 1083 290 c 2,1511,-1
 1121 290 l 1,1512,1513
 1259 305 1259 305 1259 328 c 1,1514,1515
 1237 330 1237 330 1226 330 c 2,1516,-1
 1224 330 l 1,1517,1518
 1194 317 1194 317 1187 317 c 2,1500,-1
1729 304 m 1,1519,-1
 1687 220 l 1,1520,1521
 1701 211 1701 211 1711 211 c 1,1522,1523
 1722 231 1722 231 1722 235 c 1,1524,-1
 1724 235 l 1,1525,1526
 1751 231 1751 231 1751 211 c 1,1527,1528
 1758 215 1758 215 1764 215 c 0,1529,1530
 1769 215 1769 215 1808 193 c 1,1531,-1
 1810 193 l 1,1532,1533
 1821 218 1821 218 1821 222 c 0,1534,1535
 1775 240 1775 240 1775 257 c 1,1536,1537
 1766 253 1766 253 1762 253 c 0,1538,1539
 1740 263 1740 263 1740 266 c 0,1540,1541
 1751 285 1751 285 1751 295 c 1,1542,1543
 1735 304 1735 304 1729 304 c 1,1519,-1
301 259 m 2,1544,1545
 297 259 297 259 288 264 c 1,1546,1547
 288 246 288 246 241 226 c 1,1548,1549
 250 206 250 206 257 200 c 1,1550,1551
 303 226 303 226 310 226 c 1,1552,1553
 299 204 299 204 277 167 c 0,1554,1555
 277 160 277 160 290 138 c 1,1556,-1
 334 163 l 2,1557,1558
 336 160 336 160 347 160 c 1,1559,1560
 347 176 347 176 387 191 c 0,1561,1562
 393 196 393 196 393 200 c 0,1563,1564
 382 219 382 219 382 222 c 1,1565,-1
 329 198 l 1,1566,-1
 329 200 l 1,1567,-1
 360 255 l 1,1568,1569
 360 265 360 265 345 284 c 1,1570,-1
 301 259 l 2,1544,1545
1233 262 m 1,1571,1572
 1235 226 1235 226 1242 226 c 2,1573,-1
 1246 226 l 2,1574,1575
 1253 229 1253 229 1253 240 c 2,1576,-1
 1253 248 l 2,1577,1578
 1253 260 1253 260 1244 264 c 1,1579,-1
 1237 264 l 1,1580,-1
 1233 262 l 1,1571,1572
1198 253 m 1,1581,1582
 1193 248 1193 248 1191 229 c 1,1583,1584
 1194 213 1194 213 1202 213 c 0,1585,1586
 1206 215 1206 215 1209 215 c 1,1587,-1
 1209 242 l 2,1588,1589
 1209 244 1209 244 1211 244 c 1,1590,1591
 1209 253 1209 253 1198 253 c 1,1581,1582
1149 242 m 1,1592,-1
 1151 220 l 1,1593,-1
 1151 207 l 2,1594,1595
 1151 203 1151 203 1158 200 c 2,1596,-1
 1162 200 l 2,1597,1598
 1167 200 1167 200 1167 204 c 2,1599,-1
 1167 233 l 1,1600,-1
 1165 244 l 1,1601,-1
 1154 244 l 1,1602,-1
 1149 242 l 1,1592,-1
1678 207 m 1,1603,-1
 1627 134 l 2,1604,1605
 1627 132 1627 132 1669 101 c 1,1606,-1
 1669 90 l 1,1607,-1
 1682 92 l 1,1608,1609
 1697 83 1697 83 1724 63 c 1,1610,-1
 1727 63 l 1,1611,1612
 1727 67 1727 67 1742 88 c 1,1613,-1
 1705 116 l 1,1614,1615
 1716 138 1716 138 1722 138 c 0,1616,1617
 1733 132 1733 132 1757 114 c 1,1618,-1
 1762 114 l 1,1619,1620
 1762 117 1762 117 1777 138 c 1,1621,1622
 1736 165 1736 165 1735 169 c 2,1623,-1
 1735 180 l 1,1624,-1
 1733 180 l 1,1625,-1
 1718 178 l 1,1626,1627
 1714 184 1714 184 1678 207 c 1,1603,-1
1229 156 m 0,1628,1629
 1229 152 1229 152 1233 152 c 2,1630,-1
 1244 152 l 1,1631,1632
 1248 176 1248 176 1248 187 c 0,1633,1634
 1246 191 1246 191 1246 193 c 1,1635,-1
 1237 193 l 2,1636,1637
 1229 193 1229 193 1229 156 c 0,1628,1629
369 145 m 1,1638,-1
 356 147 l 1,1639,1640
 356 129 356 129 329 118 c 0,1641,1642
 329 116 329 116 314 105 c 1,1643,1644
 329 81 329 81 332 81 c 2,1645,-1
 373 110 l 1,1646,-1
 387 107 l 1,1647,-1
 387 118 l 1,1648,-1
 429 152 l 1,1649,1650
 413 173 413 173 413 176 c 1,1651,1652
 411 176 411 176 369 145 c 1,1638,-1
1171 156 m 2,1653,-1
 1171 136 l 2,1654,1655
 1172 132 1172 132 1176 132 c 2,1656,-1
 1182 132 l 2,1657,1658
 1189 132 1189 132 1189 160 c 2,1659,-1
 1189 174 l 1,1660,-1
 1178 174 l 2,1661,1662
 1171 172 1171 172 1171 156 c 2,1653,-1
1682 165 m 2,1663,-1
 1685 165 l 1,1664,1665
 1698 157 1698 157 1698 154 c 0,1666,1667
 1686 134 1686 134 1680 132 c 1,1668,1669
 1667 140 1667 140 1667 143 c 2,1670,-1
 1667 145 l 1,1671,1672
 1679 164 1679 164 1682 165 c 2,1663,-1
426 110 m 1,1673,-1
 418 110 l 1,1674,-1
 413 112 l 1,1675,1676
 413 95 413 95 402 83 c 1,1677,-1
 402 74 l 2,1678,1679
 402 63 402 63 426 37 c 1,1680,-1
 426 35 l 2,1681,1682
 426 32 426 32 415 24 c 1,1683,-1
 413 24 l 2,1684,1685
 409 24 409 24 400 39 c 1,1686,-1
 400 41 l 1,1687,-1
 407 50 l 1,1688,1689
 388 72 388 72 387 72 c 0,1690,1691
 369 59 369 59 367 52 c 2,1692,-1
 367 44 l 2,1693,1694
 367 25 367 25 411 -9 c 1,1695,-1
 424 -9 l 1,1696,1697
 432 -3 432 -3 440 -3 c 2,1698,-1
 442 -3 l 1,1699,-1
 446 -5 l 1,1700,1701
 446 9 446 9 459 24 c 1,1702,-1
 459 33 l 2,1703,1704
 459 43 459 43 435 70 c 1,1705,-1
 435 72 l 2,1706,1707
 435 75 435 75 446 83 c 1,1708,-1
 448 83 l 1,1709,1710
 462 75 462 75 462 63 c 1,1711,1712
 458 63 458 63 455 57 c 0,1713,1714
 455 56 455 56 475 35 c 1,1715,1716
 495 49 495 49 495 61 c 2,1717,-1
 495 63 l 2,1718,1719
 495 82 495 82 451 116 c 1,1720,-1
 442 116 l 2,1721,1722
 434 116 434 116 426 110 c 1,1673,-1
1204 112 m 2,1723,-1
 1204 94 l 1,1724,-1
 1206 83 l 1,1725,-1
 1213 83 l 1,1726,1727
 1222 87 1222 87 1222 99 c 2,1728,-1
 1222 103 l 2,1729,1730
 1222 114 1222 114 1215 116 c 2,1731,-1
 1209 116 l 2,1732,1733
 1204 116 1204 116 1204 112 c 2,1723,-1
1557 55 m 1,1734,-1
 1557 50 l 1,1735,1736
 1561 50 1561 50 1594 17 c 1,1737,-1
 1594 6 l 1,1738,-1
 1605 6 l 2,1739,1740
 1608 6 1608 6 1643 -27 c 1,1741,-1
 1647 -27 l 1,1742,1743
 1647 -23 1647 -23 1665 -5 c 1,1744,1745
 1643 17 1643 17 1638 17 c 1,1746,-1
 1638 21 l 1,1747,-1
 1682 13 l 1,1748,-1
 1705 37 l 1,1749,1750
 1670 46 1670 46 1660 50 c 1,1751,1752
 1665 59 1665 59 1665 66 c 1,1753,1754
 1636 107 1636 107 1619 107 c 2,1755,-1
 1614 107 l 2,1756,1757
 1601 107 1601 107 1557 55 c 1,1734,-1
1160 37 m 1,1758,-1
 1165 35 l 1,1759,-1
 1171 35 l 1,1760,1761
 1176 39 1176 39 1184 68 c 0,1762,1763
 1182 72 1182 72 1182 74 c 1,1764,-1
 1171 74 l 2,1765,1766
 1165 74 1165 74 1160 37 c 1,1758,-1
1614 74 m 0,1767,1768
 1624 71 1624 71 1632 59 c 1,1769,-1
 1632 52 l 2,1770,1771
 1632 49 1632 49 1619 39 c 1,1772,1773
 1597 56 1597 56 1597 59 c 0,1774,1775
 1608 74 1608 74 1614 74 c 0,1767,1768
1200 30 m 2,1776,-1
 1200 21 l 2,1777,1778
 1200 18 1200 18 1206 15 c 2,1779,-1
 1211 15 l 2,1780,1781
 1217 15 1217 15 1220 44 c 1,1782,-1
 1213 48 l 1,1783,-1
 1209 48 l 2,1784,1785
 1203 48 1203 48 1200 30 c 2,1776,-1
475 4 m 1,1786,-1
 477 -1 l 1,1787,-1
 477 -12 l 1,1788,-1
 446 -49 l 1,1789,1790
 465 -68 465 -68 470 -69 c 1,1791,1792
 491 -41 491 -41 501 -34 c 1,1793,1794
 521 -49 521 -49 521 -51 c 2,1795,-1
 521 -53 l 1,1796,1797
 503 -74 503 -74 492 -89 c 1,1798,-1
 492 -91 l 1,1799,1800
 496 -91 496 -91 517 -109 c 1,1801,1802
 517 -104 517 -104 550 -69 c 1,1803,-1
 561 -69 l 1,1804,-1
 561 -56 l 1,1805,1806
 592 -18 592 -18 592 -14 c 2,1807,-1
 570 4 l 1,1808,-1
 567 4 l 1,1809,1810
 567 -1 567 -1 539 -31 c 1,1811,1812
 519 -16 519 -16 519 -14 c 2,1813,-1
 519 -12 l 2,1814,1815
 519 -10 519 -10 545 21 c 1,1816,-1
 545 24 l 2,1817,1818
 545 25 545 25 526 41 c 1,1819,-1
 523 41 l 1,1820,1821
 492 4 492 4 484 4 c 2,1822,-1
 475 4 l 1,1786,-1
1480 -20 m 2,1823,-1
 1480 -25 l 2,1824,1825
 1480 -33 1480 -33 1502 -60 c 1,1826,-1
 1502 -69 l 1,1827,-1
 1500 -73 l 1,1828,1829
 1518 -73 1518 -73 1526 -86 c 0,1830,1831
 1526 -93 1526 -93 1541 -102 c 1,1832,-1
 1550 -102 l 2,1833,1834
 1569 -102 1569 -102 1603 -60 c 0,1835,1836
 1605 -56 1605 -56 1605 -53 c 0,1837,1838
 1605 -44 1605 -44 1583 -18 c 1,1839,-1
 1583 -9 l 1,1840,-1
 1586 -5 l 1,1841,1842
 1566 -5 1566 -5 1552 19 c 1,1843,1844
 1542 28 1542 28 1533 28 c 1,1845,1846
 1480 -1 1480 -1 1480 -20 c 2,1823,-1
1533 -5 m 1,1847,1848
 1570 -50 1570 -50 1570 -58 c 1,1849,1850
 1558 -69 1558 -69 1557 -69 c 2,1851,-1
 1552 -69 l 2,1852,1853
 1550 -68 1550 -68 1513 -23 c 1,1854,-1
 1513 -18 l 1,1855,1856
 1525 -5 1525 -5 1533 -5 c 1,1847,1848
1385 -71 m 1,1857,-1
 1385 -75 l 1,1858,-1
 1409 -115 l 1,1859,-1
 1407 -131 l 1,1860,1861
 1425 -131 1425 -131 1440 -168 c 0,1862,1863
 1444 -168 1444 -168 1444 -175 c 1,1864,1865
 1513 -144 1513 -144 1513 -124 c 2,1866,-1
 1513 -120 l 2,1867,1868
 1513 -109 1513 -109 1486 -75 c 1,1869,1870
 1471 -36 1471 -36 1453 -36 c 0,1871,1872
 1444 -36 1444 -36 1385 -71 c 1,1857,-1
1447 -69 m 0,1873,1874
 1453 -71 1453 -71 1453 -82 c 1,1875,1876
 1444 -95 1444 -95 1433 -95 c 1,1877,-1
 1425 -80 l 1,1878,1879
 1439 -69 1439 -69 1447 -69 c 0,1873,1874
684 -75 m 1,1880,1881
 667 -124 667 -124 649 -124 c 1,1882,1883
 653 -131 653 -131 653 -137 c 0,1884,1885
 653 -142 653 -142 634 -183 c 1,1886,-1
 636 -183 l 1,1887,1888
 656 -194 656 -194 662 -194 c 1,1889,-1
 680 -155 l 1,1890,-1
 682 -155 l 2,1891,1892
 689 -155 689 -155 717 -170 c 1,1893,1894
 717 -166 717 -166 728 -146 c 1,1895,1896
 714 -141 714 -141 693 -128 c 1,1897,1898
 701 -111 701 -111 704 -111 c 0,1899,1900
 746 -133 746 -133 753 -133 c 2,1901,-1
 755 -133 l 1,1902,1903
 755 -126 755 -126 764 -111 c 1,1904,1905
 686 -73 686 -73 684 -73 c 1,1906,-1
 684 -75 l 1,1880,1881
1277 -122 m 1,1907,1908
 1297 -164 1297 -164 1297 -170 c 0,1909,1910
 1297 -174 1297 -174 1292 -181 c 1,1911,1912
 1308 -181 1308 -181 1323 -232 c 1,1913,1914
 1352 -224 1352 -224 1352 -219 c 0,1915,1916
 1336 -185 1336 -185 1336 -175 c 1,1917,1918
 1359 -166 1359 -166 1361 -166 c 0,1919,1920
 1380 -208 1380 -208 1383 -208 c 2,1921,-1
 1409 -197 l 1,1922,-1
 1389 -153 l 1,1923,-1
 1394 -137 l 1,1924,1925
 1378 -137 1378 -137 1363 -86 c 1,1926,1927
 1358 -86 1358 -86 1277 -122 c 1,1907,1908
1467 -109 m 1,1928,-1
 1471 -109 l 2,1929,1930
 1474 -109 1474 -109 1480 -120 c 1,1931,-1
 1480 -122 l 2,1932,1933
 1477 -128 1477 -128 1460 -137 c 1,1934,-1
 1451 -124 l 1,1935,-1
 1451 -120 l 2,1936,1937
 1451 -117 1451 -117 1467 -109 c 1,1928,-1
748 -172 m 0,1938,1939
 753 -180 753 -180 753 -186 c 0,1940,1941
 746 -210 746 -210 746 -214 c 2,1942,-1
 746 -219 l 2,1943,1944
 746 -240 746 -240 803 -250 c 1,1945,-1
 812 -250 l 2,1946,1947
 830 -250 830 -250 838 -210 c 1,1948,1949
 849 -205 849 -205 849 -203 c 0,1950,1951
 845 -196 845 -196 845 -190 c 0,1952,1953
 854 -158 854 -158 854 -155 c 0,1954,1955
 854 -133 854 -133 786 -122 c 0,1956,1957
 771 -122 771 -122 759 -166 c 1,1958,1959
 748 -170 748 -170 748 -172 c 0,1938,1939
1343 -124 m 2,1960,-1
 1345 -124 l 1,1961,1962
 1350 -138 1350 -138 1350 -142 c 2,1963,-1
 1325 -153 l 1,1964,1965
 1320 -146 1320 -146 1317 -135 c 1,1966,1967
 1334 -124 1334 -124 1343 -124 c 2,1960,-1
1187 -148 m 2,1968,-1
 1198 -197 l 1,1969,-1
 1191 -208 l 1,1970,-1
 1191 -210 l 1,1971,1972
 1207 -210 1207 -210 1215 -263 c 1,1973,-1
 1217 -263 l 1,1974,-1
 1295 -243 l 1,1975,1976
 1288 -222 1288 -222 1288 -219 c 1,1977,-1
 1240 -230 l 1,1978,1979
 1233 -214 1233 -214 1233 -203 c 1,1980,1981
 1236 -203 1236 -203 1240 -194 c 1,1982,1983
 1224 -194 1224 -194 1217 -146 c 0,1984,1985
 1215 -146 1215 -146 1215 -139 c 1,1986,1987
 1187 -145 1187 -145 1187 -148 c 2,1968,-1
880 -148 m 1,1988,1989
 874 -205 874 -205 863 -205 c 0,1990,1991
 860 -205 860 -205 860 -208 c 0,1992,1993
 865 -209 865 -209 869 -219 c 1,1994,-1
 863 -267 l 1,1995,-1
 865 -267 l 2,1996,1997
 866 -267 866 -267 894 -269 c 1,1998,-1
 894 -267 l 1,1999,-1
 900 -212 l 1,2000,-1
 902 -212 l 1,2001,2002
 906 -217 906 -217 933 -276 c 1,2003,2004
 956 -280 956 -280 962 -280 c 1,2005,2006
 962 -231 962 -231 979 -225 c 1,2007,2008
 975 -215 975 -215 971 -214 c 1,2009,-1
 979 -161 l 1,2010,-1
 949 -157 l 1,2011,2012
 943 -214 943 -214 938 -214 c 1,2013,2014
 912 -150 912 -150 905 -150 c 0,2015,2016
 889 -148 889 -148 880 -148 c 1,1988,1989
799 -153 m 0,2017,2018
 821 -155 821 -155 821 -161 c 0,2019,2020
 805 -221 805 -221 797 -221 c 0,2021,2022
 779 -217 779 -217 779 -212 c 0,2023,2024
 793 -153 793 -153 799 -153 c 0,2017,2018
988 -161 m 1,2025,-1
 988 -188 l 1,2026,-1
 1019 -188 l 2,2027,2028
 1024 -189 1024 -189 1024 -192 c 2,2029,-1
 1024 -205 l 2,2030,2031
 1024 -215 1024 -215 1013 -223 c 1,2032,-1
 1013 -225 l 1,2033,2034
 1019 -225 1019 -225 1024 -234 c 1,2035,-1
 1024 -283 l 1,2036,-1
 1054 -283 l 1,2037,-1
 1054 -232 l 1,2038,-1
 1063 -223 l 1,2039,-1
 1052 -210 l 1,2040,-1
 1052 -190 l 2,2041,2042
 1053 -186 1053 -186 1057 -186 c 2,2043,-1
 1085 -186 l 1,2044,-1
 1085 -161 l 1,2045,-1
 988 -161 l 1,2025,-1
EndSplineSet
Validated: 129
EndChar

StartChar: registered
Encoding: 174 174 110
Width: 2076
GlyphClass: 1
Flags: W
LayerCount: 2
Fore
SplineSet
1035 1661 m 0,0,1
 1404 1661 1404 1661 1698 1377 c 1,2,3
 1825 1236 1825 1236 1879 1119 c 0,4,5
 1982 899 1982 899 1982 680 c 2,6,-1
 1982 645 l 2,7,8
 1982 263 1982 263 1700 -49 c 1,9,10
 1406 -336 1406 -336 1035 -336 c 0,11,12
 649 -336 649 -336 351 -31 c 1,13,14
 85 272 85 272 85 665 c 0,15,16
 85 1064 85 1064 365 1370 c 1,17,18
 657 1661 657 1661 1035 1661 c 0,0,1
1008 1615 m 1,19,20
 1013 1536 1013 1536 1013 1505 c 0,21,22
 1015 1500 1015 1500 1015 1498 c 2,23,-1
 1006 1491 l 1,24,-1
 988 1491 l 2,25,26
 977 1491 977 1491 977 1606 c 1,27,28
 975 1606 975 1606 975 1613 c 1,29,30
 953 1610 953 1610 942 1610 c 2,31,-1
 935 1610 l 1,32,33
 938 1596 938 1596 940 1542 c 1,34,35
 937 1542 937 1542 927 1529 c 1,36,37
 942 1522 942 1522 942 1509 c 2,38,-1
 942 1487 l 2,39,40
 942 1456 942 1456 973 1456 c 2,41,-1
 977 1456 l 2,42,43
 1052 1456 1052 1456 1052 1476 c 0,44,45
 1052 1478 1052 1478 1054 1489 c 0,46,47
 1052 1512 1052 1512 1052 1524 c 1,48,49
 1055 1524 1055 1524 1065 1538 c 1,50,51
 1059 1538 1059 1538 1050 1551 c 1,52,-1
 1050 1555 l 2,53,54
 1050 1574 1050 1574 1048 1615 c 1,55,-1
 1008 1615 l 1,19,20
1121 1610 m 1,56,57
 1118 1605 1118 1605 1114 1577 c 1,58,59
 1154 1574 1154 1574 1154 1566 c 0,60,61
 1154 1536 1154 1536 1134 1527 c 1,62,63
 1137 1527 1137 1527 1145 1513 c 1,64,65
 1136 1453 1136 1453 1134 1449 c 1,66,67
 1148 1449 1148 1449 1173 1443 c 1,68,69
 1180 1516 1180 1516 1200 1516 c 1,70,-1
 1189 1531 l 1,71,72
 1191 1554 1191 1554 1195 1564 c 1,73,74
 1230 1557 1230 1557 1235 1557 c 1,75,-1
 1235 1560 l 2,76,77
 1235 1567 1235 1567 1240 1591 c 1,78,79
 1135 1610 1135 1610 1121 1610 c 1,56,57
761 1551 m 0,80,81
 761 1537 761 1537 772 1502 c 1,82,83
 769 1502 769 1502 764 1491 c 1,84,-1
 764 1487 l 1,85,86
 782 1487 782 1487 790 1441 c 1,87,88
 800 1425 800 1425 816 1425 c 0,89,90
 896 1440 896 1440 896 1458 c 2,91,-1
 896 1467 l 2,92,93
 896 1478 896 1478 889 1502 c 1,94,95
 854 1491 854 1491 849 1491 c 1,96,97
 854 1481 854 1481 854 1472 c 1,98,99
 843 1465 843 1465 825 1465 c 1,100,101
 819 1479 819 1479 819 1496 c 1,102,103
 825 1498 825 1498 825 1509 c 1,104,105
 807 1509 807 1509 803 1544 c 1,106,107
 810 1549 810 1549 830 1553 c 1,108,109
 836 1545 836 1545 836 1535 c 1,110,-1
 876 1546 l 1,111,112
 869 1591 869 1591 845 1591 c 2,113,-1
 836 1591 l 1,114,115
 761 1579 761 1579 761 1551 c 0,80,81
1292 1573 m 1,116,117
 1281 1547 1281 1547 1281 1544 c 0,118,119
 1319 1530 1319 1530 1319 1527 c 0,120,121
 1309 1491 1309 1491 1290 1491 c 1,122,123
 1297 1480 1297 1480 1297 1474 c 0,124,125
 1277 1423 1277 1423 1277 1414 c 1,126,127
 1306 1401 1306 1401 1312 1401 c 1,128,129
 1331 1467 1331 1467 1352 1467 c 1,130,131
 1345 1478 1345 1478 1345 1485 c 0,132,133
 1353 1513 1353 1513 1359 1513 c 0,134,135
 1388 1500 1388 1500 1394 1500 c 1,136,-1
 1407 1531 l 1,137,138
 1305 1573 1305 1573 1292 1575 c 1,139,-1
 1292 1573 l 1,116,117
574 1483 m 1,140,141
 601 1434 601 1434 605 1421 c 1,142,-1
 600 1405 l 1,143,144
 623 1405 623 1405 634 1370 c 0,145,146
 636 1370 636 1370 649 1346 c 1,147,148
 737 1386 737 1386 737 1408 c 0,149,150
 737 1420 737 1420 715 1456 c 1,151,152
 719 1464 719 1464 719 1474 c 1,153,154
 699 1474 699 1474 691 1502 c 1,155,156
 680 1524 680 1524 658 1524 c 0,157,158
 649 1524 649 1524 574 1483 c 1,140,141
1467 1498 m 1,159,160
 1433 1441 1433 1441 1427 1441 c 0,161,162
 1415 1438 1415 1438 1414 1438 c 1,163,164
 1414 1434 1414 1434 1418 1423 c 1,165,166
 1383 1369 1383 1369 1383 1366 c 0,167,168
 1468 1308 1468 1308 1475 1308 c 1,169,170
 1489 1329 1489 1329 1489 1337 c 1,171,172
 1439 1368 1439 1368 1433 1377 c 1,173,174
 1447 1394 1447 1394 1449 1394 c 2,175,-1
 1451 1394 l 1,176,-1
 1489 1370 l 2,177,178
 1493 1372 1493 1372 1508 1399 c 1,179,180
 1469 1420 1469 1420 1469 1427 c 0,181,182
 1477 1444 1477 1444 1484 1447 c 1,183,184
 1486 1443 1486 1443 1539 1410 c 0,185,186
 1544 1411 1544 1411 1559 1438 c 1,187,188
 1554 1440 1554 1440 1467 1498 c 1,159,160
653 1483 m 0,189,190
 656 1483 656 1483 693 1414 c 1,191,-1
 693 1412 l 1,192,193
 679 1397 679 1397 667 1397 c 1,194,195
 635 1451 635 1451 627 1472 c 1,196,197
 647 1483 647 1483 653 1483 c 0,189,190
429 1353 m 2,198,199
 429 1342 429 1342 462 1304 c 1,200,-1
 459 1289 l 1,201,-1
 475 1289 l 1,202,203
 508 1251 508 1251 521 1251 c 0,204,205
 544 1251 544 1251 589 1306 c 1,206,-1
 592 1317 l 2,207,208
 592 1327 592 1327 561 1364 c 1,209,-1
 561 1366 l 1,210,-1
 563 1379 l 1,211,-1
 548 1379 l 1,212,213
 512 1419 512 1419 497 1419 c 0,214,215
 477 1419 477 1419 431 1364 c 1,216,-1
 429 1353 l 2,198,199
1614 1390 m 1,217,218
 1614 1387 1614 1387 1566 1342 c 1,219,-1
 1555 1344 l 1,220,-1
 1550 1344 l 1,221,-1
 1550 1326 l 1,222,-1
 1506 1280 l 2,223,224
 1506 1277 1506 1277 1533 1253 c 1,225,-1
 1566 1284 l 1,226,-1
 1568 1284 l 1,227,228
 1555 1233 1555 1233 1555 1229 c 2,229,-1
 1586 1200 l 1,230,-1
 1601 1256 l 1,231,232
 1617 1251 1617 1251 1619 1251 c 2,233,-1
 1623 1251 l 2,234,235
 1642 1251 1642 1251 1680 1304 c 1,236,-1
 1680 1311 l 2,237,238
 1680 1332 1680 1332 1614 1390 c 1,217,218
490 1375 m 1,239,-1
 495 1375 l 1,240,241
 511 1360 511 1360 548 1315 c 1,242,-1
 548 1311 l 2,243,244
 548 1308 548 1308 530 1295 c 1,245,-1
 526 1295 l 1,246,247
 510 1308 510 1308 473 1355 c 1,248,-1
 473 1359 l 2,249,250
 473 1361 473 1361 490 1375 c 1,239,-1
609 991 m 1,251,-1
 611 976 l 1,252,-1
 611 861 l 1,253,254
 552 839 552 839 552 760 c 0,255,256
 552 675 552 675 581 608 c 0,257,258
 585 606 585 606 627 522 c 1,259,260
 660 480 660 480 660 473 c 2,261,-1
 660 469 l 1,262,-1
 658 453 l 1,263,264
 660 428 660 428 667 396 c 1,265,266
 662 384 662 384 662 361 c 0,267,268
 664 345 664 345 664 343 c 2,269,-1
 662 339 l 1,270,271
 669 262 669 262 680 262 c 1,272,273
 702 243 702 243 702 213 c 1,274,275
 710 192 710 192 741 167 c 1,276,277
 757 136 757 136 779 136 c 1,278,279
 814 86 814 86 814 81 c 0,280,281
 844 8 844 8 872 8 c 0,282,283
 883 8 883 8 889 -34 c 1,284,285
 905 -57 905 -57 944 -69 c 1,286,287
 961 -90 961 -90 1017 -104 c 0,288,289
 1030 -104 1030 -104 1032 -106 c 0,290,291
 1066 -100 1066 -100 1145 -98 c 1,292,293
 1169 -89 1169 -89 1191 -73 c 1,294,295
 1225 -73 1225 -73 1262 -38 c 1,296,297
 1330 -38 1330 -38 1339 44 c 1,298,299
 1356 67 1356 67 1378 156 c 1,300,301
 1416 197 1416 197 1416 257 c 1,302,303
 1429 277 1429 277 1429 301 c 2,304,-1
 1429 317 l 1,305,306
 1449 367 1449 367 1449 390 c 0,307,308
 1447 409 1447 409 1442 416 c 1,309,310
 1444 438 1444 438 1444 451 c 2,311,-1
 1444 460 l 2,312,313
 1444 467 1444 467 1442 471 c 0,314,315
 1444 480 1444 480 1444 486 c 0,316,317
 1444 527 1444 527 1418 581 c 1,318,319
 1420 605 1420 605 1422 605 c 1,320,-1
 1420 610 l 1,321,-1
 1420 632 l 2,322,323
 1420 652 1420 652 1409 685 c 1,324,325
 1427 699 1427 699 1427 722 c 2,326,-1
 1425 738 l 1,327,328
 1436 766 1436 766 1436 797 c 2,329,-1
 1436 810 l 1,330,331
 1444 835 1444 835 1444 848 c 2,332,-1
 1425 916 l 1,333,-1
 1427 951 l 2,334,335
 1427 979 1427 979 1392 1075 c 1,336,337
 1360 1149 1360 1149 1299 1205 c 1,338,339
 1253 1274 1253 1274 1191 1295 c 0,340,341
 1051 1342 1051 1342 955 1342 c 2,342,-1
 938 1342 l 2,343,344
 888 1342 888 1342 810 1315 c 0,345,346
 766 1299 766 1299 708 1251 c 1,347,348
 659 1189 659 1189 625 1110 c 1,349,350
 616 1076 616 1076 609 991 c 1,251,-1
1619 1337 m 1,351,352
 1638 1322 1638 1322 1638 1313 c 1,353,-1
 1614 1291 l 1,354,-1
 1610 1291 l 2,355,356
 1607 1291 1607 1291 1592 1308 c 1,357,-1
 1592 1311 l 2,358,359
 1592 1314 1592 1314 1619 1337 c 1,351,352
916 1319 m 1,360,361
 1061 1319 1061 1319 1173 1278 c 1,362,363
 1259 1231 1259 1231 1273 1207 c 1,364,365
 1299 1185 1299 1185 1332 1108 c 1,366,367
 1364 1072 1364 1072 1392 956 c 1,368,-1
 1392 954 l 2,369,370
 1392 947 1392 947 1389 912 c 1,371,372
 1398 886 1398 886 1403 857 c 0,373,374
 1406 857 1406 857 1409 850 c 2,375,-1
 1409 846 l 2,376,377
 1409 830 1409 830 1398 828 c 1,378,-1
 1403 806 l 1,379,380
 1403 770 1403 770 1383 731 c 1,381,382
 1392 730 1392 730 1392 724 c 2,383,-1
 1392 718 l 2,384,385
 1392 715 1392 715 1385 711 c 1,386,-1
 1372 711 l 1,387,388
 1372 704 1372 704 1365 691 c 1,389,390
 1375 691 1375 691 1387 625 c 1,391,-1
 1387 616 l 1,392,393
 1383 583 1383 583 1383 568 c 1,394,395
 1397 552 1397 552 1407 506 c 0,396,397
 1407 504 1407 504 1409 489 c 2,398,-1
 1407 473 l 1,399,400
 1411 451 1411 451 1411 447 c 256,401,402
 1411 443 1411 443 1403 416 c 1,403,404
 1414 397 1414 397 1414 387 c 0,405,406
 1414 376 1414 376 1394 323 c 1,407,408
 1394 286 1394 286 1381 255 c 1,409,410
 1381 219 1381 219 1359 187 c 1,411,412
 1344 175 1344 175 1328 105 c 0,413,414
 1328 100 1328 100 1301 44 c 1,415,-1
 1301 41 l 2,416,417
 1301 40 1301 40 1303 33 c 1,418,419
 1291 -3 1291 -3 1264 -3 c 0,420,421
 1245 -3 1245 -3 1206 -36 c 1,422,423
 1177 -36 1177 -36 1145 -60 c 1,424,-1
 1035 -71 l 1,425,-1
 1032 -71 l 2,426,427
 1011 -71 1011 -71 966 -45 c 1,428,429
 966 -35 966 -35 927 -25 c 1,430,431
 918 -15 918 -15 918 6 c 0,432,433
 918 9 918 9 920 28 c 1,434,435
 863 42 863 42 863 63 c 1,436,437
 847 83 847 83 847 96 c 0,438,439
 847 100 847 100 852 110 c 1,440,441
 833 110 833 110 801 169 c 1,442,443
 776 169 776 169 766 191 c 0,444,445
 766 197 766 197 741 215 c 1,446,-1
 724 268 l 1,447,448
 700 279 700 279 700 326 c 0,449,450
 697 334 697 334 697 343 c 2,451,-1
 697 345 l 2,452,453
 697 348 697 348 700 348 c 1,454,-1
 697 352 l 1,455,456
 700 401 700 401 700 405 c 0,457,458
 693 449 693 449 693 460 c 2,459,-1
 695 471 l 1,460,-1
 689 504 l 1,461,462
 666 512 666 512 603 647 c 1,463,464
 587 711 587 711 587 755 c 2,465,-1
 587 764 l 2,466,467
 587 819 587 819 634 832 c 1,468,-1
 649 832 l 1,469,-1
 649 835 l 2,470,471
 649 865 649 865 645 901 c 1,472,473
 647 922 647 922 647 940 c 0,474,475
 647 961 647 961 645 991 c 0,476,477
 645 1146 645 1146 739 1238 c 0,478,479
 789 1290 789 1290 854 1311 c 0,480,481
 860 1311 860 1311 916 1319 c 1,360,361
667 1015 m 0,482,483
 667 1013 667 1013 669 1009 c 0,484,485
 664 997 664 997 664 985 c 0,486,487
 664 969 664 969 667 936 c 1,488,489
 664 906 664 906 664 899 c 0,490,491
 669 843 669 843 669 828 c 1,492,493
 722 808 722 808 722 784 c 1,494,-1
 724 784 l 1,495,496
 724 793 724 793 735 799 c 1,497,-1
 739 799 l 1,498,-1
 753 788 l 1,499,500
 783 793 783 793 792 793 c 1,501,-1
 799 784 l 1,502,-1
 799 780 l 1,503,504
 770 657 770 657 770 603 c 1,505,506
 781 580 781 580 788 550 c 1,507,508
 814 537 814 537 814 517 c 1,509,510
 843 513 843 513 843 482 c 1,511,-1
 869 484 l 1,512,-1
 900 482 l 1,513,514
 916 491 916 491 922 491 c 0,515,516
 925 491 925 491 929 484 c 1,517,518
 924 468 924 468 924 464 c 0,519,520
 929 450 929 450 929 445 c 0,521,522
 927 440 927 440 927 438 c 0,523,524
 953 421 953 421 953 405 c 2,525,-1
 953 396 l 1,526,527
 973 396 973 396 982 363 c 1,528,529
 975 336 975 336 975 328 c 0,530,531
 977 316 977 316 977 310 c 1,532,-1
 979 310 l 1,533,534
 1000 358 1000 358 1041 414 c 0,535,536
 1068 456 1068 456 1085 497 c 1,537,-1
 1092 497 l 2,538,539
 1098 497 1098 497 1098 489 c 0,540,541
 1095 464 1095 464 1065 420 c 1,542,-1
 1068 420 l 1,543,544
 1119 432 1119 432 1121 445 c 0,545,546
 1125 445 1125 445 1129 447 c 0,547,548
 1148 445 1148 445 1160 445 c 0,549,550
 1164 445 1164 445 1187 453 c 1,551,-1
 1187 456 l 1,552,-1
 1180 456 l 2,553,554
 1171 456 1171 456 1151 451 c 1,555,556
 1107 461 1107 461 1107 486 c 2,557,-1
 1107 493 l 2,558,559
 1109 506 1109 506 1114 506 c 2,560,-1
 1121 506 l 2,561,562
 1125 506 1125 506 1127 482 c 1,563,564
 1139 471 1139 471 1147 471 c 0,565,566
 1175 475 1175 475 1182 475 c 0,567,568
 1231 451 1231 451 1253 451 c 0,569,570
 1290 451 1290 451 1290 495 c 0,571,572
 1290 557 1290 557 1264 603 c 1,573,574
 1251 661 1251 661 1251 700 c 2,575,-1
 1251 705 l 2,576,577
 1251 733 1251 733 1299 780 c 1,578,579
 1316 780 1316 780 1365 846 c 0,580,581
 1368 846 1368 846 1383 854 c 1,582,583
 1378 888 1378 888 1370 912 c 1,584,585
 1372 934 1372 934 1372 947 c 2,586,-1
 1372 951 l 1,587,588
 1355 1033 1355 1033 1334 1070 c 2,589,-1
 1297 1137 l 1,590,591
 1282 1150 1282 1150 1259 1189 c 1,592,593
 1205 1245 1205 1245 1147 1264 c 0,594,595
 1027 1300 1027 1300 982 1300 c 2,596,-1
 960 1300 l 1,597,-1
 946 1297 l 2,598,599
 943 1300 943 1300 938 1300 c 0,600,601
 811 1282 811 1282 792 1251 c 1,602,603
 754 1220 754 1220 715 1172 c 0,604,605
 667 1115 667 1115 667 1015 c 0,482,483
307 1207 m 2,606,607
 307 1198 307 1198 349 1165 c 1,608,609
 351 1156 351 1156 351 1150 c 1,610,-1
 371 1152 l 1,611,612
 398 1126 398 1126 420 1126 c 1,613,614
 454 1148 454 1148 475 1192 c 1,615,-1
 475 1200 l 2,616,617
 475 1215 475 1215 435 1242 c 1,618,-1
 435 1258 l 1,619,-1
 431 1258 l 1,620,-1
 415 1256 l 1,621,622
 384 1284 384 1284 367 1284 c 0,623,624
 343 1284 343 1284 307 1216 c 1,625,-1
 307 1207 l 2,606,607
880 1260 m 1,626,627
 909 1251 909 1251 909 1234 c 2,628,-1
 909 1227 l 1,629,630
 905 1218 905 1218 858 1194 c 1,631,-1
 849 1194 l 1,632,633
 827 1203 827 1203 827 1220 c 2,634,-1
 827 1223 l 2,635,636
 827 1247 827 1247 880 1260 c 1,626,627
845 1216 m 1,637,-1
 849 1214 l 1,638,-1
 856 1214 l 1,639,-1
 889 1234 l 1,640,641
 887 1240 887 1240 876 1240 c 0,642,643
 845 1232 845 1232 845 1216 c 1,637,-1
365 1240 m 2,644,-1
 371 1240 l 1,645,646
 429 1199 429 1199 433 1189 c 1,647,648
 424 1172 424 1172 418 1170 c 2,649,-1
 413 1170 l 1,650,651
 349 1213 349 1213 349 1220 c 0,652,653
 359 1237 359 1237 365 1240 c 2,644,-1
781 1189 m 2,654,-1
 788 1189 l 2,655,656
 808 1187 808 1187 808 1170 c 2,657,-1
 808 1161 l 2,658,659
 808 1151 808 1151 779 1117 c 1,660,661
 766 1035 766 1035 724 1035 c 1,662,663
 706 1042 706 1042 706 1064 c 2,664,-1
 706 1084 l 2,665,666
 706 1138 706 1138 768 1185 c 0,667,668
 775 1189 775 1189 781 1189 c 2,654,-1
1614 1167 m 2,669,-1
 1614 1165 l 2,670,671
 1614 1152 1614 1152 1630 1141 c 1,672,-1
 1638 1141 l 1,673,674
 1652 1149 1652 1149 1652 1152 c 2,675,-1
 1652 1156 l 1,676,677
 1646 1181 1646 1181 1632 1181 c 1,678,679
 1615 1172 1615 1172 1614 1167 c 2,669,-1
724 1081 m 2,680,-1
 724 1064 l 1,681,-1
 726 1053 l 1,682,-1
 730 1053 l 2,683,684
 748 1053 748 1053 764 1128 c 1,685,686
 785 1151 785 1151 792 1163 c 1,687,-1
 792 1167 l 2,688,689
 792 1171 792 1171 786 1174 c 1,690,691
 756 1162 756 1162 733 1119 c 0,692,693
 724 1098 724 1098 724 1081 c 2,680,-1
1740 1132 m 0,694,695
 1733 1134 1733 1134 1724 1134 c 1,696,697
 1724 1116 1724 1116 1660 1090 c 1,698,699
 1701 1016 1701 1016 1711 991 c 1,700,701
 1736 1002 1736 1002 1742 1009 c 1,702,-1
 1711 1070 l 1,703,-1
 1733 1081 l 1,704,705
 1755 1046 1755 1046 1755 1040 c 1,706,707
 1761 1040 1761 1040 1786 1053 c 1,708,709
 1786 1061 1786 1061 1766 1095 c 1,710,-1
 1766 1097 l 2,711,712
 1766 1102 1766 1102 1788 1108 c 1,713,-1
 1790 1108 l 1,714,715
 1801 1081 1801 1081 1821 1048 c 1,716,717
 1846 1062 1846 1062 1850 1062 c 1,718,719
 1850 1072 1850 1072 1799 1161 c 1,720,721
 1746 1132 1746 1132 1740 1132 c 0,694,695
246 1132 m 1,722,723
 246 1126 246 1126 232 1097 c 1,724,725
 328 1057 328 1057 336 1051 c 1,726,-1
 336 1048 l 1,727,728
 329 1026 329 1026 321 1026 c 0,729,730
 303 1026 303 1026 299 1048 c 1,731,732
 288 1042 288 1042 281 1042 c 2,733,-1
 219 1068 l 1,734,-1
 206 1031 l 1,735,-1
 206 1029 l 1,736,737
 272 1008 272 1008 272 989 c 2,738,-1
 272 987 l 1,739,740
 283 993 283 993 290 993 c 0,741,742
 306 991 306 991 307 985 c 0,743,744
 302 960 302 960 296 960 c 2,745,-1
 294 960 l 1,746,-1
 191 1000 l 1,747,-1
 191 998 l 1,748,749
 177 967 177 967 177 962 c 1,750,751
 243 940 243 940 243 929 c 2,752,-1
 243 923 l 1,753,-1
 246 923 l 2,754,755
 248 923 248 923 263 927 c 1,756,-1
 292 916 l 1,757,758
 349 936 349 936 349 976 c 0,759,760
 349 981 349 981 343 993 c 1,761,762
 366 1002 366 1002 373 1024 c 0,763,764
 373 1030 373 1030 378 1037 c 1,765,766
 365 1090 365 1090 351 1090 c 0,767,768
 327 1097 327 1097 327 1115 c 1,769,770
 316 1108 316 1108 312 1108 c 2,771,-1
 248 1132 l 1,772,-1
 246 1132 l 1,722,723
1828 996 m 1,773,774
 1828 985 1828 985 1797 971 c 1,775,-1
 1793 956 l 1,776,-1
 1793 954 l 2,777,778
 1793 940 1793 940 1804 905 c 1,779,780
 1795 899 1795 899 1784 899 c 0,781,782
 1777 899 1777 899 1773 925 c 1,783,784
 1788 930 1788 930 1788 934 c 0,785,786
 1777 966 1777 966 1777 969 c 1,787,788
 1735 961 1735 961 1735 940 c 2,789,-1
 1735 927 l 1,790,791
 1746 854 1746 854 1779 854 c 1,792,-1
 1790 857 l 1,793,794
 1790 853 1790 853 1804 848 c 1,795,796
 1804 859 1804 859 1837 874 c 1,797,-1
 1841 890 l 1,798,-1
 1841 892 l 2,799,800
 1841 907 1841 907 1830 940 c 1,801,802
 1843 949 1843 949 1852 949 c 1,803,804
 1861 936 1861 936 1861 923 c 0,805,806
 1860 916 1860 916 1846 916 c 1,807,-1
 1857 877 l 1,808,809
 1901 885 1901 885 1901 910 c 0,810,811
 1888 991 1888 991 1859 991 c 2,812,-1
 1854 991 l 2,813,814
 1849 991 1849 991 1846 989 c 0,815,816
 1837 996 1837 996 1828 996 c 1,773,774
1162 991 m 0,817,818
 1181 991 1181 991 1240 971 c 1,819,-1
 1244 971 l 2,820,821
 1251 971 1251 971 1288 985 c 0,822,823
 1291 985 1291 985 1295 978 c 1,824,-1
 1295 971 l 2,825,826
 1295 961 1295 961 1235 951 c 0,827,828
 1226 951 1226 951 1180 969 c 1,829,-1
 1160 971 l 1,830,-1
 1127 965 l 1,831,-1
 1125 965 l 2,832,833
 1121 965 1121 965 1121 969 c 2,834,-1
 1121 976 l 2,835,836
 1121 987 1121 987 1162 991 c 0,817,818
973 978 m 2,837,-1
 979 978 l 2,838,839
 993 978 993 978 1050 956 c 1,840,841
 1076 953 1076 953 1076 947 c 2,842,-1
 1076 940 l 2,843,844
 1074 934 1074 934 1063 934 c 0,845,846
 1047 934 1047 934 988 958 c 0,847,848
 979 958 979 958 979 960 c 1,849,850
 959 960 959 960 929 936 c 1,851,-1
 922 936 l 2,852,853
 919 936 919 936 916 943 c 2,854,-1
 916 949 l 1,855,856
 945 978 945 978 973 978 c 2,837,-1
979 921 m 2,857,-1
 986 921 l 1,858,859
 1043 916 1043 916 1043 907 c 0,860,861
 1039 897 1039 897 1035 896 c 2,862,-1
 1021 896 l 2,863,864
 1013 896 1013 896 982 903 c 1,865,866
 946 903 946 903 916 859 c 1,867,-1
 913 859 l 2,868,869
 905 862 905 862 905 866 c 2,870,-1
 905 868 l 1,871,872
 925 921 925 921 979 921 c 2,857,-1
1220 896 m 2,873,-1
 1226 896 l 2,874,875
 1232 896 1232 896 1303 892 c 1,876,-1
 1303 890 l 1,877,-1
 1325 894 l 1,878,879
 1334 891 1334 891 1334 888 c 2,880,-1
 1334 881 l 2,881,882
 1334 874 1334 874 1312 870 c 1,883,884
 1251 877 1251 877 1233 877 c 2,885,-1
 1231 877 l 2,886,887
 1220 877 1220 877 1198 874 c 1,888,-1
 1195 879 l 1,889,-1
 1195 885 l 2,890,891
 1195 893 1195 893 1220 896 c 2,873,-1
964 870 m 2,892,-1
 973 870 l 2,893,894
 1012 870 1012 870 1103 839 c 1,895,896
 1156 807 1156 807 1156 791 c 2,897,-1
 1156 782 l 1,898,899
 1148 769 1148 769 1136 769 c 2,900,-1
 1132 769 l 2,901,902
 1120 769 1120 769 1052 799 c 1,903,904
 1033 799 1033 799 1008 802 c 1,905,906
 1008 798 1008 798 1002 795 c 2,907,-1
 979 795 l 2,908,909
 964 795 964 795 887 773 c 1,910,-1
 883 773 l 1,911,-1
 876 782 l 1,912,913
 877 798 877 798 929 854 c 0,914,915
 948 870 948 870 964 870 c 2,892,-1
618 804 m 1,916,-1
 618 802 l 1,917,918
 692 802 692 802 719 689 c 1,919,-1
 722 689 l 1,920,-1
 722 696 l 2,921,922
 722 701 722 701 719 705 c 1,923,924
 722 707 722 707 722 751 c 1,925,926
 711 751 711 751 700 793 c 1,927,928
 674 813 674 813 649 813 c 2,929,-1
 640 813 l 2,930,931
 635 813 635 813 618 804 c 1,916,-1
1378 810 m 1,932,933
 1372 795 1372 795 1297 755 c 1,934,-1
 1286 738 l 1,935,-1
 1288 738 l 1,936,937
 1303 744 1303 744 1319 744 c 2,938,-1
 1325 744 l 2,939,940
 1339 744 1339 744 1363 735 c 1,941,942
 1383 765 1383 765 1383 808 c 1,943,-1
 1378 810 l 1,932,933
607 780 m 1,944,-1
 607 749 l 2,945,946
 607 658 607 658 653 590 c 1,947,948
 670 545 670 545 697 524 c 1,949,950
 706 539 706 539 706 546 c 2,951,-1
 706 557 l 1,952,-1
 695 619 l 1,953,954
 703 671 703 671 708 683 c 1,955,956
 700 683 700 683 689 731 c 1,957,958
 655 784 655 784 627 784 c 0,959,960
 624 784 624 784 607 780 c 1,944,-1
202 782 m 1,961,-1
 202 740 l 1,962,-1
 195 731 l 1,963,-1
 202 722 l 1,964,-1
 202 683 l 1,965,-1
 224 683 l 1,966,-1
 224 724 l 1,967,-1
 228 724 l 1,968,-1
 246 685 l 2,969,970
 250 685 250 685 265 722 c 1,971,-1
 270 722 l 1,972,-1
 270 683 l 1,973,-1
 292 683 l 1,974,-1
 292 722 l 1,975,-1
 299 731 l 1,976,-1
 292 740 l 1,977,-1
 292 782 l 1,978,-1
 272 782 l 2,979,980
 268 782 268 782 250 740 c 1,981,-1
 243 740 l 1,982,983
 243 745 243 745 226 782 c 1,984,-1
 202 782 l 1,961,-1
323 782 m 1,985,-1
 323 742 l 2,986,987
 323 741 323 741 314 731 c 1,988,989
 323 728 323 728 323 716 c 2,990,-1
 323 683 l 1,991,-1
 343 683 l 1,992,-1
 343 724 l 1,993,-1
 345 724 l 2,994,995
 350 724 350 724 365 685 c 1,996,-1
 389 724 l 1,997,-1
 391 724 l 1,998,-1
 391 683 l 1,999,-1
 411 683 l 1,1000,-1
 411 722 l 1,1001,-1
 420 733 l 1,1002,1003
 411 733 411 733 411 740 c 2,1004,-1
 411 782 l 1,1005,-1
 391 782 l 2,1006,1007
 387 782 387 782 369 740 c 1,1008,-1
 367 740 l 2,1009,1010
 362 740 362 740 345 782 c 1,1011,-1
 323 782 l 1,985,-1
435 782 m 1,1012,-1
 435 780 l 2,1013,1014
 435 777 435 777 459 733 c 1,1015,1016
 435 686 435 686 435 683 c 1,1017,-1
 459 683 l 2,1018,1019
 464 683 464 683 470 702 c 1,1020,-1
 473 702 l 2,1021,1022
 478 702 478 702 484 683 c 1,1023,-1
 510 683 l 1,1024,-1
 510 685 l 1,1025,1026
 488 727 488 727 488 733 c 2,1027,-1
 510 782 l 1,1028,-1
 484 782 l 1,1029,1030
 478 762 478 762 473 762 c 2,1031,-1
 470 762 l 1,1032,1033
 464 782 464 782 459 782 c 2,1034,-1
 435 782 l 1,1012,-1
1475 782 m 1,1035,-1
 1475 742 l 1,1036,1037
 1467 732 1467 732 1467 731 c 0,1038,1039
 1475 728 1475 728 1475 716 c 2,1040,-1
 1475 683 l 1,1041,-1
 1495 683 l 1,1042,-1
 1495 724 l 1,1043,-1
 1497 724 l 2,1044,1045
 1503 724 1503 724 1517 685 c 1,1046,-1
 1541 724 l 1,1047,-1
 1544 724 l 1,1048,-1
 1544 683 l 1,1049,-1
 1563 683 l 1,1050,-1
 1563 722 l 1,1051,-1
 1572 733 l 1,1052,1053
 1563 733 1563 733 1563 740 c 2,1054,-1
 1563 782 l 1,1055,-1
 1544 782 l 2,1056,1057
 1539 782 1539 782 1522 740 c 1,1058,-1
 1519 740 l 2,1059,1060
 1515 740 1515 740 1497 782 c 1,1061,-1
 1475 782 l 1,1035,-1
1594 782 m 1,1062,-1
 1594 742 l 1,1063,-1
 1586 731 l 1,1064,1065
 1594 728 1594 728 1594 716 c 2,1066,-1
 1594 683 l 1,1067,-1
 1614 683 l 1,1068,-1
 1614 724 l 1,1069,-1
 1616 724 l 2,1070,1071
 1622 724 1622 724 1636 685 c 1,1072,-1
 1660 724 l 1,1073,-1
 1663 724 l 1,1074,-1
 1663 683 l 1,1075,-1
 1682 683 l 1,1076,-1
 1682 722 l 1,1077,-1
 1691 733 l 1,1078,1079
 1682 733 1682 733 1682 740 c 2,1080,-1
 1682 782 l 1,1081,-1
 1663 782 l 2,1082,1083
 1658 782 1658 782 1641 740 c 1,1084,-1
 1638 740 l 2,1085,1086
 1634 740 1634 740 1616 782 c 1,1087,-1
 1594 782 l 1,1062,-1
1707 782 m 1,1088,1089
 1731 735 1731 735 1731 731 c 2,1090,-1
 1707 683 l 1,1091,-1
 1731 683 l 2,1092,1093
 1736 683 1736 683 1742 702 c 1,1094,-1
 1744 702 l 2,1095,1096
 1749 702 1749 702 1755 683 c 1,1097,-1
 1784 683 l 1,1098,1099
 1760 729 1760 729 1760 733 c 2,1100,-1
 1784 782 l 1,1101,-1
 1755 782 l 1,1102,1103
 1749 762 1749 762 1744 762 c 2,1104,-1
 1742 762 l 1,1105,1106
 1736 782 1736 782 1731 782 c 2,1107,-1
 1707 782 l 1,1088,1089
1801 782 m 1,1108,1109
 1826 735 1826 735 1826 731 c 2,1110,-1
 1801 683 l 1,1111,-1
 1826 683 l 2,1112,1113
 1831 683 1831 683 1837 702 c 1,1114,-1
 1839 702 l 2,1115,1116
 1844 702 1844 702 1850 683 c 1,1117,-1
 1879 683 l 1,1118,1119
 1854 729 1854 729 1854 733 c 2,1120,-1
 1879 782 l 1,1121,-1
 1850 782 l 1,1122,1123
 1844 762 1844 762 1839 762 c 2,1124,-1
 1837 762 l 1,1125,1126
 1831 782 1831 782 1826 782 c 2,1127,-1
 1801 782 l 1,1108,1109
1021 777 m 1,1128,1129
 1082 770 1082 770 1087 755 c 1,1130,-1
 1087 749 l 2,1131,1132
 1087 746 1087 746 1081 742 c 1,1133,1134
 1046 758 1046 758 1024 758 c 2,1135,-1
 1021 758 l 1,1136,1137
 962 747 962 747 962 733 c 1,1138,1139
 957 727 957 727 955 727 c 2,1140,-1
 949 727 l 2,1141,1142
 942 729 942 729 942 740 c 0,1143,1144
 942 763 942 763 1021 777 c 1,1128,1129
649 753 m 0,1145,1146
 658 750 658 750 662 742 c 1,1147,-1
 653 669 l 1,1148,1149
 658 630 658 630 669 630 c 1,1150,-1
 678 634 l 1,1151,1152
 686 631 686 631 686 628 c 2,1153,-1
 686 621 l 2,1154,1155
 686 618 686 618 675 610 c 1,1156,-1
 667 610 l 2,1157,1158
 641 610 641 610 634 669 c 1,1159,1160
 640 710 640 710 640 727 c 2,1161,-1
 640 735 l 1,1162,-1
 638 747 l 1,1163,1164
 645 753 645 753 649 753 c 0,1145,1146
1030 749 m 256,1165,1166
 1076 749 1076 749 1112 709 c 1,1167,-1
 1112 702 l 1,1168,1169
 1082 665 1082 665 1028 665 c 1,1170,1171
 951 678 951 678 951 711 c 2,1172,-1
 951 716 l 1,1173,1174
 984 749 984 749 1030 749 c 256,1165,1166
1125 740 m 1,1175,-1
 1132 740 l 1,1176,1177
 1156 721 1156 721 1156 705 c 0,1178,1179
 1153 683 1153 683 1143 683 c 0,1180,1181
 1134 686 1134 686 1134 689 c 2,1182,-1
 1134 709 l 1,1183,-1
 1118 727 l 1,1184,-1
 1118 733 l 2,1185,1186
 1118 736 1118 736 1125 740 c 1,1175,-1
1035 729 m 1,1187,1188
 1039 722 1039 722 1039 716 c 2,1189,-1
 1039 705 l 2,1190,1191
 1039 699 1039 699 1035 685 c 1,1192,-1
 1037 685 l 1,1193,1194
 1085 690 1085 690 1085 709 c 1,1195,1196
 1058 729 1058 729 1035 729 c 1,1187,1188
1321 727 m 1,1197,1198
 1325 718 1325 718 1325 713 c 0,1199,1200
 1323 700 1323 700 1317 689 c 1,1201,-1
 1319 689 l 2,1202,1203
 1354 689 1354 689 1354 718 c 1,1204,1205
 1337 727 1337 727 1321 727 c 1,1197,1198
973 711 m 1,1206,-1
 973 707 l 1,1207,-1
 975 707 l 1,1208,-1
 975 711 l 1,1209,-1
 973 711 l 1,1206,-1
1270 705 m 1,1210,-1
 1270 696 l 2,1211,1212
 1271 691 1271 691 1275 691 c 1,1213,-1
 1275 694 l 1,1214,-1
 1273 705 l 1,1215,-1
 1270 705 l 1,1210,-1
675 696 m 0,1216,1217
 681 696 681 696 689 691 c 1,1218,1219
 684 676 684 676 684 667 c 2,1220,-1
 686 647 l 1,1221,-1
 678 643 l 1,1222,1223
 666 643 666 643 662 669 c 1,1224,1225
 667 696 667 696 675 696 c 0,1216,1217
1118 687 m 2,1226,-1
 1125 687 l 2,1227,1228
 1128 687 1128 687 1132 680 c 1,1229,-1
 1132 678 l 2,1230,1231
 1132 660 1132 660 1092 616 c 1,1232,-1
 1090 616 l 2,1233,1234
 1084 616 1084 616 1079 628 c 1,1235,-1
 1112 674 l 1,1236,1237
 1114 687 1114 687 1118 687 c 2,1226,-1
1297 669 m 2,1238,-1
 1281 669 l 1,1239,-1
 1270 672 l 1,1240,1241
 1272 628 1272 628 1306 548 c 1,1242,1243
 1308 519 1308 519 1308 502 c 2,1244,-1
 1308 493 l 2,1245,1246
 1308 474 1308 474 1299 460 c 1,1247,1248
 1309 460 1309 460 1341 431 c 1,1249,-1
 1343 431 l 1,1250,1251
 1343 435 1343 435 1354 506 c 2,1252,-1
 1367 632 l 2,1253,1254
 1366 652 1366 652 1361 652 c 1,1255,1256
 1361 617 1361 617 1323 590 c 1,1257,-1
 1319 590 l 2,1258,1259
 1316 590 1316 590 1312 597 c 1,1260,-1
 1312 601 l 1,1261,1262
 1345 632 1345 632 1345 669 c 2,1263,-1
 1345 676 l 1,1264,1265
 1318 669 1318 669 1297 669 c 2,1238,-1
1187 645 m 2,1266,-1
 1195 645 l 2,1267,1268
 1201 645 1201 645 1202 628 c 2,1269,-1
 1200 616 l 1,1270,-1
 1206 586 l 1,1271,-1
 1206 581 l 2,1272,1273
 1204 575 1204 575 1193 575 c 0,1274,1275
 1183 575 1183 575 1180 634 c 2,1276,-1
 1180 639 l 2,1277,1278
 1180 642 1180 642 1187 645 c 2,1266,-1
933 643 m 2,1279,-1
 942 643 l 1,1280,1281
 971 610 971 610 1008 610 c 2,1282,-1
 1019 610 l 2,1283,1284
 1030 610 1030 610 1068 621 c 1,1285,-1
 1070 616 l 1,1286,-1
 1070 608 l 1,1287,1288
 1056 590 1056 590 1017 590 c 1,1289,1290
 929 602 929 602 929 636 c 2,1291,-1
 929 639 l 2,1292,1293
 930 643 930 643 933 643 c 2,1279,-1
1806 628 m 1,1294,1295
 1804 602 1804 602 1804 590 c 1,1296,1297
 1809 590 1809 590 1832 570 c 0,1298,1299
 1832 567 1832 567 1799 553 c 1,1300,-1
 1795 517 l 1,1301,1302
 1863 550 1863 550 1868 550 c 2,1303,-1
 1876 550 l 1,1304,-1
 1887 539 l 2,1305,1306
 1891 539 1891 539 1896 548 c 1,1307,-1
 1912 546 l 1,1308,-1
 1920 546 l 1,1309,-1
 1920 559 l 1,1310,-1
 1923 575 l 1,1311,1312
 1900 575 1900 575 1892 588 c 1,1313,1314
 1881 582 1881 582 1881 579 c 1,1315,1316
 1865 579 1865 579 1826 614 c 1,1317,-1
 1806 628 l 1,1294,1295
226 612 m 1,1318,1319
 226 603 226 603 197 594 c 1,1320,-1
 193 579 l 1,1321,1322
 195 547 195 547 195 544 c 0,1323,1324
 188 539 188 539 182 539 c 2,1325,-1
 180 539 l 2,1326,1327
 174 539 174 539 173 561 c 1,1328,1329
 178 566 178 566 186 566 c 1,1330,1331
 185 597 185 597 182 597 c 0,1332,1333
 146 597 146 597 146 575 c 0,1334,1335
 146 509 146 509 171 509 c 0,1336,1337
 177 509 177 509 188 500 c 1,1338,1339
 188 509 188 509 217 515 c 1,1340,-1
 224 535 l 2,1341,1342
 224 540 224 540 219 566 c 1,1343,1344
 229 572 229 572 237 572 c 1,1345,1346
 241 567 241 567 243 550 c 1,1347,1348
 230 545 230 545 230 544 c 0,1349,1350
 230 542 230 542 232 515 c 1,1351,-1
 235 515 l 2,1352,1353
 270 515 270 515 270 537 c 0,1354,1355
 270 603 270 603 243 603 c 0,1356,1357
 237 603 237 603 228 612 c 1,1358,-1
 226 612 l 1,1318,1319
1132 594 m 2,1359,-1
 1138 594 l 2,1360,1361
 1141 594 1141 594 1145 588 c 1,1362,1363
 1129 531 1129 531 1118 531 c 2,1364,-1
 1114 531 l 2,1365,1366
 1111 531 1111 531 1107 539 c 1,1367,1368
 1126 592 1126 592 1132 594 c 2,1359,-1
1160 544 m 0,1369,1370
 1189 535 1189 535 1189 526 c 2,1371,-1
 1189 520 l 2,1372,1373
 1189 515 1189 515 1184 515 c 2,1374,-1
 1180 515 l 1,1375,1376
 1151 524 1151 524 1151 531 c 2,1377,-1
 1151 537 l 2,1378,1379
 1151 543 1151 543 1160 544 c 0,1369,1370
1775 425 m 1,1380,1381
 1830 413 1830 413 1830 405 c 2,1382,-1
 1830 401 l 1,1383,-1
 1841 407 l 1,1384,1385
 1877 401 1877 401 1892 401 c 1,1386,-1
 1898 427 l 1,1387,1388
 1871 434 1871 434 1865 434 c 1,1389,-1
 1865 436 l 2,1390,1391
 1868 439 1868 439 1905 453 c 1,1392,-1
 1912 484 l 1,1393,1394
 1875 473 1875 473 1868 473 c 1,1395,1396
 1868 497 1868 497 1819 504 c 1,1397,-1
 1808 504 l 2,1398,1399
 1786 504 1786 504 1775 425 c 1,1380,1381
224 480 m 1,1400,1401
 224 483 224 483 215 486 c 1,1402,1403
 215 472 215 472 164 462 c 0,1404,1405
 162 462 162 462 162 460 c 0,1406,1407
 166 434 166 434 171 434 c 0,1408,1409
 198 440 198 440 208 440 c 1,1410,1411
 216 392 216 392 230 392 c 2,1412,-1
 232 392 l 1,1413,1414
 294 396 294 396 294 420 c 2,1415,-1
 294 425 l 1,1416,-1
 279 491 l 1,1417,1418
 234 480 234 480 224 480 c 1,1400,1401
1815 471 m 0,1419,1420
 1841 471 1841 471 1841 460 c 0,1421,1422
 1840 442 1840 442 1835 442 c 0,1423,1424
 1808 445 1808 445 1808 453 c 0,1425,1426
 1809 471 1809 471 1815 471 c 0,1419,1420
259 453 m 1,1427,1428
 265 441 265 441 265 431 c 1,1429,1430
 258 425 258 425 237 425 c 1,1431,1432
 230 438 230 438 230 447 c 1,1433,1434
 249 453 249 453 259 453 c 1,1427,1428
1742 330 m 1,1435,1436
 1742 311 1742 311 1784 299 c 1,1437,1438
 1788 286 1788 286 1790 286 c 0,1439,1440
 1801 293 1801 293 1804 293 c 0,1441,1442
 1812 287 1812 287 1837 282 c 1,1443,1444
 1859 282 1859 282 1872 343 c 1,1445,-1
 1872 348 l 2,1446,1447
 1872 364 1872 364 1832 376 c 1,1448,1449
 1831 387 1831 387 1826 387 c 2,1450,-1
 1819 383 l 1,1451,-1
 1815 383 l 1,1452,-1
 1777 394 l 1,1453,1454
 1758 394 1758 394 1742 330 c 1,1435,1436
257 374 m 0,1455,1456
 251 374 251 374 243 378 c 1,1457,1458
 243 368 243 368 224 359 c 1,1459,1460
 193 352 193 352 193 343 c 0,1461,1462
 202 319 202 319 204 319 c 0,1463,1464
 239 334 239 334 246 334 c 0,1465,1466
 251 334 251 334 257 308 c 1,1467,1468
 217 293 217 293 215 293 c 1,1469,-1
 215 290 l 1,1470,1471
 221 264 221 264 226 264 c 0,1472,1473
 267 279 267 279 274 279 c 0,1474,1475
 277 277 277 277 285 277 c 1,1476,1477
 285 290 285 290 336 306 c 1,1478,-1
 336 310 l 1,1479,1480
 312 368 312 368 305 392 c 1,1481,1482
 262 374 262 374 257 374 c 0,1455,1456
1782 359 m 0,1483,1484
 1792 359 1792 359 1841 339 c 1,1485,-1
 1841 337 l 2,1486,1487
 1838 315 1838 315 1832 315 c 0,1488,1489
 1773 336 1773 336 1773 339 c 0,1490,1491
 1777 359 1777 359 1782 359 c 0,1483,1484
290 352 m 0,1492,1493
 295 346 295 346 301 326 c 1,1494,1495
 288 319 288 319 283 319 c 1,1496,1497
 275 330 275 330 272 345 c 1,1498,1499
 285 352 285 352 290 352 c 0,1492,1493
1187 317 m 2,1500,-1
 1182 319 l 1,1501,1502
 1170 313 1170 313 1140 310 c 1,1503,1504
 1131 297 1131 297 1110 297 c 0,1505,1506
 1106 297 1106 297 1096 301 c 1,1507,1508
 1084 295 1084 295 1079 295 c 1,1509,1510
 1079 290 1079 290 1083 290 c 2,1511,-1
 1121 290 l 1,1512,1513
 1259 305 1259 305 1259 328 c 1,1514,1515
 1237 330 1237 330 1226 330 c 2,1516,-1
 1224 330 l 1,1517,1518
 1194 317 1194 317 1187 317 c 2,1500,-1
1729 304 m 1,1519,-1
 1687 220 l 1,1520,1521
 1701 211 1701 211 1711 211 c 1,1522,1523
 1722 231 1722 231 1722 235 c 1,1524,-1
 1724 235 l 1,1525,1526
 1751 231 1751 231 1751 211 c 1,1527,1528
 1758 215 1758 215 1764 215 c 0,1529,1530
 1769 215 1769 215 1808 193 c 1,1531,-1
 1810 193 l 1,1532,1533
 1821 218 1821 218 1821 222 c 0,1534,1535
 1775 240 1775 240 1775 257 c 1,1536,1537
 1766 253 1766 253 1762 253 c 0,1538,1539
 1740 263 1740 263 1740 266 c 0,1540,1541
 1751 285 1751 285 1751 295 c 1,1542,1543
 1735 304 1735 304 1729 304 c 1,1519,-1
301 259 m 2,1544,1545
 297 259 297 259 288 264 c 1,1546,1547
 288 246 288 246 241 226 c 1,1548,1549
 250 206 250 206 257 200 c 1,1550,1551
 303 226 303 226 310 226 c 1,1552,1553
 299 204 299 204 277 167 c 0,1554,1555
 277 160 277 160 290 138 c 1,1556,-1
 334 163 l 2,1557,1558
 336 160 336 160 347 160 c 1,1559,1560
 347 176 347 176 387 191 c 0,1561,1562
 393 196 393 196 393 200 c 0,1563,1564
 382 219 382 219 382 222 c 1,1565,-1
 329 198 l 1,1566,-1
 329 200 l 1,1567,-1
 360 255 l 1,1568,1569
 360 265 360 265 345 284 c 1,1570,-1
 301 259 l 2,1544,1545
1233 262 m 1,1571,1572
 1235 226 1235 226 1242 226 c 2,1573,-1
 1246 226 l 2,1574,1575
 1253 229 1253 229 1253 240 c 2,1576,-1
 1253 248 l 2,1577,1578
 1253 260 1253 260 1244 264 c 1,1579,-1
 1237 264 l 1,1580,-1
 1233 262 l 1,1571,1572
1198 253 m 1,1581,1582
 1193 248 1193 248 1191 229 c 1,1583,1584
 1194 213 1194 213 1202 213 c 0,1585,1586
 1206 215 1206 215 1209 215 c 1,1587,-1
 1209 242 l 2,1588,1589
 1209 244 1209 244 1211 244 c 1,1590,1591
 1209 253 1209 253 1198 253 c 1,1581,1582
1149 242 m 1,1592,-1
 1151 220 l 1,1593,-1
 1151 207 l 2,1594,1595
 1151 203 1151 203 1158 200 c 2,1596,-1
 1162 200 l 2,1597,1598
 1167 200 1167 200 1167 204 c 2,1599,-1
 1167 233 l 1,1600,-1
 1165 244 l 1,1601,-1
 1154 244 l 1,1602,-1
 1149 242 l 1,1592,-1
1678 207 m 1,1603,-1
 1627 134 l 2,1604,1605
 1627 132 1627 132 1669 101 c 1,1606,-1
 1669 90 l 1,1607,-1
 1682 92 l 1,1608,1609
 1697 83 1697 83 1724 63 c 1,1610,-1
 1727 63 l 1,1611,1612
 1727 67 1727 67 1742 88 c 1,1613,-1
 1705 116 l 1,1614,1615
 1716 138 1716 138 1722 138 c 0,1616,1617
 1733 132 1733 132 1757 114 c 1,1618,-1
 1762 114 l 1,1619,1620
 1762 117 1762 117 1777 138 c 1,1621,1622
 1736 165 1736 165 1735 169 c 2,1623,-1
 1735 180 l 1,1624,-1
 1733 180 l 1,1625,-1
 1718 178 l 1,1626,1627
 1714 184 1714 184 1678 207 c 1,1603,-1
1229 156 m 0,1628,1629
 1229 152 1229 152 1233 152 c 2,1630,-1
 1244 152 l 1,1631,1632
 1248 176 1248 176 1248 187 c 0,1633,1634
 1246 191 1246 191 1246 193 c 1,1635,-1
 1237 193 l 2,1636,1637
 1229 193 1229 193 1229 156 c 0,1628,1629
369 145 m 1,1638,-1
 356 147 l 1,1639,1640
 356 129 356 129 329 118 c 0,1641,1642
 329 116 329 116 314 105 c 1,1643,1644
 329 81 329 81 332 81 c 2,1645,-1
 373 110 l 1,1646,-1
 387 107 l 1,1647,-1
 387 118 l 1,1648,-1
 429 152 l 1,1649,1650
 413 173 413 173 413 176 c 1,1651,1652
 411 176 411 176 369 145 c 1,1638,-1
1171 156 m 2,1653,-1
 1171 136 l 2,1654,1655
 1172 132 1172 132 1176 132 c 2,1656,-1
 1182 132 l 2,1657,1658
 1189 132 1189 132 1189 160 c 2,1659,-1
 1189 174 l 1,1660,-1
 1178 174 l 2,1661,1662
 1171 172 1171 172 1171 156 c 2,1653,-1
1682 165 m 2,1663,-1
 1685 165 l 1,1664,1665
 1698 157 1698 157 1698 154 c 0,1666,1667
 1686 134 1686 134 1680 132 c 1,1668,1669
 1667 140 1667 140 1667 143 c 2,1670,-1
 1667 145 l 1,1671,1672
 1679 164 1679 164 1682 165 c 2,1663,-1
426 110 m 1,1673,-1
 418 110 l 1,1674,-1
 413 112 l 1,1675,1676
 413 95 413 95 402 83 c 1,1677,-1
 402 74 l 2,1678,1679
 402 63 402 63 426 37 c 1,1680,-1
 426 35 l 2,1681,1682
 426 32 426 32 415 24 c 1,1683,-1
 413 24 l 2,1684,1685
 409 24 409 24 400 39 c 1,1686,-1
 400 41 l 1,1687,-1
 407 50 l 1,1688,1689
 388 72 388 72 387 72 c 0,1690,1691
 369 59 369 59 367 52 c 2,1692,-1
 367 44 l 2,1693,1694
 367 25 367 25 411 -9 c 1,1695,-1
 424 -9 l 1,1696,1697
 432 -3 432 -3 440 -3 c 2,1698,-1
 442 -3 l 1,1699,-1
 446 -5 l 1,1700,1701
 446 9 446 9 459 24 c 1,1702,-1
 459 33 l 2,1703,1704
 459 43 459 43 435 70 c 1,1705,-1
 435 72 l 2,1706,1707
 435 75 435 75 446 83 c 1,1708,-1
 448 83 l 1,1709,1710
 462 75 462 75 462 63 c 1,1711,1712
 458 63 458 63 455 57 c 0,1713,1714
 455 56 455 56 475 35 c 1,1715,1716
 495 49 495 49 495 61 c 2,1717,-1
 495 63 l 2,1718,1719
 495 82 495 82 451 116 c 1,1720,-1
 442 116 l 2,1721,1722
 434 116 434 116 426 110 c 1,1673,-1
1204 112 m 2,1723,-1
 1204 94 l 1,1724,-1
 1206 83 l 1,1725,-1
 1213 83 l 1,1726,1727
 1222 87 1222 87 1222 99 c 2,1728,-1
 1222 103 l 2,1729,1730
 1222 114 1222 114 1215 116 c 2,1731,-1
 1209 116 l 2,1732,1733
 1204 116 1204 116 1204 112 c 2,1723,-1
1557 55 m 1,1734,-1
 1557 50 l 1,1735,1736
 1561 50 1561 50 1594 17 c 1,1737,-1
 1594 6 l 1,1738,-1
 1605 6 l 2,1739,1740
 1608 6 1608 6 1643 -27 c 1,1741,-1
 1647 -27 l 1,1742,1743
 1647 -23 1647 -23 1665 -5 c 1,1744,1745
 1643 17 1643 17 1638 17 c 1,1746,-1
 1638 21 l 1,1747,-1
 1682 13 l 1,1748,-1
 1705 37 l 1,1749,1750
 1670 46 1670 46 1660 50 c 1,1751,1752
 1665 59 1665 59 1665 66 c 1,1753,1754
 1636 107 1636 107 1619 107 c 2,1755,-1
 1614 107 l 2,1756,1757
 1601 107 1601 107 1557 55 c 1,1734,-1
1160 37 m 1,1758,-1
 1165 35 l 1,1759,-1
 1171 35 l 1,1760,1761
 1176 39 1176 39 1184 68 c 0,1762,1763
 1182 72 1182 72 1182 74 c 1,1764,-1
 1171 74 l 2,1765,1766
 1165 74 1165 74 1160 37 c 1,1758,-1
1614 74 m 0,1767,1768
 1624 71 1624 71 1632 59 c 1,1769,-1
 1632 52 l 2,1770,1771
 1632 49 1632 49 1619 39 c 1,1772,1773
 1597 56 1597 56 1597 59 c 0,1774,1775
 1608 74 1608 74 1614 74 c 0,1767,1768
1200 30 m 2,1776,-1
 1200 21 l 2,1777,1778
 1200 18 1200 18 1206 15 c 2,1779,-1
 1211 15 l 2,1780,1781
 1217 15 1217 15 1220 44 c 1,1782,-1
 1213 48 l 1,1783,-1
 1209 48 l 2,1784,1785
 1203 48 1203 48 1200 30 c 2,1776,-1
475 4 m 1,1786,-1
 477 -1 l 1,1787,-1
 477 -12 l 1,1788,-1
 446 -49 l 1,1789,1790
 465 -68 465 -68 470 -69 c 1,1791,1792
 491 -41 491 -41 501 -34 c 1,1793,1794
 521 -49 521 -49 521 -51 c 2,1795,-1
 521 -53 l 1,1796,1797
 503 -74 503 -74 492 -89 c 1,1798,-1
 492 -91 l 1,1799,1800
 496 -91 496 -91 517 -109 c 1,1801,1802
 517 -104 517 -104 550 -69 c 1,1803,-1
 561 -69 l 1,1804,-1
 561 -56 l 1,1805,1806
 592 -18 592 -18 592 -14 c 2,1807,-1
 570 4 l 1,1808,-1
 567 4 l 1,1809,1810
 567 -1 567 -1 539 -31 c 1,1811,1812
 519 -16 519 -16 519 -14 c 2,1813,-1
 519 -12 l 2,1814,1815
 519 -10 519 -10 545 21 c 1,1816,-1
 545 24 l 2,1817,1818
 545 25 545 25 526 41 c 1,1819,-1
 523 41 l 1,1820,1821
 492 4 492 4 484 4 c 2,1822,-1
 475 4 l 1,1786,-1
1480 -20 m 2,1823,-1
 1480 -25 l 2,1824,1825
 1480 -33 1480 -33 1502 -60 c 1,1826,-1
 1502 -69 l 1,1827,-1
 1500 -73 l 1,1828,1829
 1518 -73 1518 -73 1526 -86 c 0,1830,1831
 1526 -93 1526 -93 1541 -102 c 1,1832,-1
 1550 -102 l 2,1833,1834
 1569 -102 1569 -102 1603 -60 c 0,1835,1836
 1605 -56 1605 -56 1605 -53 c 0,1837,1838
 1605 -44 1605 -44 1583 -18 c 1,1839,-1
 1583 -9 l 1,1840,-1
 1586 -5 l 1,1841,1842
 1566 -5 1566 -5 1552 19 c 1,1843,1844
 1542 28 1542 28 1533 28 c 1,1845,1846
 1480 -1 1480 -1 1480 -20 c 2,1823,-1
1533 -5 m 1,1847,1848
 1570 -50 1570 -50 1570 -58 c 1,1849,1850
 1558 -69 1558 -69 1557 -69 c 2,1851,-1
 1552 -69 l 2,1852,1853
 1550 -68 1550 -68 1513 -23 c 1,1854,-1
 1513 -18 l 1,1855,1856
 1525 -5 1525 -5 1533 -5 c 1,1847,1848
1385 -71 m 1,1857,-1
 1385 -75 l 1,1858,-1
 1409 -115 l 1,1859,-1
 1407 -131 l 1,1860,1861
 1425 -131 1425 -131 1440 -168 c 0,1862,1863
 1444 -168 1444 -168 1444 -175 c 1,1864,1865
 1513 -144 1513 -144 1513 -124 c 2,1866,-1
 1513 -120 l 2,1867,1868
 1513 -109 1513 -109 1486 -75 c 1,1869,1870
 1471 -36 1471 -36 1453 -36 c 0,1871,1872
 1444 -36 1444 -36 1385 -71 c 1,1857,-1
1447 -69 m 0,1873,1874
 1453 -71 1453 -71 1453 -82 c 1,1875,1876
 1444 -95 1444 -95 1433 -95 c 1,1877,-1
 1425 -80 l 1,1878,1879
 1439 -69 1439 -69 1447 -69 c 0,1873,1874
684 -75 m 1,1880,1881
 667 -124 667 -124 649 -124 c 1,1882,1883
 653 -131 653 -131 653 -137 c 0,1884,1885
 653 -142 653 -142 634 -183 c 1,1886,-1
 636 -183 l 1,1887,1888
 656 -194 656 -194 662 -194 c 1,1889,-1
 680 -155 l 1,1890,-1
 682 -155 l 2,1891,1892
 689 -155 689 -155 717 -170 c 1,1893,1894
 717 -166 717 -166 728 -146 c 1,1895,1896
 714 -141 714 -141 693 -128 c 1,1897,1898
 701 -111 701 -111 704 -111 c 0,1899,1900
 746 -133 746 -133 753 -133 c 2,1901,-1
 755 -133 l 1,1902,1903
 755 -126 755 -126 764 -111 c 1,1904,1905
 686 -73 686 -73 684 -73 c 1,1906,-1
 684 -75 l 1,1880,1881
1277 -122 m 1,1907,1908
 1297 -164 1297 -164 1297 -170 c 0,1909,1910
 1297 -174 1297 -174 1292 -181 c 1,1911,1912
 1308 -181 1308 -181 1323 -232 c 1,1913,1914
 1352 -224 1352 -224 1352 -219 c 0,1915,1916
 1336 -185 1336 -185 1336 -175 c 1,1917,1918
 1359 -166 1359 -166 1361 -166 c 0,1919,1920
 1380 -208 1380 -208 1383 -208 c 2,1921,-1
 1409 -197 l 1,1922,-1
 1389 -153 l 1,1923,-1
 1394 -137 l 1,1924,1925
 1378 -137 1378 -137 1363 -86 c 1,1926,1927
 1358 -86 1358 -86 1277 -122 c 1,1907,1908
1467 -109 m 1,1928,-1
 1471 -109 l 2,1929,1930
 1474 -109 1474 -109 1480 -120 c 1,1931,-1
 1480 -122 l 2,1932,1933
 1477 -128 1477 -128 1460 -137 c 1,1934,-1
 1451 -124 l 1,1935,-1
 1451 -120 l 2,1936,1937
 1451 -117 1451 -117 1467 -109 c 1,1928,-1
748 -172 m 0,1938,1939
 753 -180 753 -180 753 -186 c 0,1940,1941
 746 -210 746 -210 746 -214 c 2,1942,-1
 746 -219 l 2,1943,1944
 746 -240 746 -240 803 -250 c 1,1945,-1
 812 -250 l 2,1946,1947
 830 -250 830 -250 838 -210 c 1,1948,1949
 849 -205 849 -205 849 -203 c 0,1950,1951
 845 -196 845 -196 845 -190 c 0,1952,1953
 854 -158 854 -158 854 -155 c 0,1954,1955
 854 -133 854 -133 786 -122 c 0,1956,1957
 771 -122 771 -122 759 -166 c 1,1958,1959
 748 -170 748 -170 748 -172 c 0,1938,1939
1343 -124 m 2,1960,-1
 1345 -124 l 1,1961,1962
 1350 -138 1350 -138 1350 -142 c 2,1963,-1
 1325 -153 l 1,1964,1965
 1320 -146 1320 -146 1317 -135 c 1,1966,1967
 1334 -124 1334 -124 1343 -124 c 2,1960,-1
1187 -148 m 2,1968,-1
 1198 -197 l 1,1969,-1
 1191 -208 l 1,1970,-1
 1191 -210 l 1,1971,1972
 1207 -210 1207 -210 1215 -263 c 1,1973,-1
 1217 -263 l 1,1974,-1
 1295 -243 l 1,1975,1976
 1288 -222 1288 -222 1288 -219 c 1,1977,-1
 1240 -230 l 1,1978,1979
 1233 -214 1233 -214 1233 -203 c 1,1980,1981
 1236 -203 1236 -203 1240 -194 c 1,1982,1983
 1224 -194 1224 -194 1217 -146 c 0,1984,1985
 1215 -146 1215 -146 1215 -139 c 1,1986,1987
 1187 -145 1187 -145 1187 -148 c 2,1968,-1
880 -148 m 1,1988,1989
 874 -205 874 -205 863 -205 c 0,1990,1991
 860 -205 860 -205 860 -208 c 0,1992,1993
 865 -209 865 -209 869 -219 c 1,1994,-1
 863 -267 l 1,1995,-1
 865 -267 l 2,1996,1997
 866 -267 866 -267 894 -269 c 1,1998,-1
 894 -267 l 1,1999,-1
 900 -212 l 1,2000,-1
 902 -212 l 1,2001,2002
 906 -217 906 -217 933 -276 c 1,2003,2004
 956 -280 956 -280 962 -280 c 1,2005,2006
 962 -231 962 -231 979 -225 c 1,2007,2008
 975 -215 975 -215 971 -214 c 1,2009,-1
 979 -161 l 1,2010,-1
 949 -157 l 1,2011,2012
 943 -214 943 -214 938 -214 c 1,2013,2014
 912 -150 912 -150 905 -150 c 0,2015,2016
 889 -148 889 -148 880 -148 c 1,1988,1989
799 -153 m 0,2017,2018
 821 -155 821 -155 821 -161 c 0,2019,2020
 805 -221 805 -221 797 -221 c 0,2021,2022
 779 -217 779 -217 779 -212 c 0,2023,2024
 793 -153 793 -153 799 -153 c 0,2017,2018
988 -161 m 1,2025,-1
 988 -188 l 1,2026,-1
 1019 -188 l 2,2027,2028
 1024 -189 1024 -189 1024 -192 c 2,2029,-1
 1024 -205 l 2,2030,2031
 1024 -215 1024 -215 1013 -223 c 1,2032,-1
 1013 -225 l 1,2033,2034
 1019 -225 1019 -225 1024 -234 c 1,2035,-1
 1024 -283 l 1,2036,-1
 1054 -283 l 1,2037,-1
 1054 -232 l 1,2038,-1
 1063 -223 l 1,2039,-1
 1052 -210 l 1,2040,-1
 1052 -190 l 2,2041,2042
 1053 -186 1053 -186 1057 -186 c 2,2043,-1
 1085 -186 l 1,2044,-1
 1085 -161 l 1,2045,-1
 988 -161 l 1,2025,-1
EndSplineSet
Validated: 129
EndChar

StartChar: Agrave
Encoding: 192 192 128
Width: 1405
GlyphClass: 1
Flags: W
LayerCount: 2
Fore
SplineSet
1029 1431 m 0,0,1
 1155 1431 1155 1431 1330 950 c 0,2,3
 1330 944 1330 944 1353 783 c 1,4,-1
 1353 391 l 2,5,6
 1353 339 1353 339 1431 201 c 1,7,-1
 1431 190 l 1,8,9
 1308 168 1308 168 1140 11 c 1,10,-1
 1129 11 l 1,11,12
 1040 59 1040 59 1040 179 c 2,13,-1
 1040 224 l 1,14,15
 1062 385 1062 385 1062 391 c 1,16,-1
 1040 402 l 1,17,-1
 1029 402 l 1,18,19
 958 349 958 349 939 347 c 1,20,21
 525 525 525 525 492 525 c 2,22,-1
 481 525 l 1,23,24
 402 470 402 470 402 358 c 2,25,-1
 402 302 l 2,26,27
 402 212 402 212 414 89 c 1,28,29
 414 47 414 47 347 0 c 1,30,-1
 291 0 l 2,31,32
 275 0 275 0 257 34 c 1,33,-1
 257 78 l 1,34,35
 324 167 324 167 324 212 c 1,36,37
 282 682 282 682 201 682 c 1,38,39
 183 693 183 693 145 693 c 2,40,-1
 112 693 l 2,41,42
 96 693 96 693 78 660 c 1,43,-1
 78 626 l 1,44,45
 134 580 134 580 134 570 c 2,46,-1
 134 559 l 2,47,48
 134 537 134 537 101 537 c 1,49,50
 0 589 0 589 0 660 c 2,51,-1
 0 693 l 2,52,53
 0 842 0 842 179 906 c 1,54,55
 294 872 294 872 335 872 c 1,56,57
 547 1110 547 1110 850 1286 c 1,58,59
 1012 1431 1012 1431 1029 1431 c 0,0,1
604 727 m 0,60,61
 604 671 604 671 861 604 c 1,62,-1
 928 604 l 1,63,64
 1073 619 1073 619 1073 682 c 0,65,66
 1073 866 1073 866 928 1140 c 1,67,-1
 917 1140 l 1,68,69
 845 1099 845 1099 615 771 c 0,70,71
 604 752 604 752 604 727 c 0,60,61
EndSplineSet
Validated: 1
EndChar

StartChar: Aacute
Encoding: 193 193 129
Width: 1405
GlyphClass: 1
Flags: W
LayerCount: 2
Fore
SplineSet
1029 1431 m 0,0,1
 1155 1431 1155 1431 1330 950 c 0,2,3
 1330 944 1330 944 1353 783 c 1,4,-1
 1353 391 l 2,5,6
 1353 339 1353 339 1431 201 c 1,7,-1
 1431 190 l 1,8,9
 1308 168 1308 168 1140 11 c 1,10,-1
 1129 11 l 1,11,12
 1040 59 1040 59 1040 179 c 2,13,-1
 1040 224 l 1,14,15
 1062 385 1062 385 1062 391 c 1,16,-1
 1040 402 l 1,17,-1
 1029 402 l 1,18,19
 958 349 958 349 939 347 c 1,20,21
 525 525 525 525 492 525 c 2,22,-1
 481 525 l 1,23,24
 402 470 402 470 402 358 c 2,25,-1
 402 302 l 2,26,27
 402 212 402 212 414 89 c 1,28,29
 414 47 414 47 347 0 c 1,30,-1
 291 0 l 2,31,32
 275 0 275 0 257 34 c 1,33,-1
 257 78 l 1,34,35
 324 167 324 167 324 212 c 1,36,37
 282 682 282 682 201 682 c 1,38,39
 183 693 183 693 145 693 c 2,40,-1
 112 693 l 2,41,42
 96 693 96 693 78 660 c 1,43,-1
 78 626 l 1,44,45
 134 580 134 580 134 570 c 2,46,-1
 134 559 l 2,47,48
 134 537 134 537 101 537 c 1,49,50
 0 589 0 589 0 660 c 2,51,-1
 0 693 l 2,52,53
 0 842 0 842 179 906 c 1,54,55
 294 872 294 872 335 872 c 1,56,57
 547 1110 547 1110 850 1286 c 1,58,59
 1012 1431 1012 1431 1029 1431 c 0,0,1
604 727 m 0,60,61
 604 671 604 671 861 604 c 1,62,-1
 928 604 l 1,63,64
 1073 619 1073 619 1073 682 c 0,65,66
 1073 866 1073 866 928 1140 c 1,67,-1
 917 1140 l 1,68,69
 845 1099 845 1099 615 771 c 0,70,71
 604 752 604 752 604 727 c 0,60,61
EndSplineSet
Validated: 1
EndChar

StartChar: Acircumflex
Encoding: 194 194 130
Width: 1405
GlyphClass: 1
Flags: W
LayerCount: 2
Fore
SplineSet
1029 1431 m 0,0,1
 1155 1431 1155 1431 1330 950 c 0,2,3
 1330 944 1330 944 1353 783 c 1,4,-1
 1353 391 l 2,5,6
 1353 339 1353 339 1431 201 c 1,7,-1
 1431 190 l 1,8,9
 1308 168 1308 168 1140 11 c 1,10,-1
 1129 11 l 1,11,12
 1040 59 1040 59 1040 179 c 2,13,-1
 1040 224 l 1,14,15
 1062 385 1062 385 1062 391 c 1,16,-1
 1040 402 l 1,17,-1
 1029 402 l 1,18,19
 958 349 958 349 939 347 c 1,20,21
 525 525 525 525 492 525 c 2,22,-1
 481 525 l 1,23,24
 402 470 402 470 402 358 c 2,25,-1
 402 302 l 2,26,27
 402 212 402 212 414 89 c 1,28,29
 414 47 414 47 347 0 c 1,30,-1
 291 0 l 2,31,32
 275 0 275 0 257 34 c 1,33,-1
 257 78 l 1,34,35
 324 167 324 167 324 212 c 1,36,37
 282 682 282 682 201 682 c 1,38,39
 183 693 183 693 145 693 c 2,40,-1
 112 693 l 2,41,42
 96 693 96 693 78 660 c 1,43,-1
 78 626 l 1,44,45
 134 580 134 580 134 570 c 2,46,-1
 134 559 l 2,47,48
 134 537 134 537 101 537 c 1,49,50
 0 589 0 589 0 660 c 2,51,-1
 0 693 l 2,52,53
 0 842 0 842 179 906 c 1,54,55
 294 872 294 872 335 872 c 1,56,57
 547 1110 547 1110 850 1286 c 1,58,59
 1012 1431 1012 1431 1029 1431 c 0,0,1
604 727 m 0,60,61
 604 671 604 671 861 604 c 1,62,-1
 928 604 l 1,63,64
 1073 619 1073 619 1073 682 c 0,65,66
 1073 866 1073 866 928 1140 c 1,67,-1
 917 1140 l 1,68,69
 845 1099 845 1099 615 771 c 0,70,71
 604 752 604 752 604 727 c 0,60,61
EndSplineSet
Validated: 1
EndChar

StartChar: Atilde
Encoding: 195 195 131
Width: 1405
GlyphClass: 1
Flags: W
LayerCount: 2
Fore
SplineSet
1029 1431 m 0,0,1
 1155 1431 1155 1431 1330 950 c 0,2,3
 1330 944 1330 944 1353 783 c 1,4,-1
 1353 391 l 2,5,6
 1353 339 1353 339 1431 201 c 1,7,-1
 1431 190 l 1,8,9
 1308 168 1308 168 1140 11 c 1,10,-1
 1129 11 l 1,11,12
 1040 59 1040 59 1040 179 c 2,13,-1
 1040 224 l 1,14,15
 1062 385 1062 385 1062 391 c 1,16,-1
 1040 402 l 1,17,-1
 1029 402 l 1,18,19
 958 349 958 349 939 347 c 1,20,21
 525 525 525 525 492 525 c 2,22,-1
 481 525 l 1,23,24
 402 470 402 470 402 358 c 2,25,-1
 402 302 l 2,26,27
 402 212 402 212 414 89 c 1,28,29
 414 47 414 47 347 0 c 1,30,-1
 291 0 l 2,31,32
 275 0 275 0 257 34 c 1,33,-1
 257 78 l 1,34,35
 324 167 324 167 324 212 c 1,36,37
 282 682 282 682 201 682 c 1,38,39
 183 693 183 693 145 693 c 2,40,-1
 112 693 l 2,41,42
 96 693 96 693 78 660 c 1,43,-1
 78 626 l 1,44,45
 134 580 134 580 134 570 c 2,46,-1
 134 559 l 2,47,48
 134 537 134 537 101 537 c 1,49,50
 0 589 0 589 0 660 c 2,51,-1
 0 693 l 2,52,53
 0 842 0 842 179 906 c 1,54,55
 294 872 294 872 335 872 c 1,56,57
 547 1110 547 1110 850 1286 c 1,58,59
 1012 1431 1012 1431 1029 1431 c 0,0,1
604 727 m 0,60,61
 604 671 604 671 861 604 c 1,62,-1
 928 604 l 1,63,64
 1073 619 1073 619 1073 682 c 0,65,66
 1073 866 1073 866 928 1140 c 1,67,-1
 917 1140 l 1,68,69
 845 1099 845 1099 615 771 c 0,70,71
 604 752 604 752 604 727 c 0,60,61
EndSplineSet
Validated: 1
EndChar

StartChar: Adieresis
Encoding: 196 196 132
Width: 1405
GlyphClass: 1
Flags: W
LayerCount: 2
Fore
SplineSet
1029 1431 m 0,0,1
 1155 1431 1155 1431 1330 950 c 0,2,3
 1330 944 1330 944 1353 783 c 1,4,-1
 1353 391 l 2,5,6
 1353 339 1353 339 1431 201 c 1,7,-1
 1431 190 l 1,8,9
 1308 168 1308 168 1140 11 c 1,10,-1
 1129 11 l 1,11,12
 1040 59 1040 59 1040 179 c 2,13,-1
 1040 224 l 1,14,15
 1062 385 1062 385 1062 391 c 1,16,-1
 1040 402 l 1,17,-1
 1029 402 l 1,18,19
 958 349 958 349 939 347 c 1,20,21
 525 525 525 525 492 525 c 2,22,-1
 481 525 l 1,23,24
 402 470 402 470 402 358 c 2,25,-1
 402 302 l 2,26,27
 402 212 402 212 414 89 c 1,28,29
 414 47 414 47 347 0 c 1,30,-1
 291 0 l 2,31,32
 275 0 275 0 257 34 c 1,33,-1
 257 78 l 1,34,35
 324 167 324 167 324 212 c 1,36,37
 282 682 282 682 201 682 c 1,38,39
 183 693 183 693 145 693 c 2,40,-1
 112 693 l 2,41,42
 96 693 96 693 78 660 c 1,43,-1
 78 626 l 1,44,45
 134 580 134 580 134 570 c 2,46,-1
 134 559 l 2,47,48
 134 537 134 537 101 537 c 1,49,50
 0 589 0 589 0 660 c 2,51,-1
 0 693 l 2,52,53
 0 842 0 842 179 906 c 1,54,55
 294 872 294 872 335 872 c 1,56,57
 547 1110 547 1110 850 1286 c 1,58,59
 1012 1431 1012 1431 1029 1431 c 0,0,1
604 727 m 0,60,61
 604 671 604 671 861 604 c 1,62,-1
 928 604 l 1,63,64
 1073 619 1073 619 1073 682 c 0,65,66
 1073 866 1073 866 928 1140 c 1,67,-1
 917 1140 l 1,68,69
 845 1099 845 1099 615 771 c 0,70,71
 604 752 604 752 604 727 c 0,60,61
EndSplineSet
Validated: 1
EndChar

StartChar: Aring
Encoding: 197 197 133
Width: 1405
GlyphClass: 1
Flags: W
LayerCount: 2
Fore
SplineSet
1029 1431 m 0,0,1
 1155 1431 1155 1431 1330 950 c 0,2,3
 1330 944 1330 944 1353 783 c 1,4,-1
 1353 391 l 2,5,6
 1353 339 1353 339 1431 201 c 1,7,-1
 1431 190 l 1,8,9
 1308 168 1308 168 1140 11 c 1,10,-1
 1129 11 l 1,11,12
 1040 59 1040 59 1040 179 c 2,13,-1
 1040 224 l 1,14,15
 1062 385 1062 385 1062 391 c 1,16,-1
 1040 402 l 1,17,-1
 1029 402 l 1,18,19
 958 349 958 349 939 347 c 1,20,21
 525 525 525 525 492 525 c 2,22,-1
 481 525 l 1,23,24
 402 470 402 470 402 358 c 2,25,-1
 402 302 l 2,26,27
 402 212 402 212 414 89 c 1,28,29
 414 47 414 47 347 0 c 1,30,-1
 291 0 l 2,31,32
 275 0 275 0 257 34 c 1,33,-1
 257 78 l 1,34,35
 324 167 324 167 324 212 c 1,36,37
 282 682 282 682 201 682 c 1,38,39
 183 693 183 693 145 693 c 2,40,-1
 112 693 l 2,41,42
 96 693 96 693 78 660 c 1,43,-1
 78 626 l 1,44,45
 134 580 134 580 134 570 c 2,46,-1
 134 559 l 2,47,48
 134 537 134 537 101 537 c 1,49,50
 0 589 0 589 0 660 c 2,51,-1
 0 693 l 2,52,53
 0 842 0 842 179 906 c 1,54,55
 294 872 294 872 335 872 c 1,56,57
 547 1110 547 1110 850 1286 c 1,58,59
 1012 1431 1012 1431 1029 1431 c 0,0,1
604 727 m 0,60,61
 604 671 604 671 861 604 c 1,62,-1
 928 604 l 1,63,64
 1073 619 1073 619 1073 682 c 0,65,66
 1073 866 1073 866 928 1140 c 1,67,-1
 917 1140 l 1,68,69
 845 1099 845 1099 615 771 c 0,70,71
 604 752 604 752 604 727 c 0,60,61
EndSplineSet
Validated: 1
EndChar

StartChar: Ccedilla
Encoding: 199 199 135
Width: 1171
GlyphClass: 1
Flags: W
LayerCount: 2
Fore
SplineSet
410 31 m 1,0,1
 176 115 176 115 45 428 c 0,2,3
 0 532 0 532 0 619 c 2,4,-1
 0 664 l 2,5,6
 0 1095 0 1095 506 1384 c 1,7,8
 629 1429 629 1429 664 1429 c 2,9,-1
 698 1429 l 1,10,11
 994 1350 994 1350 1058 1350 c 1,12,-1
 1159 1361 l 1,13,14
 1226 1283 1226 1283 1226 1193 c 1,15,16
 1122 810 1122 810 1013 810 c 1,17,18
 919 721 919 721 878 720 c 1,19,20
 866 742 866 742 866 754 c 1,21,22
 956 955 956 955 956 979 c 2,23,-1
 956 990 l 1,24,25
 829 1170 829 1170 506 1170 c 0,26,27
 265 1170 265 1170 203 968 c 1,28,29
 180 927 180 927 180 878 c 2,30,-1
 180 754 l 2,31,32
 180 453 180 453 540 248 c 1,33,34
 751 203 751 203 788 203 c 0,35,36
 967 203 967 203 1125 383 c 1,37,-1
 1136 383 l 1,38,39
 1159 379 1159 379 1159 360 c 2,40,-1
 1159 349 l 2,41,42
 1159 203 1159 203 855 45 c 1,43,44
 722 0 722 0 641 0 c 2,45,-1
 593 0 l 1,46,47
 578 -141 578 -141 319 -225 c 1,48,-1
 303 -193 l 1,49,50
 433 -50 433 -50 433 -15 c 1,51,-1
 410 31 l 1,0,1
EndSplineSet
Validated: 1
EndChar

StartChar: Egrave
Encoding: 200 200 136
Width: 1151
GlyphClass: 1
Flags: W
LayerCount: 2
Fore
SplineSet
492 1433 m 2,0,-1
 567 1433 l 2,1,2
 744 1433 744 1433 962 1283 c 1,3,-1
 1027 1273 l 1,4,5
 1071 1390 1071 1390 1091 1390 c 2,6,-1
 1123 1390 l 2,7,8
 1138 1390 1138 1390 1155 1358 c 1,9,-1
 1155 1273 l 2,10,11
 1155 1100 1155 1100 930 1016 c 1,12,-1
 920 1016 l 2,13,14
 898 1016 898 1016 813 1155 c 1,15,16
 720 1219 720 1219 652 1219 c 2,17,-1
 449 1219 l 1,18,19
 271 1173 271 1173 192 1037 c 1,20,21
 160 941 160 941 160 909 c 2,22,-1
 160 834 l 2,23,24
 163 781 163 781 182 781 c 1,25,26
 282 866 282 866 364 866 c 1,27,28
 588 834 588 834 588 823 c 1,29,30
 693 856 693 856 727 856 c 1,31,-1
 738 834 l 1,32,33
 673 631 673 631 556 631 c 2,34,-1
 492 631 l 2,35,36
 465 631 465 631 364 663 c 1,37,-1
 299 663 l 1,38,39
 246 636 246 636 246 577 c 0,40,41
 246 369 246 369 449 289 c 1,42,43
 642 235 642 235 727 235 c 0,44,45
 902 235 902 235 1059 385 c 1,46,-1
 1069 385 l 2,47,48
 1086 385 1086 385 1123 150 c 1,49,50
 1166 102 1166 102 1166 53 c 1,51,-1
 1134 32 l 1,52,-1
 1037 32 l 1,53,54
 680 11 680 11 32 0 c 1,55,-1
 21 21 l 1,56,57
 43 174 43 174 43 235 c 2,58,-1
 43 449 l 2,59,60
 43 1083 43 1083 0 1380 c 1,61,62
 32 1390 32 1390 32 1401 c 1,63,-1
 139 1380 l 1,64,65
 424 1433 424 1433 492 1433 c 2,0,-1
EndSplineSet
Validated: 1
EndChar

StartChar: Eacute
Encoding: 201 201 137
Width: 1151
GlyphClass: 1
Flags: W
LayerCount: 2
Fore
SplineSet
492 1433 m 2,0,-1
 567 1433 l 2,1,2
 744 1433 744 1433 962 1283 c 1,3,-1
 1027 1273 l 1,4,5
 1071 1390 1071 1390 1091 1390 c 2,6,-1
 1123 1390 l 2,7,8
 1138 1390 1138 1390 1155 1358 c 1,9,-1
 1155 1273 l 2,10,11
 1155 1100 1155 1100 930 1016 c 1,12,-1
 920 1016 l 2,13,14
 898 1016 898 1016 813 1155 c 1,15,16
 720 1219 720 1219 652 1219 c 2,17,-1
 449 1219 l 1,18,19
 271 1173 271 1173 192 1037 c 1,20,21
 160 941 160 941 160 909 c 2,22,-1
 160 834 l 2,23,24
 163 781 163 781 182 781 c 1,25,26
 282 866 282 866 364 866 c 1,27,28
 588 834 588 834 588 823 c 1,29,30
 693 856 693 856 727 856 c 1,31,-1
 738 834 l 1,32,33
 673 631 673 631 556 631 c 2,34,-1
 492 631 l 2,35,36
 465 631 465 631 364 663 c 1,37,-1
 299 663 l 1,38,39
 246 636 246 636 246 577 c 0,40,41
 246 369 246 369 449 289 c 1,42,43
 642 235 642 235 727 235 c 0,44,45
 902 235 902 235 1059 385 c 1,46,-1
 1069 385 l 2,47,48
 1086 385 1086 385 1123 150 c 1,49,50
 1166 102 1166 102 1166 53 c 1,51,-1
 1134 32 l 1,52,-1
 1037 32 l 1,53,54
 680 11 680 11 32 0 c 1,55,-1
 21 21 l 1,56,57
 43 174 43 174 43 235 c 2,58,-1
 43 449 l 2,59,60
 43 1083 43 1083 0 1380 c 1,61,62
 32 1390 32 1390 32 1401 c 1,63,-1
 139 1380 l 1,64,65
 424 1433 424 1433 492 1433 c 2,0,-1
EndSplineSet
Validated: 1
EndChar

StartChar: Ecircumflex
Encoding: 202 202 138
Width: 1151
GlyphClass: 1
Flags: W
LayerCount: 2
Fore
SplineSet
492 1433 m 2,0,-1
 567 1433 l 2,1,2
 744 1433 744 1433 962 1283 c 1,3,-1
 1027 1273 l 1,4,5
 1071 1390 1071 1390 1091 1390 c 2,6,-1
 1123 1390 l 2,7,8
 1138 1390 1138 1390 1155 1358 c 1,9,-1
 1155 1273 l 2,10,11
 1155 1100 1155 1100 930 1016 c 1,12,-1
 920 1016 l 2,13,14
 898 1016 898 1016 813 1155 c 1,15,16
 720 1219 720 1219 652 1219 c 2,17,-1
 449 1219 l 1,18,19
 271 1173 271 1173 192 1037 c 1,20,21
 160 941 160 941 160 909 c 2,22,-1
 160 834 l 2,23,24
 163 781 163 781 182 781 c 1,25,26
 282 866 282 866 364 866 c 1,27,28
 588 834 588 834 588 823 c 1,29,30
 693 856 693 856 727 856 c 1,31,-1
 738 834 l 1,32,33
 673 631 673 631 556 631 c 2,34,-1
 492 631 l 2,35,36
 465 631 465 631 364 663 c 1,37,-1
 299 663 l 1,38,39
 246 636 246 636 246 577 c 0,40,41
 246 369 246 369 449 289 c 1,42,43
 642 235 642 235 727 235 c 0,44,45
 902 235 902 235 1059 385 c 1,46,-1
 1069 385 l 2,47,48
 1086 385 1086 385 1123 150 c 1,49,50
 1166 102 1166 102 1166 53 c 1,51,-1
 1134 32 l 1,52,-1
 1037 32 l 1,53,54
 680 11 680 11 32 0 c 1,55,-1
 21 21 l 1,56,57
 43 174 43 174 43 235 c 2,58,-1
 43 449 l 2,59,60
 43 1083 43 1083 0 1380 c 1,61,62
 32 1390 32 1390 32 1401 c 1,63,-1
 139 1380 l 1,64,65
 424 1433 424 1433 492 1433 c 2,0,-1
EndSplineSet
Validated: 1
EndChar

StartChar: Edieresis
Encoding: 203 203 139
Width: 1151
GlyphClass: 1
Flags: W
LayerCount: 2
Fore
SplineSet
492 1433 m 2,0,-1
 567 1433 l 2,1,2
 744 1433 744 1433 962 1283 c 1,3,-1
 1027 1273 l 1,4,5
 1071 1390 1071 1390 1091 1390 c 2,6,-1
 1123 1390 l 2,7,8
 1138 1390 1138 1390 1155 1358 c 1,9,-1
 1155 1273 l 2,10,11
 1155 1100 1155 1100 930 1016 c 1,12,-1
 920 1016 l 2,13,14
 898 1016 898 1016 813 1155 c 1,15,16
 720 1219 720 1219 652 1219 c 2,17,-1
 449 1219 l 1,18,19
 271 1173 271 1173 192 1037 c 1,20,21
 160 941 160 941 160 909 c 2,22,-1
 160 834 l 2,23,24
 163 781 163 781 182 781 c 1,25,26
 282 866 282 866 364 866 c 1,27,28
 588 834 588 834 588 823 c 1,29,30
 693 856 693 856 727 856 c 1,31,-1
 738 834 l 1,32,33
 673 631 673 631 556 631 c 2,34,-1
 492 631 l 2,35,36
 465 631 465 631 364 663 c 1,37,-1
 299 663 l 1,38,39
 246 636 246 636 246 577 c 0,40,41
 246 369 246 369 449 289 c 1,42,43
 642 235 642 235 727 235 c 0,44,45
 902 235 902 235 1059 385 c 1,46,-1
 1069 385 l 2,47,48
 1086 385 1086 385 1123 150 c 1,49,50
 1166 102 1166 102 1166 53 c 1,51,-1
 1134 32 l 1,52,-1
 1037 32 l 1,53,54
 680 11 680 11 32 0 c 1,55,-1
 21 21 l 1,56,57
 43 174 43 174 43 235 c 2,58,-1
 43 449 l 2,59,60
 43 1083 43 1083 0 1380 c 1,61,62
 32 1390 32 1390 32 1401 c 1,63,-1
 139 1380 l 1,64,65
 424 1433 424 1433 492 1433 c 2,0,-1
EndSplineSet
Validated: 1
EndChar

StartChar: Igrave
Encoding: 204 204 140
Width: 483
GlyphClass: 1
Flags: W
LayerCount: 2
Fore
SplineSet
23 1433 m 1,0,1
 224 1387 224 1387 344 1376 c 0,2,3
 372 1376 372 1376 596 1422 c 1,4,-1
 608 1399 l 1,5,6
 436 1259 436 1259 436 986 c 2,7,-1
 436 275 l 2,8,9
 436 249 436 249 504 34 c 1,10,11
 488 34 488 34 470 0 c 1,12,-1
 390 11 l 1,13,-1
 310 11 l 2,14,15
 252 11 252 11 138 0 c 1,16,-1
 126 23 l 1,17,-1
 126 34 l 1,18,19
 172 160 172 160 172 229 c 2,20,-1
 172 883 l 2,21,22
 172 1197 172 1197 11 1387 c 1,23,24
 0 1409 0 1409 0 1422 c 1,25,-1
 23 1433 l 1,0,1
EndSplineSet
Validated: 1
EndChar

StartChar: Iacute
Encoding: 205 205 141
Width: 483
GlyphClass: 1
Flags: W
LayerCount: 2
Fore
SplineSet
23 1433 m 1,0,1
 224 1387 224 1387 344 1376 c 0,2,3
 372 1376 372 1376 596 1422 c 1,4,-1
 608 1399 l 1,5,6
 436 1259 436 1259 436 986 c 2,7,-1
 436 275 l 2,8,9
 436 249 436 249 504 34 c 1,10,11
 488 34 488 34 470 0 c 1,12,-1
 390 11 l 1,13,-1
 310 11 l 2,14,15
 252 11 252 11 138 0 c 1,16,-1
 126 23 l 1,17,-1
 126 34 l 1,18,19
 172 160 172 160 172 229 c 2,20,-1
 172 883 l 2,21,22
 172 1197 172 1197 11 1387 c 1,23,24
 0 1409 0 1409 0 1422 c 1,25,-1
 23 1433 l 1,0,1
EndSplineSet
Validated: 1
EndChar

StartChar: Icircumflex
Encoding: 206 206 142
Width: 483
GlyphClass: 1
Flags: W
LayerCount: 2
Fore
SplineSet
23 1433 m 1,0,1
 224 1387 224 1387 344 1376 c 0,2,3
 372 1376 372 1376 596 1422 c 1,4,-1
 608 1399 l 1,5,6
 436 1259 436 1259 436 986 c 2,7,-1
 436 275 l 2,8,9
 436 249 436 249 504 34 c 1,10,11
 488 34 488 34 470 0 c 1,12,-1
 390 11 l 1,13,-1
 310 11 l 2,14,15
 252 11 252 11 138 0 c 1,16,-1
 126 23 l 1,17,-1
 126 34 l 1,18,19
 172 160 172 160 172 229 c 2,20,-1
 172 883 l 2,21,22
 172 1197 172 1197 11 1387 c 1,23,24
 0 1409 0 1409 0 1422 c 1,25,-1
 23 1433 l 1,0,1
EndSplineSet
Validated: 1
EndChar

StartChar: Idieresis
Encoding: 207 207 143
Width: 483
GlyphClass: 1
Flags: W
LayerCount: 2
Fore
SplineSet
23 1433 m 1,0,1
 224 1387 224 1387 344 1376 c 0,2,3
 372 1376 372 1376 596 1422 c 1,4,-1
 608 1399 l 1,5,6
 436 1259 436 1259 436 986 c 2,7,-1
 436 275 l 2,8,9
 436 249 436 249 504 34 c 1,10,11
 488 34 488 34 470 0 c 1,12,-1
 390 11 l 1,13,-1
 310 11 l 2,14,15
 252 11 252 11 138 0 c 1,16,-1
 126 23 l 1,17,-1
 126 34 l 1,18,19
 172 160 172 160 172 229 c 2,20,-1
 172 883 l 2,21,22
 172 1197 172 1197 11 1387 c 1,23,24
 0 1409 0 1409 0 1422 c 1,25,-1
 23 1433 l 1,0,1
EndSplineSet
Validated: 1
EndChar

StartChar: Ntilde
Encoding: 209 209 145
Width: 1202
GlyphClass: 1
Flags: W
LayerCount: 2
Fore
SplineSet
760 1429 m 1,0,-1
 817 1429 l 1,1,2
 1068 1237 1068 1237 1191 783 c 1,3,-1
 1191 544 l 1,4,-1
 1089 238 l 1,5,-1
 1089 204 l 1,6,7
 1134 77 1134 77 1134 45 c 2,8,-1
 1134 34 l 2,9,10
 1134 18 1134 18 1100 0 c 1,11,12
 1020 0 1020 0 998 147 c 1,13,14
 921 1089 921 1089 680 1089 c 1,15,16
 431 1055 431 1055 431 930 c 2,17,-1
 431 329 l 2,18,19
 431 261 431 261 488 34 c 1,20,-1
 465 23 l 1,21,22
 332 34 332 34 272 34 c 0,23,24
 243 34 243 34 159 11 c 1,25,26
 113 28 113 28 113 45 c 1,27,28
 159 170 159 170 170 306 c 1,29,30
 159 578 159 578 159 737 c 2,31,-1
 159 975 l 2,32,33
 159 1220 159 1220 11 1384 c 1,34,35
 0 1384 0 1384 0 1395 c 0,36,37
 4 1418 4 1418 23 1418 c 0,38,39
 128 1398 128 1398 340 1384 c 1,40,41
 399 1406 399 1406 578 1418 c 1,42,-1
 590 1395 l 1,43,-1
 488 1282 l 1,44,-1
 488 1248 l 1,45,46
 549 1248 549 1248 760 1429 c 1,0,-1
230 1702 m 0,47,48
 340 1702 340 1702 623 1607 c 1,49,-1
 637 1579 l 1,50,51
 528 1457 528 1457 379 1457 c 0,52,53
 332 1457 332 1457 135 1525 c 1,54,-1
 40 1525 l 2,55,56
 6 1525 6 1525 -1 1579 c 1,57,58
 28 1702 28 1702 230 1702 c 0,47,48
EndSplineSet
Validated: 1
EndChar

StartChar: Ograve
Encoding: 210 210 146
Width: 1215
GlyphClass: 1
Flags: W
LayerCount: 2
Fore
SplineSet
616 1433 m 0,0,1
 1012 1433 1012 1433 1176 963 c 1,2,3
 1198 773 1198 773 1198 750 c 2,4,-1
 1198 728 l 2,5,6
 1198 246 1198 246 705 11 c 1,7,-1
 593 0 l 1,8,-1
 515 0 l 2,9,10
 262 0 262 0 45 369 c 1,11,12
 11 501 11 501 0 649 c 1,13,14
 0 1071 0 1071 425 1399 c 1,15,16
 515 1433 515 1433 616 1433 c 0,0,1
168 862 m 0,17,18
 168 588 168 588 515 291 c 1,19,20
 630 246 630 246 672 246 c 2,21,-1
 784 246 l 2,22,23
 1006 246 1006 246 1041 571 c 1,24,25
 1041 754 1041 754 817 1030 c 1,26,27
 627 1164 627 1164 526 1164 c 2,28,-1
 425 1164 l 1,29,30
 179 1104 179 1104 179 918 c 1,31,32
 168 918 168 918 168 862 c 0,17,18
EndSplineSet
Validated: 1
EndChar

StartChar: Oacute
Encoding: 211 211 147
Width: 1215
GlyphClass: 1
Flags: W
LayerCount: 2
Fore
SplineSet
616 1433 m 0,0,1
 1012 1433 1012 1433 1176 963 c 1,2,3
 1198 773 1198 773 1198 750 c 2,4,-1
 1198 728 l 2,5,6
 1198 246 1198 246 705 11 c 1,7,-1
 593 0 l 1,8,-1
 515 0 l 2,9,10
 262 0 262 0 45 369 c 1,11,12
 11 501 11 501 0 649 c 1,13,14
 0 1071 0 1071 425 1399 c 1,15,16
 515 1433 515 1433 616 1433 c 0,0,1
168 862 m 0,17,18
 168 588 168 588 515 291 c 1,19,20
 630 246 630 246 672 246 c 2,21,-1
 784 246 l 2,22,23
 1006 246 1006 246 1041 571 c 1,24,25
 1041 754 1041 754 817 1030 c 1,26,27
 627 1164 627 1164 526 1164 c 2,28,-1
 425 1164 l 1,29,30
 179 1104 179 1104 179 918 c 1,31,32
 168 918 168 918 168 862 c 0,17,18
EndSplineSet
Validated: 1
EndChar

StartChar: Ocircumflex
Encoding: 212 212 148
Width: 1215
GlyphClass: 1
Flags: W
LayerCount: 2
Fore
SplineSet
616 1433 m 0,0,1
 1012 1433 1012 1433 1176 963 c 1,2,3
 1198 773 1198 773 1198 750 c 2,4,-1
 1198 728 l 2,5,6
 1198 246 1198 246 705 11 c 1,7,-1
 593 0 l 1,8,-1
 515 0 l 2,9,10
 262 0 262 0 45 369 c 1,11,12
 11 501 11 501 0 649 c 1,13,14
 0 1071 0 1071 425 1399 c 1,15,16
 515 1433 515 1433 616 1433 c 0,0,1
168 862 m 0,17,18
 168 588 168 588 515 291 c 1,19,20
 630 246 630 246 672 246 c 2,21,-1
 784 246 l 2,22,23
 1006 246 1006 246 1041 571 c 1,24,25
 1041 754 1041 754 817 1030 c 1,26,27
 627 1164 627 1164 526 1164 c 2,28,-1
 425 1164 l 1,29,30
 179 1104 179 1104 179 918 c 1,31,32
 168 918 168 918 168 862 c 0,17,18
EndSplineSet
Validated: 1
EndChar

StartChar: Otilde
Encoding: 213 213 149
Width: 1215
GlyphClass: 1
Flags: W
LayerCount: 2
Fore
SplineSet
616 1433 m 0,0,1
 1012 1433 1012 1433 1176 963 c 1,2,3
 1198 773 1198 773 1198 750 c 2,4,-1
 1198 728 l 2,5,6
 1198 246 1198 246 705 11 c 1,7,-1
 593 0 l 1,8,-1
 515 0 l 2,9,10
 262 0 262 0 45 369 c 1,11,12
 11 501 11 501 0 649 c 1,13,14
 0 1071 0 1071 425 1399 c 1,15,16
 515 1433 515 1433 616 1433 c 0,0,1
168 862 m 0,17,18
 168 588 168 588 515 291 c 1,19,20
 630 246 630 246 672 246 c 2,21,-1
 784 246 l 2,22,23
 1006 246 1006 246 1041 571 c 1,24,25
 1041 754 1041 754 817 1030 c 1,26,27
 627 1164 627 1164 526 1164 c 2,28,-1
 425 1164 l 1,29,30
 179 1104 179 1104 179 918 c 1,31,32
 168 918 168 918 168 862 c 0,17,18
EndSplineSet
Validated: 1
EndChar

StartChar: Odieresis
Encoding: 214 214 150
Width: 1215
GlyphClass: 1
Flags: W
LayerCount: 2
Fore
SplineSet
616 1433 m 0,0,1
 1012 1433 1012 1433 1176 963 c 1,2,3
 1198 773 1198 773 1198 750 c 2,4,-1
 1198 728 l 2,5,6
 1198 246 1198 246 705 11 c 1,7,-1
 593 0 l 1,8,-1
 515 0 l 2,9,10
 262 0 262 0 45 369 c 1,11,12
 11 501 11 501 0 649 c 1,13,14
 0 1071 0 1071 425 1399 c 1,15,16
 515 1433 515 1433 616 1433 c 0,0,1
168 862 m 0,17,18
 168 588 168 588 515 291 c 1,19,20
 630 246 630 246 672 246 c 2,21,-1
 784 246 l 2,22,23
 1006 246 1006 246 1041 571 c 1,24,25
 1041 754 1041 754 817 1030 c 1,26,27
 627 1164 627 1164 526 1164 c 2,28,-1
 425 1164 l 1,29,30
 179 1104 179 1104 179 918 c 1,31,32
 168 918 168 918 168 862 c 0,17,18
EndSplineSet
Validated: 1
EndChar

StartChar: Ugrave
Encoding: 217 217 153
Width: 1241
GlyphClass: 1
Flags: W
LayerCount: 2
Fore
SplineSet
23 1433 m 2,0,-1
 35 1433 l 2,1,2
 46 1433 46 1433 196 1398 c 1,3,-1
 438 1398 l 2,4,5
 462 1398 462 1398 587 1433 c 1,6,-1
 599 1410 l 1,7,-1
 599 1398 l 1,8,9
 438 1257 438 1257 438 1087 c 2,10,-1
 438 431 l 2,11,12
 438 263 438 263 737 131 c 1,13,-1
 772 131 l 1,14,15
 910 207 910 207 910 304 c 2,16,-1
 910 915 l 2,17,18
 910 1210 910 1210 749 1387 c 1,19,-1
 749 1410 l 2,20,21
 752 1433 752 1433 772 1433 c 2,22,-1
 783 1433 l 1,23,24
 933 1398 933 1398 945 1398 c 2,25,-1
 1186 1398 l 2,26,27
 1211 1398 1211 1398 1336 1433 c 1,28,-1
 1348 1410 l 1,29,-1
 1348 1398 l 1,30,31
 1186 1288 1186 1288 1186 984 c 2,32,-1
 1186 293 l 2,33,34
 1186 242 1186 242 1244 16 c 1,35,-1
 1221 5 l 1,36,37
 1083 16 1083 16 1014 16 c 0,38,39
 993 16 993 16 887 -7 c 1,40,41
 859 85 859 85 829 85 c 1,42,43
 682 -10 682 -10 576 -53 c 1,44,45
 372 16 372 16 346 16 c 2,46,-1
 265 16 l 1,47,48
 153 -7 153 -7 138 -7 c 1,49,50
 115 21 115 21 115 39 c 1,51,52
 161 123 161 123 161 223 c 2,53,-1
 161 926 l 2,54,55
 161 1221 161 1221 0 1375 c 1,56,-1
 0 1410 l 1,57,58
 4 1433 4 1433 23 1433 c 2,0,-1
EndSplineSet
Validated: 1
EndChar

StartChar: Uacute
Encoding: 218 218 154
Width: 1241
GlyphClass: 1
Flags: W
LayerCount: 2
Fore
SplineSet
23 1433 m 2,0,-1
 35 1433 l 2,1,2
 46 1433 46 1433 196 1398 c 1,3,-1
 438 1398 l 2,4,5
 462 1398 462 1398 587 1433 c 1,6,-1
 599 1410 l 1,7,-1
 599 1398 l 1,8,9
 438 1257 438 1257 438 1087 c 2,10,-1
 438 431 l 2,11,12
 438 263 438 263 737 131 c 1,13,-1
 772 131 l 1,14,15
 910 207 910 207 910 304 c 2,16,-1
 910 915 l 2,17,18
 910 1210 910 1210 749 1387 c 1,19,-1
 749 1410 l 2,20,21
 752 1433 752 1433 772 1433 c 2,22,-1
 783 1433 l 1,23,24
 933 1398 933 1398 945 1398 c 2,25,-1
 1186 1398 l 2,26,27
 1211 1398 1211 1398 1336 1433 c 1,28,-1
 1348 1410 l 1,29,-1
 1348 1398 l 1,30,31
 1186 1288 1186 1288 1186 984 c 2,32,-1
 1186 293 l 2,33,34
 1186 242 1186 242 1244 16 c 1,35,-1
 1221 5 l 1,36,37
 1083 16 1083 16 1014 16 c 0,38,39
 993 16 993 16 887 -7 c 1,40,41
 859 85 859 85 829 85 c 1,42,43
 682 -10 682 -10 576 -53 c 1,44,45
 372 16 372 16 346 16 c 2,46,-1
 265 16 l 1,47,48
 153 -7 153 -7 138 -7 c 1,49,50
 115 21 115 21 115 39 c 1,51,52
 161 123 161 123 161 223 c 2,53,-1
 161 926 l 2,54,55
 161 1221 161 1221 0 1375 c 1,56,-1
 0 1410 l 1,57,58
 4 1433 4 1433 23 1433 c 2,0,-1
EndSplineSet
Validated: 1
EndChar

